<?xml version="1.0" encoding="utf-8" standalone="no"?>
<!DOCTYPE svg PUBLIC "-//W3C//DTD SVG 1.1//EN"
  "http://www.w3.org/Graphics/SVG/1.1/DTD/svg11.dtd">
<svg xmlns:xlink="http://www.w3.org/1999/xlink" width="948.330008pt" height="423.097656pt" viewBox="0 0 948.330008 423.097656" xmlns="http://www.w3.org/2000/svg" version="1.1">
 <metadata>
  <rdf:RDF xmlns:dc="http://purl.org/dc/elements/1.1/" xmlns:cc="http://creativecommons.org/ns#" xmlns:rdf="http://www.w3.org/1999/02/22-rdf-syntax-ns#">
   <cc:Work>
    <dc:type rdf:resource="http://purl.org/dc/dcmitype/StillImage"/>
    <dc:date>2026-02-19T23:30:24.154268</dc:date>
    <dc:format>image/svg+xml</dc:format>
    <dc:creator>
     <cc:Agent>
      <dc:title>Matplotlib v3.10.3, https://matplotlib.org/</dc:title>
     </cc:Agent>
    </dc:creator>
   </cc:Work>
  </rdf:RDF>
 </metadata>
 <defs>
  <style type="text/css">*{stroke-linejoin: round; stroke-linecap: butt}</style>
 </defs>
 <g id="figure_1">
  <g id="patch_1">
   <path d="M 0 423.097656 
L 948.330008 423.097656 
L 948.330008 0 
L 0 0 
z
" style="fill: #ffffff"/>
  </g>
  <g id="axes_1">
   <g id="patch_2">
    <path d="M 46.030156 382.637969 
L 405.590156 382.637969 
L 405.590156 23.077969 
L 46.030156 23.077969 
z
" style="fill: #ffffff"/>
   </g>
   <g id="patch_3">
    <path d="M 333.678156 202.857969 
L 333.623849 199.43554 
L 333.460983 196.016557 
L 333.189722 192.604463 
L 332.810338 189.202694 
L 332.323214 185.814674 
L 331.728841 182.443816 
L 331.027817 179.093512 
L 330.220847 175.767138 
L 329.308744 172.468041 
L 328.292428 169.199545 
L 327.17292 165.96494 
L 325.951348 162.767483 
L 324.628943 159.610394 
L 323.207036 156.496851 
L 321.687058 153.42999 
L 320.070541 150.412899 
L 318.359111 147.448616 
L 316.554492 144.540125 
L 314.658502 141.690355 
L 312.673048 138.902176 
L 310.600131 136.178395 
L 308.441838 133.521755 
L 306.200342 130.93493 
L 303.877899 128.420526 
L 301.476849 125.981074 
L 298.999609 123.61903 
L 296.448674 121.336774 
L 293.826611 119.136602 
L 291.136062 117.020731 
L 288.379735 114.99129 
L 285.560406 113.050324 
L 282.680913 111.199786 
L 279.744156 109.44154 
L 276.753093 107.777357 
L 273.710734 106.208912 
L 270.620143 104.737785 
L 267.484432 103.365456 
L 264.306759 102.093307 
L 261.090323 100.92262 
L 257.838363 99.854574 
L 254.554154 98.890243 
L 251.241001 98.030598 
L 247.902242 97.276506 
L 244.541238 96.628726 
L 241.161373 96.087909 
L 237.766051 95.654601 
L 234.358691 95.329238 
L 230.942722 95.112147 
L 227.521586 95.003546 
L 224.098726 95.003546 
L 220.67759 95.112147 
L 217.261622 95.329238 
L 213.854261 95.654601 
L 210.458939 96.087909 
L 207.079075 96.628726 
L 203.718071 97.276506 
L 200.379311 98.030598 
L 197.066159 98.890243 
L 193.781949 99.854574 
L 190.529989 100.92262 
L 187.313553 102.093307 
L 184.13588 103.365456 
L 181.00017 104.737785 
L 177.909579 106.208912 
L 174.86722 107.777357 
L 171.876156 109.44154 
L 168.9394 111.199786 
L 166.059907 113.050324 
L 163.240578 114.99129 
L 160.484251 117.020731 
L 157.793701 119.136602 
L 155.171639 121.336774 
L 152.620703 123.61903 
L 150.143463 125.981074 
L 147.742413 128.420526 
L 145.419971 130.93493 
L 143.178474 133.521755 
L 141.020181 136.178395 
L 138.947264 138.902176 
L 136.961811 141.690355 
L 135.06582 144.540125 
L 133.261201 147.448616 
L 131.549772 150.412899 
L 129.933254 153.42999 
L 128.413276 156.496851 
L 126.991369 159.610394 
L 125.668964 162.767483 
L 124.447393 165.96494 
L 123.327885 169.199545 
L 122.311568 172.468041 
L 121.399466 175.767138 
L 120.592496 179.093512 
L 119.891472 182.443816 
L 119.297098 185.814674 
L 118.809974 189.202694 
L 118.430591 192.604463 
L 118.159329 196.016557 
L 117.996463 199.43554 
L 117.942156 202.857969 
z
" clip-path="url(#p4c9467266b)" style="fill: #0000ff; opacity: 0.15; stroke: #0000ff; stroke-linejoin: miter"/>
   </g>
   <g id="PathCollection_1">
    <defs>
     <path id="m80e13338fe" d="M -5 5 
L 5 -5 
M -5 -5 
L 5 5 
" style="stroke: #800080; stroke-width: 3"/>
    </defs>
    <g clip-path="url(#p4c9467266b)">
     <use xlink:href="#m80e13338fe" x="225.810156" y="202.857969" style="fill: #800080; stroke: #800080; stroke-width: 3"/>
    </g>
   </g>
   <g id="matplotlib.axis_1">
    <g id="xtick_1">
     <g id="line2d_1">
      <path d="M 81.986156 382.637969 
L 81.986156 23.077969 
" clip-path="url(#p4c9467266b)" style="fill: none; stroke: #b0b0b0; stroke-opacity: 0.3; stroke-width: 0.8; stroke-linecap: square"/>
     </g>
     <g id="line2d_2">
      <defs>
       <path id="m01ebe69157" d="M 0 0 
L 0 3.5 
" style="stroke: #000000; stroke-width: 0.8"/>
      </defs>
      <g>
       <use xlink:href="#m01ebe69157" x="81.986156" y="382.637969" style="stroke: #000000; stroke-width: 0.8"/>
      </g>
     </g>
     <g id="text_1">
      <!-- −4 -->
      <g transform="translate(73.877953 397.99625) scale(0.11 -0.11)">
       <defs>
        <path id="DejaVuSerif-2212" d="M 678 2259 
L 4684 2259 
L 4684 1753 
L 678 1753 
L 678 2259 
z
" transform="scale(0.015625)"/>
        <path id="DejaVuSerif-34" d="M 2234 1581 
L 2234 4063 
L 641 1581 
L 2234 1581 
z
M 3609 0 
L 1484 0 
L 1484 331 
L 2234 331 
L 2234 1247 
L 197 1247 
L 197 1588 
L 2241 4750 
L 2859 4750 
L 2859 1581 
L 3750 1581 
L 3750 1247 
L 2859 1247 
L 2859 331 
L 3609 331 
L 3609 0 
z
" transform="scale(0.015625)"/>
       </defs>
       <use xlink:href="#DejaVuSerif-2212"/>
       <use xlink:href="#DejaVuSerif-34" transform="translate(83.789062 0)"/>
      </g>
     </g>
    </g>
    <g id="xtick_2">
     <g id="line2d_3">
      <path d="M 153.898156 382.637969 
L 153.898156 23.077969 
" clip-path="url(#p4c9467266b)" style="fill: none; stroke: #b0b0b0; stroke-opacity: 0.3; stroke-width: 0.8; stroke-linecap: square"/>
     </g>
     <g id="line2d_4">
      <g>
       <use xlink:href="#m01ebe69157" x="153.898156" y="382.637969" style="stroke: #000000; stroke-width: 0.8"/>
      </g>
     </g>
     <g id="text_2">
      <!-- −2 -->
      <g transform="translate(145.789953 397.99625) scale(0.11 -0.11)">
       <defs>
        <path id="DejaVuSerif-32" d="M 819 3553 
L 469 3553 
L 469 4384 
Q 803 4563 1142 4656 
Q 1481 4750 1806 4750 
Q 2534 4750 2956 4397 
Q 3378 4044 3378 3438 
Q 3378 2753 2422 1800 
Q 2347 1728 2309 1691 
L 1131 513 
L 3078 513 
L 3078 1088 
L 3444 1088 
L 3444 0 
L 434 0 
L 434 341 
L 1850 1753 
Q 2319 2222 2519 2614 
Q 2719 3006 2719 3438 
Q 2719 3909 2473 4175 
Q 2228 4441 1797 4441 
Q 1350 4441 1106 4219 
Q 863 3997 819 3553 
z
" transform="scale(0.015625)"/>
       </defs>
       <use xlink:href="#DejaVuSerif-2212"/>
       <use xlink:href="#DejaVuSerif-32" transform="translate(83.789062 0)"/>
      </g>
     </g>
    </g>
    <g id="xtick_3">
     <g id="line2d_5">
      <path d="M 225.810156 382.637969 
L 225.810156 23.077969 
" clip-path="url(#p4c9467266b)" style="fill: none; stroke: #b0b0b0; stroke-opacity: 0.3; stroke-width: 0.8; stroke-linecap: square"/>
     </g>
     <g id="line2d_6">
      <g>
       <use xlink:href="#m01ebe69157" x="225.810156" y="382.637969" style="stroke: #000000; stroke-width: 0.8"/>
      </g>
     </g>
     <g id="text_3">
      <!-- 0 -->
      <g transform="translate(222.310781 397.99625) scale(0.11 -0.11)">
       <defs>
        <path id="DejaVuSerif-30" d="M 2034 219 
Q 2513 219 2750 744 
Q 2988 1269 2988 2328 
Q 2988 3391 2750 3916 
Q 2513 4441 2034 4441 
Q 1556 4441 1318 3916 
Q 1081 3391 1081 2328 
Q 1081 1269 1318 744 
Q 1556 219 2034 219 
z
M 2034 -91 
Q 1275 -91 848 546 
Q 422 1184 422 2328 
Q 422 3475 848 4112 
Q 1275 4750 2034 4750 
Q 2797 4750 3222 4112 
Q 3647 3475 3647 2328 
Q 3647 1184 3222 546 
Q 2797 -91 2034 -91 
z
" transform="scale(0.015625)"/>
       </defs>
       <use xlink:href="#DejaVuSerif-30"/>
      </g>
     </g>
    </g>
    <g id="xtick_4">
     <g id="line2d_7">
      <path d="M 297.722156 382.637969 
L 297.722156 23.077969 
" clip-path="url(#p4c9467266b)" style="fill: none; stroke: #b0b0b0; stroke-opacity: 0.3; stroke-width: 0.8; stroke-linecap: square"/>
     </g>
     <g id="line2d_8">
      <g>
       <use xlink:href="#m01ebe69157" x="297.722156" y="382.637969" style="stroke: #000000; stroke-width: 0.8"/>
      </g>
     </g>
     <g id="text_4">
      <!-- 2 -->
      <g transform="translate(294.222781 397.99625) scale(0.11 -0.11)">
       <use xlink:href="#DejaVuSerif-32"/>
      </g>
     </g>
    </g>
    <g id="xtick_5">
     <g id="line2d_9">
      <path d="M 369.634156 382.637969 
L 369.634156 23.077969 
" clip-path="url(#p4c9467266b)" style="fill: none; stroke: #b0b0b0; stroke-opacity: 0.3; stroke-width: 0.8; stroke-linecap: square"/>
     </g>
     <g id="line2d_10">
      <g>
       <use xlink:href="#m01ebe69157" x="369.634156" y="382.637969" style="stroke: #000000; stroke-width: 0.8"/>
      </g>
     </g>
     <g id="text_5">
      <!-- 4 -->
      <g transform="translate(366.134781 397.99625) scale(0.11 -0.11)">
       <use xlink:href="#DejaVuSerif-34"/>
      </g>
     </g>
    </g>
    <g id="text_6">
     <!-- X (m) -->
     <g transform="translate(209.260469 413.402031) scale(0.12 -0.12)">
      <defs>
       <path id="DejaVuSerif-58" d="M 2119 1997 
L 978 331 
L 1581 331 
L 1581 0 
L 38 0 
L 38 331 
L 575 331 
L 1919 2291 
L 556 4331 
L 56 4331 
L 56 4666 
L 1906 4666 
L 1906 4331 
L 1356 4331 
L 2356 2828 
L 3384 4331 
L 2784 4331 
L 2784 4666 
L 4313 4666 
L 4313 4331 
L 3788 4331 
L 2553 2534 
L 4025 331 
L 4525 331 
L 4525 0 
L 2675 0 
L 2675 331 
L 3231 331 
L 2119 1997 
z
" transform="scale(0.015625)"/>
       <path id="DejaVuSerif-20" transform="scale(0.015625)"/>
       <path id="DejaVuSerif-28" d="M 2041 -997 
Q 1281 -656 893 83 
Q 506 822 506 1931 
Q 506 3044 893 3783 
Q 1281 4522 2041 4863 
L 2041 4556 
Q 1559 4225 1350 3623 
Q 1141 3022 1141 1931 
Q 1141 844 1350 242 
Q 1559 -359 2041 -691 
L 2041 -997 
z
" transform="scale(0.015625)"/>
       <path id="DejaVuSerif-6d" d="M 3316 2675 
Q 3481 3041 3739 3227 
Q 3997 3413 4341 3413 
Q 4863 3413 5119 3089 
Q 5375 2766 5375 2113 
L 5375 331 
L 5894 331 
L 5894 0 
L 4300 0 
L 4300 331 
L 4800 331 
L 4800 2047 
Q 4800 2556 4650 2772 
Q 4500 2988 4153 2988 
Q 3769 2988 3567 2697 
Q 3366 2406 3366 1850 
L 3366 331 
L 3866 331 
L 3866 0 
L 2291 0 
L 2291 331 
L 2791 331 
L 2791 2069 
Q 2791 2566 2641 2777 
Q 2491 2988 2144 2988 
Q 1759 2988 1557 2697 
Q 1356 2406 1356 1850 
L 1356 331 
L 1856 331 
L 1856 0 
L 263 0 
L 263 331 
L 781 331 
L 781 2994 
L 231 2994 
L 231 3322 
L 1356 3322 
L 1356 2731 
Q 1516 3063 1762 3238 
Q 2009 3413 2322 3413 
Q 2709 3413 2968 3220 
Q 3228 3028 3316 2675 
z
" transform="scale(0.015625)"/>
       <path id="DejaVuSerif-29" d="M 453 -997 
L 453 -691 
Q 934 -359 1145 242 
Q 1356 844 1356 1931 
Q 1356 3022 1145 3623 
Q 934 4225 453 4556 
L 453 4863 
Q 1216 4522 1603 3783 
Q 1991 3044 1991 1931 
Q 1991 822 1603 83 
Q 1216 -656 453 -997 
z
" transform="scale(0.015625)"/>
      </defs>
      <use xlink:href="#DejaVuSerif-58"/>
      <use xlink:href="#DejaVuSerif-20" transform="translate(71.191406 0)"/>
      <use xlink:href="#DejaVuSerif-28" transform="translate(102.978516 0)"/>
      <use xlink:href="#DejaVuSerif-6d" transform="translate(141.992188 0)"/>
      <use xlink:href="#DejaVuSerif-29" transform="translate(236.816406 0)"/>
     </g>
    </g>
   </g>
   <g id="matplotlib.axis_2">
    <g id="ytick_1">
     <g id="line2d_11">
      <path d="M 46.030156 346.681969 
L 405.590156 346.681969 
" clip-path="url(#p4c9467266b)" style="fill: none; stroke: #b0b0b0; stroke-opacity: 0.3; stroke-width: 0.8; stroke-linecap: square"/>
     </g>
     <g id="line2d_12">
      <defs>
       <path id="mc94280bb45" d="M 0 0 
L -3.5 0 
" style="stroke: #000000; stroke-width: 0.8"/>
      </defs>
      <g>
       <use xlink:href="#mc94280bb45" x="46.030156" y="346.681969" style="stroke: #000000; stroke-width: 0.8"/>
      </g>
     </g>
     <g id="text_7">
      <!-- −4 -->
      <g transform="translate(22.81375 350.861109) scale(0.11 -0.11)">
       <use xlink:href="#DejaVuSerif-2212"/>
       <use xlink:href="#DejaVuSerif-34" transform="translate(83.789062 0)"/>
      </g>
     </g>
    </g>
    <g id="ytick_2">
     <g id="line2d_13">
      <path d="M 46.030156 274.769969 
L 405.590156 274.769969 
" clip-path="url(#p4c9467266b)" style="fill: none; stroke: #b0b0b0; stroke-opacity: 0.3; stroke-width: 0.8; stroke-linecap: square"/>
     </g>
     <g id="line2d_14">
      <g>
       <use xlink:href="#mc94280bb45" x="46.030156" y="274.769969" style="stroke: #000000; stroke-width: 0.8"/>
      </g>
     </g>
     <g id="text_8">
      <!-- −2 -->
      <g transform="translate(22.81375 278.949109) scale(0.11 -0.11)">
       <use xlink:href="#DejaVuSerif-2212"/>
       <use xlink:href="#DejaVuSerif-32" transform="translate(83.789062 0)"/>
      </g>
     </g>
    </g>
    <g id="ytick_3">
     <g id="line2d_15">
      <path d="M 46.030156 202.857969 
L 405.590156 202.857969 
" clip-path="url(#p4c9467266b)" style="fill: none; stroke: #b0b0b0; stroke-opacity: 0.3; stroke-width: 0.8; stroke-linecap: square"/>
     </g>
     <g id="line2d_16">
      <g>
       <use xlink:href="#mc94280bb45" x="46.030156" y="202.857969" style="stroke: #000000; stroke-width: 0.8"/>
      </g>
     </g>
     <g id="text_9">
      <!-- 0 -->
      <g transform="translate(32.031406 207.037109) scale(0.11 -0.11)">
       <use xlink:href="#DejaVuSerif-30"/>
      </g>
     </g>
    </g>
    <g id="ytick_4">
     <g id="line2d_17">
      <path d="M 46.030156 130.945969 
L 405.590156 130.945969 
" clip-path="url(#p4c9467266b)" style="fill: none; stroke: #b0b0b0; stroke-opacity: 0.3; stroke-width: 0.8; stroke-linecap: square"/>
     </g>
     <g id="line2d_18">
      <g>
       <use xlink:href="#mc94280bb45" x="46.030156" y="130.945969" style="stroke: #000000; stroke-width: 0.8"/>
      </g>
     </g>
     <g id="text_10">
      <!-- 2 -->
      <g transform="translate(32.031406 135.125109) scale(0.11 -0.11)">
       <use xlink:href="#DejaVuSerif-32"/>
      </g>
     </g>
    </g>
    <g id="ytick_5">
     <g id="line2d_19">
      <path d="M 46.030156 59.033969 
L 405.590156 59.033969 
" clip-path="url(#p4c9467266b)" style="fill: none; stroke: #b0b0b0; stroke-opacity: 0.3; stroke-width: 0.8; stroke-linecap: square"/>
     </g>
     <g id="line2d_20">
      <g>
       <use xlink:href="#mc94280bb45" x="46.030156" y="59.033969" style="stroke: #000000; stroke-width: 0.8"/>
      </g>
     </g>
     <g id="text_11">
      <!-- 4 -->
      <g transform="translate(32.031406 63.213109) scale(0.11 -0.11)">
       <use xlink:href="#DejaVuSerif-34"/>
      </g>
     </g>
    </g>
    <g id="text_12">
     <!-- Y (m) -->
     <g transform="translate(16.318125 219.097344) rotate(-90) scale(0.12 -0.12)">
      <defs>
       <path id="DejaVuSerif-59" d="M 1209 0 
L 1209 331 
L 1806 331 
L 1806 2009 
L 366 4331 
L -72 4331 
L -72 4666 
L 1663 4666 
L 1663 4331 
L 1119 4331 
L 2284 2444 
L 3450 4331 
L 2925 4331 
L 2925 4666 
L 4281 4666 
L 4281 4331 
L 3841 4331 
L 2438 2069 
L 2438 331 
L 3034 331 
L 3034 0 
L 1209 0 
z
" transform="scale(0.015625)"/>
      </defs>
      <use xlink:href="#DejaVuSerif-59"/>
      <use xlink:href="#DejaVuSerif-20" transform="translate(66.015625 0)"/>
      <use xlink:href="#DejaVuSerif-28" transform="translate(97.802734 0)"/>
      <use xlink:href="#DejaVuSerif-6d" transform="translate(136.816406 0)"/>
      <use xlink:href="#DejaVuSerif-29" transform="translate(231.640625 0)"/>
     </g>
    </g>
   </g>
   <g id="line2d_21">
    <path d="M 333.678156 202.857969 
L 333.623849 199.43554 
L 333.460983 196.016557 
L 333.189722 192.604463 
L 332.810338 189.202694 
L 332.323214 185.814674 
L 331.728841 182.443816 
L 331.027817 179.093512 
L 330.220847 175.767138 
L 329.308744 172.468041 
L 328.292428 169.199545 
L 327.17292 165.96494 
L 325.951348 162.767483 
L 324.628943 159.610394 
L 323.207036 156.496851 
L 321.687058 153.42999 
L 320.070541 150.412899 
L 318.359111 147.448616 
L 316.554492 144.540125 
L 314.658502 141.690355 
L 312.673048 138.902176 
L 310.600131 136.178395 
L 308.441838 133.521755 
L 306.200342 130.93493 
L 303.877899 128.420526 
L 301.476849 125.981074 
L 298.999609 123.61903 
L 296.448674 121.336774 
L 293.826611 119.136602 
L 291.136062 117.020731 
L 288.379735 114.99129 
L 285.560406 113.050324 
L 282.680913 111.199786 
L 279.744156 109.44154 
L 276.753093 107.777357 
L 273.710734 106.208912 
L 270.620143 104.737785 
L 267.484432 103.365456 
L 264.306759 102.093307 
L 261.090323 100.92262 
L 257.838363 99.854574 
L 254.554154 98.890243 
L 251.241001 98.030598 
L 247.902242 97.276506 
L 244.541238 96.628726 
L 241.161373 96.087909 
L 237.766051 95.654601 
L 234.358691 95.329238 
L 230.942722 95.112147 
L 227.521586 95.003546 
L 224.098726 95.003546 
L 220.67759 95.112147 
L 217.261622 95.329238 
L 213.854261 95.654601 
L 210.458939 96.087909 
L 207.079075 96.628726 
L 203.718071 97.276506 
L 200.379311 98.030598 
L 197.066159 98.890243 
L 193.781949 99.854574 
L 190.529989 100.92262 
L 187.313553 102.093307 
L 184.13588 103.365456 
L 181.00017 104.737785 
L 177.909579 106.208912 
L 174.86722 107.777357 
L 171.876156 109.44154 
L 168.9394 111.199786 
L 166.059907 113.050324 
L 163.240578 114.99129 
L 160.484251 117.020731 
L 157.793701 119.136602 
L 155.171639 121.336774 
L 152.620703 123.61903 
L 150.143463 125.981074 
L 147.742413 128.420526 
L 145.419971 130.93493 
L 143.178474 133.521755 
L 141.020181 136.178395 
L 138.947264 138.902176 
L 136.961811 141.690355 
L 135.06582 144.540125 
L 133.261201 147.448616 
L 131.549772 150.412899 
L 129.933254 153.42999 
L 128.413276 156.496851 
L 126.991369 159.610394 
L 125.668964 162.767483 
L 124.447393 165.96494 
L 123.327885 169.199545 
L 122.311568 172.468041 
L 121.399466 175.767138 
L 120.592496 179.093512 
L 119.891472 182.443816 
L 119.297098 185.814674 
L 118.809974 189.202694 
L 118.430591 192.604463 
L 118.159329 196.016557 
L 117.996463 199.43554 
L 117.942156 202.857969 
" clip-path="url(#p4c9467266b)" style="fill: none; stroke: #0000ff; stroke-width: 2.5; stroke-linecap: square"/>
   </g>
   <g id="line2d_22">
    <path d="M 333.678156 202.857969 
L 333.460983 196.016557 
L 332.810338 189.202694 
L 331.728841 182.443816 
L 330.220847 175.767138 
L 328.292428 169.199545 
L 325.951348 162.767483 
L 323.207036 156.496851 
L 320.070541 150.412899 
L 316.554492 144.540125 
L 312.673048 138.902176 
L 308.441838 133.521755 
L 303.877899 128.420526 
L 298.999609 123.61903 
L 293.826611 119.136602 
L 288.379735 114.99129 
L 282.680913 111.199786 
L 276.753093 107.777357 
L 270.620143 104.737785 
L 264.306759 102.093307 
L 257.838363 99.854574 
L 251.241001 98.030598 
L 244.541238 96.628726 
L 237.766051 95.654601 
L 230.942722 95.112147 
L 224.098726 95.003546 
L 217.261622 95.329238 
L 210.458939 96.087909 
L 203.718071 97.276506 
L 197.066159 98.890243 
L 190.529989 100.92262 
L 184.13588 103.365456 
L 177.909579 106.208912 
L 171.876156 109.44154 
L 166.059907 113.050324 
L 160.484251 117.020731 
L 155.171639 121.336774 
L 150.143463 125.981074 
L 145.419971 130.93493 
L 141.020181 136.178395 
L 136.961811 141.690355 
L 133.261201 147.448616 
L 129.933254 153.42999 
L 126.991369 159.610394 
L 124.447393 165.96494 
L 122.311568 172.468041 
L 120.592496 179.093512 
L 119.297098 185.814674 
L 118.430591 192.604463 
L 117.996463 199.43554 
L 117.996463 206.280397 
L 118.430591 213.111474 
L 119.297098 219.901263 
L 120.592496 226.622425 
L 122.311568 233.247896 
L 124.447393 239.750998 
L 126.991369 246.105544 
L 129.933254 252.285947 
L 133.261201 258.267322 
L 136.961811 264.025582 
L 141.020181 269.537542 
L 145.419971 274.781007 
L 150.143463 279.734864 
L 155.171639 284.379164 
L 160.484251 288.695207 
L 166.059907 292.665614 
L 171.876156 296.274397 
L 177.909579 299.507025 
L 184.13588 302.350482 
L 190.529989 304.793317 
L 197.066159 306.825695 
L 203.718071 308.439431 
L 210.458939 309.628028 
L 217.261622 310.3867 
L 224.098726 310.712391 
L 230.942722 310.603791 
L 237.766051 310.061336 
L 244.541238 309.087211 
L 251.241001 307.685339 
L 257.838363 305.861364 
L 264.306759 303.62263 
L 270.620143 300.978153 
L 276.753093 297.93858 
L 282.680913 294.516151 
L 288.379735 290.724648 
L 293.826611 286.579336 
L 298.999609 282.096907 
L 303.877899 277.295412 
L 308.441838 272.194183 
L 312.673048 266.813761 
L 316.554492 261.175812 
L 320.070541 255.303038 
L 323.207036 249.219086 
L 325.951348 242.948455 
L 328.292428 236.516392 
L 330.220847 229.9488 
L 331.728841 223.272122 
L 332.810338 216.513244 
L 333.460983 209.69938 
L 333.678156 202.857969 
" clip-path="url(#p4c9467266b)" style="fill: none; stroke-dasharray: 3.7,1.6; stroke-dashoffset: 0; stroke: #808080; stroke-opacity: 0.5"/>
   </g>
   <g id="line2d_23">
    <path d="M 225.810156 202.857969 
L 224.098726 95.003546 
" clip-path="url(#p4c9467266b)" style="fill: none; stroke-dasharray: 2,3.3; stroke-dashoffset: 0; stroke: #800080; stroke-width: 2"/>
   </g>
   <g id="patch_4">
    <path d="M 46.030156 382.637969 
L 46.030156 23.077969 
" style="fill: none; stroke: #000000; stroke-width: 0.8; stroke-linejoin: miter; stroke-linecap: square"/>
   </g>
   <g id="patch_5">
    <path d="M 405.590156 382.637969 
L 405.590156 23.077969 
" style="fill: none; stroke: #000000; stroke-width: 0.8; stroke-linejoin: miter; stroke-linecap: square"/>
   </g>
   <g id="patch_6">
    <path d="M 46.030156 382.637969 
L 405.590156 382.637969 
" style="fill: none; stroke: #000000; stroke-width: 0.8; stroke-linejoin: miter; stroke-linecap: square"/>
   </g>
   <g id="patch_7">
    <path d="M 46.030156 23.077969 
L 405.590156 23.077969 
" style="fill: none; stroke: #000000; stroke-width: 0.8; stroke-linejoin: miter; stroke-linecap: square"/>
   </g>
   <g id="patch_8">
    <path d="M 222.10191 95.035232 
Q 188.149393 95.573989 158.109502 96.050661 
" style="fill: none; stroke: #008000; stroke-width: 3.5; stroke-linecap: round"/>
    <path d="M 168.187573 100.891372 
L 158.109502 96.050661 
L 168.028913 90.892631 
" style="fill: none; stroke: #008000; stroke-width: 3.5; stroke-linecap: round"/>
   </g>
   <g id="text_13">
    <!-- $\vec{v}$ (velocity) -->
    <g style="fill: #008000" transform="translate(166.578178 81.7621) scale(0.12 -0.12)">
     <defs>
      <path id="STIXGeneral-Regular-20d7" d="M -109 4186 
L -954 3507 
L -1069 3558 
Q -755 3821 -755 3917 
Q -755 4013 -1069 4013 
L -2899 4013 
L -2899 4358 
L -1069 4358 
Q -755 4358 -755 4454 
Q -755 4474 -768 4496 
Q -781 4518 -816 4553 
Q -851 4589 -880 4621 
Q -909 4653 -973 4713 
Q -1037 4774 -1075 4813 
L -960 4864 
L -109 4186 
z
" transform="scale(0.015625)"/>
      <path id="DejaVuSerif-Italic-76" d="M 1681 0 
L 1259 0 
L 619 2988 
L 241 2988 
L 303 3322 
L 1163 3322 
L 1725 703 
Q 2084 1016 2325 1413 
Q 2825 2238 3003 2988 
L 2622 2988 
L 2688 3322 
L 3547 3322 
Q 3206 2034 2775 1313 
Q 2400 688 1681 0 
z
" transform="scale(0.015625)"/>
      <path id="DejaVuSerif-Bold-20" transform="scale(0.015625)"/>
      <path id="DejaVuSerif-Bold-28" d="M 2694 -997 
Q 1641 -606 1122 122 
Q 603 850 603 1931 
Q 603 3013 1115 3731 
Q 1628 4450 2694 4863 
L 2694 4488 
Q 2200 4188 1983 3598 
Q 1766 3009 1766 1931 
Q 1766 856 1983 267 
Q 2200 -322 2694 -622 
L 2694 -997 
z
" transform="scale(0.015625)"/>
      <path id="DejaVuSerif-Bold-76" d="M 1428 0 
L 250 2944 
L -116 2944 
L -116 3322 
L 1791 3322 
L 1791 2944 
L 1388 2944 
L 2228 844 
L 3066 2944 
L 2631 2944 
L 2631 3322 
L 3878 3322 
L 3878 2944 
L 3494 2944 
L 2316 0 
L 1428 0 
z
" transform="scale(0.015625)"/>
      <path id="DejaVuSerif-Bold-65" d="M 2566 1875 
Q 2566 2531 2444 2795 
Q 2322 3059 2028 3059 
Q 1744 3059 1620 2800 
Q 1497 2541 1497 1931 
L 1497 1875 
L 2566 1875 
z
M 3781 1503 
L 1497 1503 
L 1497 1478 
Q 1497 834 1690 548 
Q 1884 263 2316 263 
Q 2675 263 2897 453 
Q 3119 644 3181 1006 
L 3700 1006 
Q 3566 441 3166 175 
Q 2766 -91 2047 -91 
Q 1184 -91 723 364 
Q 263 819 263 1663 
Q 263 2488 734 2950 
Q 1206 3413 2047 3413 
Q 2872 3413 3312 2927 
Q 3753 2441 3781 1503 
z
" transform="scale(0.015625)"/>
      <path id="DejaVuSerif-Bold-6c" d="M 1797 378 
L 2272 378 
L 2272 0 
L 219 0 
L 219 378 
L 691 378 
L 691 4488 
L 219 4488 
L 219 4863 
L 1797 4863 
L 1797 378 
z
" transform="scale(0.015625)"/>
      <path id="DejaVuSerif-Bold-6f" d="M 2138 263 
Q 2488 263 2630 563 
Q 2772 863 2772 1663 
Q 2772 2463 2631 2761 
Q 2491 3059 2138 3059 
Q 1784 3059 1640 2757 
Q 1497 2456 1497 1663 
Q 1497 869 1640 566 
Q 1784 263 2138 263 
z
M 2138 -91 
Q 1259 -91 761 376 
Q 263 844 263 1663 
Q 263 2484 761 2948 
Q 1259 3413 2138 3413 
Q 3019 3413 3516 2948 
Q 4013 2484 4013 1663 
Q 4013 844 3514 376 
Q 3016 -91 2138 -91 
z
" transform="scale(0.015625)"/>
      <path id="DejaVuSerif-Bold-63" d="M 3609 1038 
Q 3491 469 3123 189 
Q 2756 -91 2125 -91 
Q 1238 -91 750 368 
Q 263 828 263 1663 
Q 263 2488 744 2950 
Q 1225 3413 2081 3413 
Q 2428 3413 2781 3347 
Q 3134 3281 3500 3150 
L 3500 2228 
L 3150 2228 
Q 3100 2650 2903 2854 
Q 2706 3059 2350 3059 
Q 1888 3059 1692 2746 
Q 1497 2434 1497 1663 
Q 1497 909 1687 586 
Q 1878 263 2309 263 
Q 2644 263 2845 463 
Q 3047 663 3091 1038 
L 3609 1038 
z
" transform="scale(0.015625)"/>
      <path id="DejaVuSerif-Bold-69" d="M 588 4263 
Q 588 4516 763 4689 
Q 938 4863 1191 4863 
Q 1438 4863 1611 4689 
Q 1784 4516 1784 4263 
Q 1784 4016 1611 3842 
Q 1438 3669 1191 3669 
Q 938 3669 763 3841 
Q 588 4013 588 4263 
z
M 1797 378 
L 2272 378 
L 2272 0 
L 219 0 
L 219 378 
L 691 378 
L 691 2944 
L 219 2944 
L 219 3322 
L 1797 3322 
L 1797 378 
z
" transform="scale(0.015625)"/>
      <path id="DejaVuSerif-Bold-74" d="M 634 2944 
L 153 2944 
L 153 3322 
L 634 3322 
L 634 4353 
L 1741 4353 
L 1741 3322 
L 2663 3322 
L 2663 2944 
L 1741 2944 
L 1741 909 
Q 1741 475 1809 369 
Q 1878 263 2059 263 
Q 2259 263 2356 397 
Q 2453 531 2459 813 
L 2925 813 
Q 2897 313 2651 111 
Q 2406 -91 1806 -91 
Q 1122 -91 878 123 
Q 634 338 634 909 
L 634 2944 
z
" transform="scale(0.015625)"/>
      <path id="DejaVuSerif-Bold-79" d="M 1997 -750 
Q 1847 -1116 1634 -1269 
Q 1422 -1422 1063 -1422 
Q 909 -1422 721 -1387 
Q 534 -1353 313 -1288 
L 313 -594 
L 666 -597 
Q 675 -838 779 -953 
Q 884 -1069 1094 -1069 
Q 1297 -1069 1422 -958 
Q 1547 -847 1672 -538 
L 1722 -422 
L 275 2944 
L -84 2944 
L -84 3322 
L 1831 3322 
L 1831 2944 
L 1434 2944 
L 2278 978 
L 3066 2944 
L 2625 2944 
L 2625 3322 
L 3872 3322 
L 3872 2944 
L 3469 2944 
L 1997 -750 
z
" transform="scale(0.015625)"/>
      <path id="DejaVuSerif-Bold-29" d="M 325 -997 
L 325 -622 
Q 819 -322 1036 267 
Q 1253 856 1253 1931 
Q 1253 3009 1036 3598 
Q 819 4188 325 4488 
L 325 4863 
Q 1391 4450 1905 3731 
Q 2419 3013 2419 1931 
Q 2419 850 1898 122 
Q 1378 -606 325 -997 
z
" transform="scale(0.015625)"/>
     </defs>
     <use xlink:href="#STIXGeneral-Regular-20d7" transform="translate(58.42041 10)"/>
     <use xlink:href="#DejaVuSerif-Italic-76" transform="translate(0 0.390625)"/>
     <use xlink:href="#DejaVuSerif-Bold-20" transform="translate(56.494141 0.390625)"/>
     <use xlink:href="#DejaVuSerif-Bold-28" transform="translate(91.308594 0.390625)"/>
     <use xlink:href="#DejaVuSerif-Bold-76" transform="translate(138.623047 0.390625)"/>
     <use xlink:href="#DejaVuSerif-Bold-65" transform="translate(196.728516 0.390625)"/>
     <use xlink:href="#DejaVuSerif-Bold-6c" transform="translate(260.351562 0.390625)"/>
     <use xlink:href="#DejaVuSerif-Bold-6f" transform="translate(298.339844 0.390625)"/>
     <use xlink:href="#DejaVuSerif-Bold-63" transform="translate(365.039062 0.390625)"/>
     <use xlink:href="#DejaVuSerif-Bold-69" transform="translate(425.927734 0.390625)"/>
     <use xlink:href="#DejaVuSerif-Bold-74" transform="translate(463.916016 0.390625)"/>
     <use xlink:href="#DejaVuSerif-Bold-79" transform="translate(510.107422 0.390625)"/>
     <use xlink:href="#DejaVuSerif-Bold-29" transform="translate(568.212891 0.390625)"/>
    </g>
   </g>
   <g id="patch_9">
    <path d="M 224.130429 97.00146 
Q 224.526568 121.966127 224.860621 143.018169 
" style="fill: none; stroke: #ff0000; stroke-width: 3.5; stroke-linecap: round"/>
    <path d="M 229.701332 132.940097 
L 224.860621 143.018169 
L 219.70259 133.098757 
" style="fill: none; stroke: #ff0000; stroke-width: 3.5; stroke-linecap: round"/>
   </g>
   <g id="text_14">
    <!-- $\vec{a}$ (acceleration) -->
    <g style="fill: #ff0000" transform="translate(239.336841 170.504358) scale(0.12 -0.12)">
     <defs>
      <path id="DejaVuSerif-Italic-61" d="M 2325 519 
Q 1909 -91 1238 -91 
Q 688 -91 409 281 
Q 216 544 216 919 
Q 216 1078 250 1256 
Q 463 2359 1231 2928 
Q 1884 3413 2675 3413 
Q 3206 3413 3388 3322 
L 2806 331 
L 3300 331 
L 3238 0 
L 2225 0 
L 2325 519 
z
M 822 938 
Q 822 269 1469 269 
Q 1863 269 2130 583 
Q 2397 897 2516 1497 
L 2806 3003 
L 2806 3003 
Q 2806 3094 2556 3094 
Q 1956 3094 1491 2625 
Q 1028 2153 863 1297 
Q 822 1097 822 938 
z
" transform="scale(0.015625)"/>
      <path id="DejaVuSerif-Bold-61" d="M 3525 2041 
L 3525 378 
L 4000 378 
L 4000 0 
L 2419 0 
L 2419 422 
Q 2200 159 1931 34 
Q 1663 -91 1319 -91 
Q 809 -91 536 182 
Q 263 456 263 966 
Q 263 1525 655 1803 
Q 1047 2081 1838 2081 
L 2419 2081 
L 2419 2278 
Q 2419 2681 2228 2873 
Q 2038 3066 1638 3066 
Q 1306 3066 1126 2930 
Q 947 2794 872 2484 
L 519 2484 
L 519 3200 
Q 816 3306 1134 3359 
Q 1453 3413 1806 3413 
Q 2697 3413 3111 3081 
Q 3525 2750 3525 2041 
z
M 2419 1044 
L 2419 1709 
L 2003 1709 
Q 1694 1709 1528 1540 
Q 1363 1372 1363 1056 
Q 1363 741 1483 584 
Q 1603 428 1850 428 
Q 2106 428 2262 597 
Q 2419 766 2419 1044 
z
" transform="scale(0.015625)"/>
      <path id="DejaVuSerif-Bold-72" d="M 3438 3359 
L 3438 2369 
L 3084 2369 
Q 3066 2634 2941 2764 
Q 2816 2894 2578 2894 
Q 2216 2894 2006 2575 
Q 1797 2256 1797 1691 
L 1797 378 
L 2400 378 
L 2400 0 
L 219 0 
L 219 378 
L 691 378 
L 691 2944 
L 184 2944 
L 184 3322 
L 1797 3322 
L 1797 2731 
Q 1959 3078 2226 3245 
Q 2494 3413 2881 3413 
Q 2978 3413 3117 3398 
Q 3256 3384 3438 3359 
z
" transform="scale(0.015625)"/>
      <path id="DejaVuSerif-Bold-6e" d="M 219 0 
L 219 378 
L 691 378 
L 691 2944 
L 219 2944 
L 219 3322 
L 1797 3322 
L 1797 2853 
Q 1997 3150 2253 3281 
Q 2509 3413 2900 3413 
Q 3459 3413 3745 3083 
Q 4031 2753 4031 2113 
L 4031 378 
L 4506 378 
L 4506 0 
L 2522 0 
L 2522 378 
L 2925 378 
L 2925 2144 
Q 2925 2566 2817 2730 
Q 2709 2894 2444 2894 
Q 2109 2894 1953 2648 
Q 1797 2403 1797 1869 
L 1797 378 
L 2203 378 
L 2203 0 
L 219 0 
z
" transform="scale(0.015625)"/>
     </defs>
     <use xlink:href="#STIXGeneral-Regular-20d7" transform="translate(61.20166 12)"/>
     <use xlink:href="#DejaVuSerif-Italic-61" transform="translate(0 0.96875)"/>
     <use xlink:href="#DejaVuSerif-Bold-20" transform="translate(59.619141 0.96875)"/>
     <use xlink:href="#DejaVuSerif-Bold-28" transform="translate(94.433594 0.96875)"/>
     <use xlink:href="#DejaVuSerif-Bold-61" transform="translate(141.748047 0.96875)"/>
     <use xlink:href="#DejaVuSerif-Bold-63" transform="translate(206.542969 0.96875)"/>
     <use xlink:href="#DejaVuSerif-Bold-63" transform="translate(267.431641 0.96875)"/>
     <use xlink:href="#DejaVuSerif-Bold-65" transform="translate(328.320312 0.96875)"/>
     <use xlink:href="#DejaVuSerif-Bold-6c" transform="translate(391.943359 0.96875)"/>
     <use xlink:href="#DejaVuSerif-Bold-65" transform="translate(429.931641 0.96875)"/>
     <use xlink:href="#DejaVuSerif-Bold-72" transform="translate(493.554688 0.96875)"/>
     <use xlink:href="#DejaVuSerif-Bold-61" transform="translate(546.240234 0.96875)"/>
     <use xlink:href="#DejaVuSerif-Bold-74" transform="translate(611.035156 0.96875)"/>
     <use xlink:href="#DejaVuSerif-Bold-69" transform="translate(657.226562 0.96875)"/>
     <use xlink:href="#DejaVuSerif-Bold-6f" transform="translate(695.214844 0.96875)"/>
     <use xlink:href="#DejaVuSerif-Bold-6e" transform="translate(761.914062 0.96875)"/>
     <use xlink:href="#DejaVuSerif-Bold-29" transform="translate(834.619141 0.96875)"/>
    </g>
   </g>
   <g id="text_15">
    <!-- O -->
    <g style="fill: #800080" transform="translate(204.236556 224.431569) scale(0.13 -0.13)">
     <defs>
      <path id="DejaVuSerif-Bold-4f" d="M 2784 288 
Q 3381 288 3672 791 
Q 3963 1294 3963 2328 
Q 3963 3366 3672 3869 
Q 3381 4372 2784 4372 
Q 2191 4372 1898 3864 
Q 1606 3356 1606 2328 
Q 1606 1303 1898 795 
Q 2191 288 2784 288 
z
M 2784 -91 
Q 1606 -91 937 553 
Q 269 1197 269 2328 
Q 269 3459 939 4104 
Q 1609 4750 2784 4750 
Q 3963 4750 4631 4106 
Q 5300 3463 5300 2328 
Q 5300 1197 4629 553 
Q 3959 -91 2784 -91 
z
" transform="scale(0.015625)"/>
     </defs>
     <use xlink:href="#DejaVuSerif-Bold-4f"/>
    </g>
   </g>
   <g id="text_16">
    <!-- $R = \frac{1}{\kappa}$ -->
    <g style="fill: #800080" transform="translate(188.998441 141.739558) scale(0.12 -0.12)">
     <defs>
      <path id="DejaVuSerif-Italic-52" d="M 3066 2316 
Q 3272 2256 3403 2114 
Q 3534 1972 3609 1716 
L 4016 331 
L 4584 331 
L 4522 0 
L 3422 0 
L 2981 1484 
Q 2856 1916 2706 2042 
Q 2556 2169 2250 2169 
L 1553 2169 
L 1194 331 
L 1853 331 
L 1791 0 
L -97 0 
L -34 331 
L 559 331 
L 1338 4331 
L 744 4331 
L 809 4666 
L 3175 4666 
Q 3856 4666 4164 4341 
Q 4472 4016 4356 3419 
Q 4263 2938 3938 2661 
Q 3613 2384 3066 2316 
z
M 1619 2503 
L 2541 2503 
Q 3013 2503 3280 2726 
Q 3547 2950 3639 3419 
Q 3731 3888 3548 4109 
Q 3366 4331 2894 4331 
L 1972 4331 
L 1619 2503 
z
" transform="scale(0.015625)"/>
      <path id="DejaVuSerif-3d" d="M 678 2894 
L 4684 2894 
L 4684 2394 
L 678 2394 
L 678 2894 
z
M 678 1619 
L 4684 1619 
L 4684 1119 
L 678 1119 
L 678 1619 
z
" transform="scale(0.015625)"/>
      <path id="DejaVuSerif-31" d="M 909 0 
L 909 331 
L 1722 331 
L 1722 4213 
L 781 3603 
L 781 4013 
L 1919 4750 
L 2350 4750 
L 2350 331 
L 3163 331 
L 3163 0 
L 909 0 
z
" transform="scale(0.015625)"/>
      <path id="DejaVuSerif-Italic-3ba" d="M 2175 3322 
L 2113 2988 
L 1619 2988 
L 1366 1697 
L 3019 2988 
L 2541 2988 
L 2603 3322 
L 4106 3322 
L 4044 2988 
L 3475 2988 
L 2309 2075 
L 3231 331 
L 3709 331 
L 3647 0 
L 2009 0 
L 2072 331 
L 2547 331 
L 1819 1697 
L 1284 1275 
L 1100 331 
L 1619 331 
L 1556 0 
L -56 0 
L 6 331 
L 525 331 
L 1044 2994 
L 494 2994 
L 556 3322 
L 2175 3322 
z
" transform="scale(0.015625)"/>
     </defs>
     <use xlink:href="#DejaVuSerif-Italic-52" transform="translate(0 0.195312)"/>
     <use xlink:href="#DejaVuSerif-3d" transform="translate(94.257812 0.195312)"/>
     <use xlink:href="#DejaVuSerif-31" transform="translate(198.011719 44.046875) scale(0.7)"/>
     <use xlink:href="#DejaVuSerif-Italic-3ba" transform="translate(197.011719 -23.5375) scale(0.7)"/>
     <path d="M 197.011719 19.046875 
L 197.011719 25.296875 
L 242.915039 25.296875 
L 242.915039 19.046875 
L 197.011719 19.046875 
z
"/>
    </g>
   </g>
   <g id="text_17">
    <!-- Velocity and Acceleration Vectors -->
    <g transform="translate(104.107813 17.077969) scale(0.13 -0.13)">
     <defs>
      <path id="DejaVuSerif-Bold-56" d="M 5056 4666 
L 5056 4288 
L 4666 4288 
L 2906 0 
L 2163 0 
L 403 4288 
L -38 4288 
L -38 4666 
L 2150 4666 
L 2150 4288 
L 1697 4288 
L 2956 1197 
L 4225 4288 
L 3669 4288 
L 3669 4666 
L 5056 4666 
z
" transform="scale(0.015625)"/>
      <path id="DejaVuSerif-Bold-64" d="M 2747 1497 
L 2747 1825 
Q 2747 2406 2597 2665 
Q 2447 2925 2119 2925 
Q 1775 2925 1636 2651 
Q 1497 2378 1497 1663 
Q 1497 947 1637 672 
Q 1778 397 2119 397 
Q 2447 397 2597 656 
Q 2747 916 2747 1497 
z
M 3853 378 
L 4325 378 
L 4325 0 
L 2747 0 
L 2747 422 
Q 2606 163 2367 36 
Q 2128 -91 1778 -91 
Q 1072 -91 667 378 
Q 263 847 263 1663 
Q 263 2481 667 2947 
Q 1072 3413 1778 3413 
Q 2128 3413 2367 3286 
Q 2606 3159 2747 2900 
L 2747 4488 
L 2272 4488 
L 2272 4863 
L 3853 4863 
L 3853 378 
z
" transform="scale(0.015625)"/>
      <path id="DejaVuSerif-Bold-41" d="M -50 0 
L -50 378 
L 331 378 
L 2088 4666 
L 2834 4666 
L 4594 378 
L 5038 378 
L 5038 0 
L 2853 0 
L 2853 378 
L 3309 378 
L 2925 1331 
L 1172 1331 
L 781 378 
L 1338 378 
L 1338 0 
L -50 0 
z
M 1325 1709 
L 2772 1709 
L 2053 3494 
L 1325 1709 
z
" transform="scale(0.015625)"/>
      <path id="DejaVuSerif-Bold-73" d="M 300 97 
L 300 1025 
L 653 1025 
Q 697 653 931 458 
Q 1166 263 1569 263 
Q 1906 263 2086 380 
Q 2266 497 2266 716 
Q 2266 916 2152 1025 
Q 2038 1134 1709 1216 
L 1253 1331 
Q 738 1459 506 1698 
Q 275 1938 275 2344 
Q 275 2884 650 3148 
Q 1025 3413 1806 3413 
Q 2100 3413 2433 3364 
Q 2766 3316 3169 3213 
L 3169 2375 
L 2816 2375 
Q 2788 2716 2573 2887 
Q 2359 3059 1959 3059 
Q 1622 3059 1448 2951 
Q 1275 2844 1275 2638 
Q 1275 2469 1375 2372 
Q 1475 2275 1734 2209 
L 2188 2094 
Q 2841 1928 3091 1684 
Q 3341 1441 3341 1006 
Q 3341 444 2939 176 
Q 2538 -91 1691 -91 
Q 1381 -91 1034 -44 
Q 688 3 300 97 
z
" transform="scale(0.015625)"/>
     </defs>
     <use xlink:href="#DejaVuSerif-Bold-56"/>
     <use xlink:href="#DejaVuSerif-Bold-65" transform="translate(68.462891 0)"/>
     <use xlink:href="#DejaVuSerif-Bold-6c" transform="translate(132.085938 0)"/>
     <use xlink:href="#DejaVuSerif-Bold-6f" transform="translate(170.074219 0)"/>
     <use xlink:href="#DejaVuSerif-Bold-63" transform="translate(236.773438 0)"/>
     <use xlink:href="#DejaVuSerif-Bold-69" transform="translate(297.662109 0)"/>
     <use xlink:href="#DejaVuSerif-Bold-74" transform="translate(335.650391 0)"/>
     <use xlink:href="#DejaVuSerif-Bold-79" transform="translate(381.841797 0)"/>
     <use xlink:href="#DejaVuSerif-Bold-20" transform="translate(439.947266 0)"/>
     <use xlink:href="#DejaVuSerif-Bold-61" transform="translate(474.761719 0)"/>
     <use xlink:href="#DejaVuSerif-Bold-6e" transform="translate(539.556641 0)"/>
     <use xlink:href="#DejaVuSerif-Bold-64" transform="translate(612.261719 0)"/>
     <use xlink:href="#DejaVuSerif-Bold-20" transform="translate(682.183594 0)"/>
     <use xlink:href="#DejaVuSerif-Bold-41" transform="translate(716.998047 0)"/>
     <use xlink:href="#DejaVuSerif-Bold-63" transform="translate(794.585938 0)"/>
     <use xlink:href="#DejaVuSerif-Bold-63" transform="translate(855.474609 0)"/>
     <use xlink:href="#DejaVuSerif-Bold-65" transform="translate(916.363281 0)"/>
     <use xlink:href="#DejaVuSerif-Bold-6c" transform="translate(979.986328 0)"/>
     <use xlink:href="#DejaVuSerif-Bold-65" transform="translate(1017.974609 0)"/>
     <use xlink:href="#DejaVuSerif-Bold-72" transform="translate(1081.597656 0)"/>
     <use xlink:href="#DejaVuSerif-Bold-61" transform="translate(1134.283203 0)"/>
     <use xlink:href="#DejaVuSerif-Bold-74" transform="translate(1199.078125 0)"/>
     <use xlink:href="#DejaVuSerif-Bold-69" transform="translate(1245.269531 0)"/>
     <use xlink:href="#DejaVuSerif-Bold-6f" transform="translate(1283.257812 0)"/>
     <use xlink:href="#DejaVuSerif-Bold-6e" transform="translate(1349.957031 0)"/>
     <use xlink:href="#DejaVuSerif-Bold-20" transform="translate(1422.662109 0)"/>
     <use xlink:href="#DejaVuSerif-Bold-56" transform="translate(1457.476562 0)"/>
     <use xlink:href="#DejaVuSerif-Bold-65" transform="translate(1525.939453 0)"/>
     <use xlink:href="#DejaVuSerif-Bold-63" transform="translate(1589.5625 0)"/>
     <use xlink:href="#DejaVuSerif-Bold-74" transform="translate(1650.451172 0)"/>
     <use xlink:href="#DejaVuSerif-Bold-6f" transform="translate(1696.642578 0)"/>
     <use xlink:href="#DejaVuSerif-Bold-72" transform="translate(1763.341797 0)"/>
     <use xlink:href="#DejaVuSerif-Bold-73" transform="translate(1816.027344 0)"/>
    </g>
   </g>
   <g id="PathCollection_2">
    <defs>
     <path id="m3bca203246" d="M 0 7.905694 
C 2.096615 7.905694 4.10764 7.0727 5.59017 5.59017 
C 7.0727 4.10764 7.905694 2.096615 7.905694 0 
C 7.905694 -2.096615 7.0727 -4.10764 5.59017 -5.59017 
C 4.10764 -7.0727 2.096615 -7.905694 0 -7.905694 
C -2.096615 -7.905694 -4.10764 -7.0727 -5.59017 -5.59017 
C -7.0727 -4.10764 -7.905694 -2.096615 -7.905694 0 
C -7.905694 2.096615 -7.0727 4.10764 -5.59017 5.59017 
C -4.10764 7.0727 -2.096615 7.905694 0 7.905694 
z
" style="stroke: #000000; stroke-width: 2"/>
    </defs>
    <g clip-path="url(#p4c9467266b)">
     <use xlink:href="#m3bca203246" x="224.098726" y="95.003546" style="fill: #ffff00; stroke: #000000; stroke-width: 2"/>
    </g>
   </g>
  </g>
  <g id="axes_2">
   <g id="text_18">
    <!-- Curvature Formulas -->
    <g transform="translate(620.720859 45.550469) scale(0.15 -0.15)">
     <defs>
      <path id="DejaVuSerif-Bold-43" d="M 4769 1331 
Q 4584 609 4106 259 
Q 3628 -91 2822 -91 
Q 1641 -91 955 561 
Q 269 1213 269 2328 
Q 269 3447 955 4098 
Q 1641 4750 2822 4750 
Q 3238 4750 3688 4650 
Q 4138 4550 4641 4347 
L 4641 3200 
L 4244 3200 
Q 4122 3788 3800 4080 
Q 3478 4372 2950 4372 
Q 2269 4372 1937 3870 
Q 1606 3369 1606 2328 
Q 1606 1288 1937 788 
Q 2269 288 2956 288 
Q 3422 288 3717 547 
Q 4013 806 4147 1331 
L 4769 1331 
z
" transform="scale(0.015625)"/>
      <path id="DejaVuSerif-Bold-75" d="M 3963 3322 
L 3963 378 
L 4434 378 
L 4434 0 
L 2853 0 
L 2853 469 
Q 2656 172 2400 40 
Q 2144 -91 1753 -91 
Q 1194 -91 908 239 
Q 622 569 622 1209 
L 622 2944 
L 147 2944 
L 147 3322 
L 1728 3322 
L 1728 1381 
Q 1728 763 1831 595 
Q 1934 428 2209 428 
Q 2544 428 2698 675 
Q 2853 922 2853 1459 
L 2853 2944 
L 2450 2944 
L 2450 3322 
L 3963 3322 
z
" transform="scale(0.015625)"/>
      <path id="DejaVuSerif-Bold-46" d="M 300 0 
L 300 378 
L 897 378 
L 897 4288 
L 300 4288 
L 300 4666 
L 4459 4666 
L 4459 3566 
L 4031 3566 
L 4031 4238 
L 2106 4238 
L 2106 2741 
L 3291 2741 
L 3291 3334 
L 3719 3334 
L 3719 1722 
L 3291 1722 
L 3291 2316 
L 2106 2316 
L 2106 378 
L 2841 378 
L 2841 0 
L 300 0 
z
" transform="scale(0.015625)"/>
      <path id="DejaVuSerif-Bold-6d" d="M 3884 2778 
Q 4116 3109 4384 3261 
Q 4653 3413 5013 3413 
Q 5584 3413 5867 3089 
Q 6150 2766 6150 2113 
L 6150 378 
L 6625 378 
L 6625 0 
L 4647 0 
L 4647 378 
L 5044 378 
L 5044 1947 
Q 5044 2569 4948 2731 
Q 4853 2894 4594 2894 
Q 4300 2894 4137 2667 
Q 3975 2441 3975 2022 
L 3975 378 
L 4372 378 
L 4372 0 
L 2472 0 
L 2472 378 
L 2869 378 
L 2869 1947 
Q 2869 2569 2772 2731 
Q 2675 2894 2419 2894 
Q 2122 2894 1959 2667 
Q 1797 2441 1797 2022 
L 1797 378 
L 2194 378 
L 2194 0 
L 219 0 
L 219 378 
L 691 378 
L 691 2944 
L 219 2944 
L 219 3322 
L 1797 3322 
L 1797 2853 
Q 1991 3144 2241 3278 
Q 2491 3413 2834 3413 
Q 3241 3413 3494 3258 
Q 3747 3103 3884 2778 
z
" transform="scale(0.015625)"/>
     </defs>
     <use xlink:href="#DejaVuSerif-Bold-43"/>
     <use xlink:href="#DejaVuSerif-Bold-75" transform="translate(79.589844 0)"/>
     <use xlink:href="#DejaVuSerif-Bold-72" transform="translate(152.294922 0)"/>
     <use xlink:href="#DejaVuSerif-Bold-76" transform="translate(204.980469 0)"/>
     <use xlink:href="#DejaVuSerif-Bold-61" transform="translate(263.085938 0)"/>
     <use xlink:href="#DejaVuSerif-Bold-74" transform="translate(327.880859 0)"/>
     <use xlink:href="#DejaVuSerif-Bold-75" transform="translate(374.072266 0)"/>
     <use xlink:href="#DejaVuSerif-Bold-72" transform="translate(446.777344 0)"/>
     <use xlink:href="#DejaVuSerif-Bold-65" transform="translate(499.462891 0)"/>
     <use xlink:href="#DejaVuSerif-Bold-20" transform="translate(563.085938 0)"/>
     <use xlink:href="#DejaVuSerif-Bold-46" transform="translate(597.900391 0)"/>
     <use xlink:href="#DejaVuSerif-Bold-6f" transform="translate(663.396484 0)"/>
     <use xlink:href="#DejaVuSerif-Bold-72" transform="translate(730.095703 0)"/>
     <use xlink:href="#DejaVuSerif-Bold-6d" transform="translate(782.78125 0)"/>
     <use xlink:href="#DejaVuSerif-Bold-75" transform="translate(888.591797 0)"/>
     <use xlink:href="#DejaVuSerif-Bold-6c" transform="translate(961.296875 0)"/>
     <use xlink:href="#DejaVuSerif-Bold-61" transform="translate(999.285156 0)"/>
     <use xlink:href="#DejaVuSerif-Bold-73" transform="translate(1064.080078 0)"/>
    </g>
   </g>
   <g id="text_19">
    <g id="patch_10">
     <path d="M 675.770156 130.327969 
L 733.730156 130.327969 
Q 737.930156 130.327969 737.930156 126.127969 
L 737.930156 99.807969 
Q 737.930156 95.607969 733.730156 95.607969 
L 675.770156 95.607969 
Q 671.570156 95.607969 671.570156 99.807969 
L 671.570156 126.127969 
Q 671.570156 130.327969 675.770156 130.327969 
z
" style="fill: #fadbd8; opacity: 0.9; stroke: #e74c3c; stroke-width: 2; stroke-linejoin: miter"/>
    </g>
    <!-- $\kappa = \frac{|\vec{v} \times \vec{a}|}{|\vec{v}|^3}$ -->
    <g transform="translate(675.770156 116.887969) scale(0.14 -0.14)">
     <defs>
      <path id="DejaVuSerif-7c" d="M 1331 4891 
L 1331 -1509 
L 825 -1509 
L 825 4891 
L 1331 4891 
z
" transform="scale(0.015625)"/>
      <path id="DejaVuSerif-d7" d="M 4481 3450 
L 3034 2003 
L 4481 563 
L 4122 213 
L 2681 1650 
L 1241 213 
L 884 563 
L 2322 2003 
L 884 3450 
L 1241 3803 
L 2681 2363 
L 4122 3803 
L 4481 3450 
z
" transform="scale(0.015625)"/>
      <path id="DejaVuSerif-33" d="M 622 4469 
Q 988 4606 1323 4678 
Q 1659 4750 1953 4750 
Q 2638 4750 3022 4454 
Q 3406 4159 3406 3634 
Q 3406 3213 3140 2930 
Q 2875 2647 2388 2547 
Q 2963 2466 3280 2130 
Q 3597 1794 3597 1259 
Q 3597 606 3158 257 
Q 2719 -91 1894 -91 
Q 1528 -91 1179 -12 
Q 831 66 488 225 
L 488 1131 
L 838 1131 
Q 869 681 1141 450 
Q 1413 219 1906 219 
Q 2384 219 2661 495 
Q 2938 772 2938 1253 
Q 2938 1803 2653 2086 
Q 2369 2369 1819 2369 
L 1522 2369 
L 1522 2688 
L 1678 2688 
Q 2225 2688 2498 2914 
Q 2772 3141 2772 3597 
Q 2772 4006 2547 4223 
Q 2322 4441 1900 4441 
Q 1478 4441 1245 4241 
Q 1013 4041 972 3647 
L 622 3647 
L 622 4469 
z
" transform="scale(0.015625)"/>
     </defs>
     <use xlink:href="#DejaVuSerif-Italic-3ba" transform="translate(0 0.721875)"/>
     <use xlink:href="#DejaVuSerif-3d" transform="translate(84.541016 0.721875)"/>
     <use xlink:href="#DejaVuSerif-7c" transform="translate(187.294922 61.078125) scale(0.7)"/>
     <use xlink:href="#STIXGeneral-Regular-20d7" transform="translate(252.484131 67.803125) scale(0.7)"/>
     <use xlink:href="#DejaVuSerif-Italic-76" transform="translate(210.878906 61.078125) scale(0.7)"/>
     <use xlink:href="#DejaVuSerif-d7" transform="translate(263.700195 61.078125) scale(0.7)"/>
     <use xlink:href="#STIXGeneral-Regular-20d7" transform="translate(377.780029 68.798438) scale(0.7)"/>
     <use xlink:href="#DejaVuSerif-Italic-61" transform="translate(335.62793 61.078125) scale(0.7)"/>
     <use xlink:href="#DejaVuSerif-7c" transform="translate(377.361328 61.078125) scale(0.7)"/>
     <use xlink:href="#DejaVuSerif-7c" transform="translate(234.294922 -48.477812) scale(0.7)"/>
     <use xlink:href="#STIXGeneral-Regular-20d7" transform="translate(299.484131 -41.752812) scale(0.7)"/>
     <use xlink:href="#DejaVuSerif-Italic-76" transform="translate(257.878906 -48.477812) scale(0.7)"/>
     <use xlink:href="#DejaVuSerif-7c" transform="translate(297.424805 -48.477812) scale(0.7)"/>
     <use xlink:href="#DejaVuSerif-33" transform="translate(321.644641 -23.04375) scale(0.49)"/>
     <path d="M 187.294922 19.573438 
L 187.294922 25.823438 
L 400.945312 25.823438 
L 400.945312 19.573438 
L 187.294922 19.573438 
z
"/>
    </g>
   </g>
   <g id="text_20">
    <g id="patch_11">
     <path d="M 661.840156 198.515469 
L 747.660156 198.515469 
Q 751.860156 198.515469 751.860156 194.315469 
L 751.860156 166.455469 
Q 751.860156 162.255469 747.660156 162.255469 
L 661.840156 162.255469 
Q 657.640156 162.255469 657.640156 166.455469 
L 657.640156 194.315469 
Q 657.640156 198.515469 661.840156 198.515469 
z
" style="fill: #d5f5e3; opacity: 0.9; stroke: #27ae60; stroke-width: 2; stroke-linejoin: miter"/>
    </g>
    <!-- $\kappa = \frac{|v_x a_y - v_y a_x|}{(v_x^2 + v_y^2)^{3/2}}$ -->
    <g transform="translate(661.840156 183.255469) scale(0.14 -0.14)">
     <defs>
      <path id="DejaVuSerif-Italic-78" d="M 409 0 
L 19 0 
L 1484 1594 
L 747 2988 
L 338 2988 
L 400 3322 
L 1244 3322 
L 1934 2028 
L 3125 3322 
L 3516 3322 
L 2078 1759 
L 2838 331 
L 3272 331 
L 3209 0 
L 2338 0 
L 1631 1325 
L 409 0 
z
" transform="scale(0.015625)"/>
      <path id="DejaVuSerif-Italic-79" d="M 3681 3294 
Q 3372 1506 2828 563 
Q 2031 -822 1391 -1238 
Q 1106 -1422 356 -1422 
Q 209 -1422 60 -1397 
Q -88 -1372 -238 -1325 
L -113 -691 
L 181 -691 
Q 175 -741 175 -788 
Q 175 -919 231 -994 
Q 309 -1100 513 -1100 
Q 1063 -1100 1541 -622 
L 756 2988 
L 378 2988 
L 444 3322 
L 1303 3322 
L 2041 25 
Q 2544 778 2666 1088 
Q 3059 2059 3138 2959 
L 2759 2959 
L 2825 3294 
L 3681 3294 
z
" transform="scale(0.015625)"/>
      <path id="DejaVuSerif-2b" d="M 2931 4013 
L 2931 2259 
L 4684 2259 
L 4684 1753 
L 2931 1753 
L 2931 0 
L 2431 0 
L 2431 1753 
L 678 1753 
L 678 2259 
L 2431 2259 
L 2431 4013 
L 2931 4013 
z
" transform="scale(0.015625)"/>
      <path id="DejaVuSerif-2f" d="M 1656 4666 
L 2156 4666 
L 500 -594 
L 0 -594 
L 1656 4666 
z
" transform="scale(0.015625)"/>
     </defs>
     <use xlink:href="#DejaVuSerif-Italic-3ba" transform="translate(0 0.865625)"/>
     <use xlink:href="#DejaVuSerif-3d" transform="translate(84.541016 0.865625)"/>
     <use xlink:href="#DejaVuSerif-7c" transform="translate(187.294922 66.504688) scale(0.7)"/>
     <use xlink:href="#DejaVuSerif-Italic-76" transform="translate(210.878906 66.504688) scale(0.7)"/>
     <use xlink:href="#DejaVuSerif-Italic-78" transform="translate(250.424805 55.604375) scale(0.49)"/>
     <use xlink:href="#DejaVuSerif-Italic-61" transform="translate(279.875801 66.504688) scale(0.7)"/>
     <use xlink:href="#DejaVuSerif-Italic-79" transform="translate(321.609199 55.604375) scale(0.49)"/>
     <use xlink:href="#DejaVuSerif-2212" transform="translate(364.383438 66.504688) scale(0.7)"/>
     <use xlink:href="#DejaVuSerif-Italic-76" transform="translate(436.311172 66.504688) scale(0.7)"/>
     <use xlink:href="#DejaVuSerif-Italic-79" transform="translate(475.85707 55.604375) scale(0.49)"/>
     <use xlink:href="#DejaVuSerif-Italic-61" transform="translate(505.355918 66.504688) scale(0.7)"/>
     <use xlink:href="#DejaVuSerif-Italic-78" transform="translate(547.089316 55.604375) scale(0.49)"/>
     <use xlink:href="#DejaVuSerif-7c" transform="translate(576.540313 66.504688) scale(0.7)"/>
     <use xlink:href="#DejaVuSerif-28" transform="translate(207.294922 -48.334062) scale(0.7)"/>
     <use xlink:href="#DejaVuSerif-Italic-76" transform="translate(234.604492 -48.334062) scale(0.7)"/>
     <use xlink:href="#DejaVuSerif-32" transform="translate(277.117698 -22.9) scale(0.49)"/>
     <use xlink:href="#DejaVuSerif-Italic-78" transform="translate(274.150391 -66.50125) scale(0.49)"/>
     <use xlink:href="#DejaVuSerif-2b" transform="translate(323.3851 -48.334062) scale(0.7)"/>
     <use xlink:href="#DejaVuSerif-Italic-76" transform="translate(395.312835 -48.334062) scale(0.7)"/>
     <use xlink:href="#DejaVuSerif-32" transform="translate(437.82604 -22.9) scale(0.49)"/>
     <use xlink:href="#DejaVuSerif-Italic-79" transform="translate(434.858733 -66.50125) scale(0.49)"/>
     <use xlink:href="#DejaVuSerif-29" transform="translate(470.818052 -48.334062) scale(0.7)"/>
     <use xlink:href="#DejaVuSerif-33" transform="translate(498.763474 -22.9) scale(0.49)"/>
     <use xlink:href="#DejaVuSerif-2f" transform="translate(529.938767 -22.9) scale(0.49)"/>
     <use xlink:href="#DejaVuSerif-32" transform="translate(546.447556 -22.9) scale(0.49)"/>
     <path d="M 187.294922 19.717188 
L 187.294922 25.967188 
L 600.124297 25.967188 
L 600.124297 19.717188 
L 187.294922 19.717188 
z
"/>
    </g>
   </g>
   <g id="text_21">
    <g id="patch_12">
     <path d="M 676.890156 258.777656 
L 732.610156 258.777656 
Q 736.810156 258.777656 736.810156 254.577656 
L 736.810156 241.028281 
Q 736.810156 236.828281 732.610156 236.828281 
L 676.890156 236.828281 
Q 672.690156 236.828281 672.690156 241.028281 
L 672.690156 254.577656 
Q 672.690156 258.777656 676.890156 258.777656 
z
" style="fill: #d6eaf8; opacity: 0.9; stroke: #3498db; stroke-width: 2; stroke-linejoin: miter"/>
    </g>
    <!-- $\omega = v \cdot \kappa$ -->
    <g transform="translate(676.890156 251.666094) scale(0.14 -0.14)">
     <defs>
      <path id="DejaVuSerif-Italic-3c9" d="M 2391 606 
Q 1881 0 1384 -22 
Q 1094 -22 844 91 
Q 659 175 463 409 
Q 297 609 222 947 
Q 181 1134 272 1594 
Q 409 2309 694 2716 
Q 950 3075 1528 3322 
L 1878 3322 
L 1844 3138 
Q 1506 2991 1238 2672 
Q 1088 2497 922 1644 
Q 806 1050 913 716 
Q 1044 300 1450 309 
Q 1663 313 1841 500 
Q 2144 822 2213 1172 
L 2431 2297 
L 3006 2297 
L 2788 1172 
Q 2719 822 2897 500 
Q 3003 313 3219 309 
Q 3619 300 3913 716 
Q 4150 1050 4266 1644 
Q 4431 2497 4350 2672 
Q 4200 2991 3925 3138 
L 3959 3322 
L 4309 3322 
Q 4791 3075 4906 2716 
Q 5034 2309 4894 1594 
Q 4806 1134 4691 947 
Q 4484 609 4244 409 
Q 3956 175 3738 91 
Q 3444 -22 3153 -22 
Q 2672 0 2391 606 
z
" transform="scale(0.015625)"/>
      <path id="DejaVuSerif-22c5" d="M 678 2222 
Q 678 2397 798 2517 
Q 919 2638 1097 2638 
Q 1269 2638 1391 2516 
Q 1513 2394 1513 2222 
Q 1513 2047 1391 1926 
Q 1269 1806 1097 1806 
Q 919 1806 798 1925 
Q 678 2044 678 2222 
z
" transform="scale(0.015625)"/>
     </defs>
     <use xlink:href="#DejaVuSerif-Italic-3c9" transform="translate(0 0.09375)"/>
     <use xlink:href="#DejaVuSerif-3d" transform="translate(100.507812 0.09375)"/>
     <use xlink:href="#DejaVuSerif-Italic-76" transform="translate(203.261719 0.09375)"/>
     <use xlink:href="#DejaVuSerif-22c5" transform="translate(278.720703 0.09375)"/>
     <use xlink:href="#DejaVuSerif-Italic-3ba" transform="translate(331.914062 0.09375)"/>
    </g>
   </g>
   <g id="text_22">
    <g id="patch_13">
     <path d="M 662.470156 332.580469 
L 747.030156 332.580469 
Q 751.230156 332.580469 751.230156 328.380469 
L 751.230156 302.060469 
Q 751.230156 297.860469 747.030156 297.860469 
L 662.470156 297.860469 
Q 658.270156 297.860469 658.270156 302.060469 
L 658.270156 328.380469 
Q 658.270156 332.580469 662.470156 332.580469 
z
" style="fill: #fcf3cf; opacity: 0.9; stroke: #f39c12; stroke-width: 2; stroke-linejoin: miter"/>
    </g>
    <!-- $R = \frac{1}{\kappa} = \frac{|\vec{v}|^3}{|\vec{v} \times \vec{a}|}$ -->
    <g transform="translate(662.470156 319.280469) scale(0.14 -0.14)">
     <use xlink:href="#DejaVuSerif-Italic-52" transform="translate(0 0.8425)"/>
     <use xlink:href="#DejaVuSerif-3d" transform="translate(94.257812 0.8425)"/>
     <use xlink:href="#DejaVuSerif-31" transform="translate(198.011719 44.694063) scale(0.7)"/>
     <use xlink:href="#DejaVuSerif-Italic-3ba" transform="translate(197.011719 -22.890312) scale(0.7)"/>
     <use xlink:href="#DejaVuSerif-3d" transform="translate(274.379883 0.8425)"/>
     <use xlink:href="#DejaVuSerif-7c" transform="translate(424.133789 61.19875) scale(0.7)"/>
     <use xlink:href="#STIXGeneral-Regular-20d7" transform="translate(489.322998 67.92375) scale(0.7)"/>
     <use xlink:href="#DejaVuSerif-Italic-76" transform="translate(447.717773 61.19875) scale(0.7)"/>
     <use xlink:href="#DejaVuSerif-7c" transform="translate(487.263672 61.19875) scale(0.7)"/>
     <use xlink:href="#DejaVuSerif-33" transform="translate(511.483508 86.632812) scale(0.49)"/>
     <use xlink:href="#DejaVuSerif-7c" transform="translate(377.133789 -47.477812) scale(0.7)"/>
     <use xlink:href="#STIXGeneral-Regular-20d7" transform="translate(442.322998 -40.752812) scale(0.7)"/>
     <use xlink:href="#DejaVuSerif-Italic-76" transform="translate(400.717773 -47.477812) scale(0.7)"/>
     <use xlink:href="#DejaVuSerif-d7" transform="translate(453.539062 -47.477812) scale(0.7)"/>
     <use xlink:href="#STIXGeneral-Regular-20d7" transform="translate(567.618896 -39.7575) scale(0.7)"/>
     <use xlink:href="#DejaVuSerif-Italic-61" transform="translate(525.466797 -47.477812) scale(0.7)"/>
     <use xlink:href="#DejaVuSerif-7c" transform="translate(567.200195 -47.477812) scale(0.7)"/>
     <path d="M 197.011719 19.694063 
L 197.011719 25.944063 
L 242.915039 25.944063 
L 242.915039 19.694063 
L 197.011719 19.694063 
z
"/>
     <path d="M 377.133789 19.694063 
L 377.133789 25.944063 
L 590.78418 25.944063 
L 590.78418 19.694063 
L 377.133789 19.694063 
z
"/>
    </g>
   </g>
   <g id="text_23">
    <!-- $\kappa$: curvature (1/m)    $\omega$: angular rate (rad/s)    R: radius of curvature (m) -->
    <g style="fill: #808080" transform="translate(522.300156 369.154469) scale(0.1 -0.1)">
     <defs>
      <path id="DejaVuSerif-Italic-3a" d="M 529 29 
Q 434 150 468 325 
Q 503 500 647 622 
Q 791 744 966 744 
Q 1141 744 1237 622 
Q 1334 500 1300 325 
Q 1266 150 1123 29 
Q 981 -91 803 -91 
Q 625 -91 529 29 
z
M 926 2067 
Q 828 2188 862 2363 
Q 897 2538 1040 2658 
Q 1184 2778 1359 2778 
Q 1538 2778 1633 2659 
Q 1728 2541 1693 2362 
Q 1659 2184 1518 2065 
Q 1378 1947 1200 1947 
Q 1025 1947 926 2067 
z
" transform="scale(0.015625)"/>
      <path id="DejaVuSerif-Italic-20" transform="scale(0.015625)"/>
      <path id="DejaVuSerif-Italic-63" d="M 3163 997 
Q 2938 466 2536 187 
Q 2134 -91 1584 -91 
Q 859 -91 513 388 
Q 272 722 272 1203 
Q 272 1419 319 1663 
Q 475 2459 1008 2936 
Q 1541 3413 2266 3413 
Q 2581 3413 2879 3339 
Q 3178 3266 3463 3116 
L 3300 2266 
L 2966 2266 
Q 2966 2309 2966 2347 
Q 2966 2722 2803 2903 
Q 2622 3103 2213 3103 
Q 1747 3103 1439 2742 
Q 1131 2381 991 1663 
Q 928 1334 928 1078 
Q 928 778 1016 581 
Q 1181 219 1650 219 
Q 2022 219 2281 412 
Q 2541 606 2700 997 
L 3163 997 
z
" transform="scale(0.015625)"/>
      <path id="DejaVuSerif-Italic-75" d="M 3097 3322 
L 3672 3322 
L 3091 331 
L 3634 331 
L 3572 0 
L 2453 0 
L 2566 588 
Q 2341 256 2055 82 
Q 1769 -91 1434 -91 
Q 881 -91 681 225 
Q 559 413 559 734 
Q 559 944 613 1209 
L 956 2988 
L 438 2988 
L 503 3322 
L 1600 3322 
L 1225 1388 
Q 1163 1066 1163 853 
Q 1163 663 1213 556 
Q 1316 331 1697 331 
Q 2097 331 2364 625 
Q 2631 919 2738 1478 
L 3097 3322 
z
" transform="scale(0.015625)"/>
      <path id="DejaVuSerif-Italic-72" d="M 3375 3328 
L 3213 2497 
L 2881 2497 
Q 2891 2559 2891 2613 
Q 2891 2775 2816 2866 
Q 2719 2988 2484 2988 
Q 2059 2988 1775 2694 
Q 1491 2400 1384 1850 
L 1025 0 
L 450 0 
L 1031 2994 
L 481 2994 
L 544 3322 
L 1669 3322 
L 1556 2731 
Q 1791 3078 2089 3245 
Q 2388 3413 2769 3413 
Q 2909 3413 3059 3391 
Q 3209 3369 3375 3328 
z
" transform="scale(0.015625)"/>
      <path id="DejaVuSerif-Italic-74" d="M 856 2988 
L 350 2988 
L 416 3322 
L 922 3322 
L 1122 4353 
L 1700 4353 
L 1500 3322 
L 2581 3322 
L 2516 2988 
L 1434 2988 
L 1025 878 
Q 978 631 978 488 
Q 978 388 1000 338 
Q 1059 219 1278 219 
Q 1503 219 1633 351 
Q 1763 484 1825 781 
L 2259 781 
Q 2147 328 1884 118 
Q 1622 -91 1169 -91 
Q 672 -91 506 131 
Q 406 266 406 516 
Q 406 675 447 878 
L 856 2988 
z
" transform="scale(0.015625)"/>
      <path id="DejaVuSerif-Italic-65" d="M 938 1275 
Q 925 1156 925 1050 
Q 925 756 1031 563 
Q 1216 219 1709 219 
Q 2072 219 2250 328 
Q 2569 525 2644 778 
L 3066 778 
Q 2941 381 2475 103 
Q 2150 -91 1506 -91 
Q 863 -91 516 388 
Q 272 722 272 1206 
Q 272 1419 319 1659 
Q 472 2450 1000 2931 
Q 1528 3413 2278 3413 
Q 3500 3413 3500 2547 
Q 3500 1913 2859 1603 
Q 2206 1288 938 1275 
z
M 2541 1975 
Q 2891 2181 2891 2569 
Q 2891 3103 2181 3103 
Q 1763 3103 1472 2784 
Q 1181 2466 1003 1606 
Q 2006 1653 2541 1975 
z
" transform="scale(0.015625)"/>
      <path id="DejaVuSerif-Italic-28" d="M 1472 -997 
Q 778 -656 534 83 
Q 291 822 506 1931 
Q 722 3044 1253 3783 
Q 1784 4522 2609 4863 
L 2550 4556 
Q 2006 4225 1679 3623 
Q 1353 3022 1141 1931 
Q 928 844 1020 242 
Q 1113 -359 1531 -691 
L 1472 -997 
z
" transform="scale(0.015625)"/>
      <path id="DejaVuSerif-Italic-31" d="M 447 0 
L 513 331 
L 1325 331 
L 2078 4213 
L 1019 3603 
L 1100 4013 
L 2381 4750 
L 2813 4750 
L 1953 331 
L 2766 331 
L 2700 0 
L 447 0 
z
" transform="scale(0.015625)"/>
      <path id="DejaVuSerif-Italic-2f" d="M 2172 4666 
L 2672 4666 
L -9 -594 
L -509 -594 
L 2172 4666 
z
" transform="scale(0.015625)"/>
      <path id="DejaVuSerif-Italic-6d" d="M 3503 2675 
Q 3741 3041 4034 3227 
Q 4328 3413 4672 3413 
Q 5194 3413 5388 3088 
Q 5503 2894 5503 2578 
Q 5503 2372 5453 2113 
L 5106 331 
L 5625 331 
L 5563 0 
L 4469 0 
L 4866 2047 
Q 4913 2291 4913 2466 
Q 4913 2659 4856 2772 
Q 4750 2988 4403 2988 
Q 4019 2988 3761 2697 
Q 3503 2406 3394 1850 
L 3034 0 
L 2459 0 
L 2863 2069 
Q 2906 2303 2906 2472 
Q 2906 2666 2850 2775 
Q 2741 2988 2394 2988 
Q 2009 2988 1751 2697 
Q 1494 2406 1384 1850 
L 1025 0 
L 450 0 
L 1031 2994 
L 481 2994 
L 544 3322 
L 1669 3322 
L 1556 2731 
Q 1778 3063 2059 3238 
Q 2341 3413 2653 3413 
Q 3041 3413 3262 3220 
Q 3484 3028 3503 2675 
z
" transform="scale(0.015625)"/>
      <path id="DejaVuSerif-Italic-29" d="M -113 -997 
L -53 -691 
Q 491 -359 819 242 
Q 1147 844 1359 1931 
Q 1572 3022 1478 3623 
Q 1384 4225 966 4556 
L 1025 4863 
Q 1722 4522 1965 3783 
Q 2209 3044 1994 1931 
Q 1778 822 1247 83 
Q 716 -656 -113 -997 
z
" transform="scale(0.015625)"/>
      <path id="DejaVuSerif-Italic-6e" d="M 450 0 
L 1031 2988 
L 481 2988 
L 544 3322 
L 1669 3322 
L 1556 2731 
Q 1781 3069 2068 3241 
Q 2356 3413 2694 3413 
Q 3244 3413 3444 3097 
Q 3563 2906 3563 2588 
Q 3563 2378 3509 2113 
L 3163 331 
L 3675 331 
L 3613 0 
L 2522 0 
L 2897 1931 
Q 2959 2253 2959 2469 
Q 2959 2659 2909 2769 
Q 2803 2994 2425 2994 
Q 2025 2994 1759 2701 
Q 1494 2409 1384 1850 
L 1025 0 
L 450 0 
z
" transform="scale(0.015625)"/>
      <path id="DejaVuSerif-Italic-67" d="M 3822 3322 
L 3188 72 
Q 3044 -672 2581 -1031 
Q 2078 -1422 1381 -1422 
Q 1053 -1422 765 -1362 
Q 478 -1303 225 -1184 
L 363 -488 
L 663 -488 
Q 653 -813 834 -963 
Q 1016 -1113 1406 -1113 
Q 1913 -1113 2203 -825 
Q 2494 -544 2613 72 
L 2700 519 
Q 2472 206 2181 57 
Q 1891 -91 1525 -91 
Q 975 -91 697 281 
Q 522 516 503 841 
Q 491 1031 534 1256 
Q 750 2359 1516 2928 
Q 2169 3409 2931 3413 
Q 3631 3416 3822 3322 
z
M 3184 2988 
Q 3181 3094 2844 3094 
Q 2234 3094 1775 2625 
Q 1316 2153 1147 1297 
Q 1100 1044 1113 853 
Q 1125 659 1203 528 
Q 1356 269 1756 269 
Q 2194 269 2484 583 
Q 2775 897 2891 1497 
L 2953 1825 
L 3184 2988 
z
" transform="scale(0.015625)"/>
      <path id="DejaVuSerif-Italic-6c" d="M 903 331 
L 1447 331 
L 1384 0 
L 266 0 
L 1147 4531 
L 594 4531 
L 656 4863 
L 1784 4863 
L 903 331 
z
" transform="scale(0.015625)"/>
      <path id="DejaVuSerif-Italic-64" d="M 3841 4863 
L 2897 0 
L 2322 0 
L 2422 519 
Q 2191 206 1902 57 
Q 1613 -91 1228 -91 
Q 616 -91 322 394 
Q 125 716 125 1166 
Q 125 1397 178 1663 
Q 331 2444 812 2928 
Q 1294 3413 1909 3413 
Q 2294 3413 2525 3264 
Q 2756 3116 2866 2803 
L 3200 4531 
L 2656 4531 
L 2722 4863 
L 3841 4863 
z
M 2613 1497 
L 2675 1825 
Q 2722 2069 2722 2266 
Q 2722 2550 2622 2738 
Q 2456 3053 2019 3053 
Q 1575 3053 1279 2703 
Q 984 2353 850 1663 
Q 788 1347 788 1103 
Q 788 813 875 622 
Q 1031 269 1475 269 
Q 1913 269 2203 583 
Q 2494 897 2613 1497 
z
" transform="scale(0.015625)"/>
      <path id="DejaVuSerif-Italic-73" d="M 222 959 
L 553 959 
Q 541 869 541 788 
Q 541 219 1313 219 
Q 2088 219 2200 788 
Q 2209 844 2209 944 
Q 2209 1041 2103 1158 
Q 1997 1275 1550 1428 
L 1159 1569 
Q 759 1706 629 1882 
Q 500 2059 500 2263 
Q 500 2344 516 2438 
Q 606 2894 990 3153 
Q 1375 3413 1931 3413 
Q 2484 3413 3066 3144 
L 2925 2419 
L 2594 2419 
Q 2606 2491 2606 2553 
Q 2606 2781 2448 2942 
Q 2291 3103 1925 3103 
Q 1191 3103 1091 2591 
Q 1078 2538 1078 2444 
Q 1078 2347 1179 2237 
Q 1281 2128 1678 1997 
L 2106 1856 
Q 2550 1709 2716 1488 
Q 2831 1331 2831 1178 
Q 2831 522 2306 181 
Q 1894 -91 1262 -91 
Q 631 -91 72 184 
L 222 959 
z
" transform="scale(0.015625)"/>
      <path id="DejaVuSerif-Italic-69" d="M 1009 4353 
Q 1038 4497 1163 4603 
Q 1288 4709 1434 4709 
Q 1578 4709 1663 4603 
Q 1728 4522 1728 4422 
Q 1728 4388 1719 4353 
Q 1691 4206 1567 4103 
Q 1444 4000 1297 4000 
Q 1150 4000 1066 4103 
Q 1003 4181 1003 4281 
Q 1003 4316 1009 4353 
z
M 963 331 
L 1506 331 
L 1444 0 
L 325 0 
L 903 2988 
L 353 2988 
L 419 3322 
L 1544 3322 
L 963 331 
z
" transform="scale(0.015625)"/>
      <path id="DejaVuSerif-Italic-6f" d="M 1644 219 
Q 2106 219 2414 584 
Q 2722 950 2859 1663 
Q 2922 1988 2922 2241 
Q 2922 2541 2834 2738 
Q 2669 3103 2206 3103 
Q 1744 3103 1436 2739 
Q 1128 2375 991 1663 
Q 928 1338 928 1088 
Q 928 784 1019 584 
Q 1184 219 1644 219 
z
M 1584 -91 
Q 859 -91 513 388 
Q 272 722 272 1203 
Q 272 1419 319 1663 
Q 472 2456 1005 2934 
Q 1538 3413 2266 3413 
Q 2994 3413 3341 2934 
Q 3578 2603 3578 2122 
Q 3578 1906 3531 1663 
Q 3378 869 2845 389 
Q 2313 -91 1584 -91 
z
" transform="scale(0.015625)"/>
      <path id="DejaVuSerif-Italic-66" d="M 3191 4078 
L 2888 4078 
Q 2900 4144 2900 4203 
Q 2900 4347 2825 4434 
Q 2719 4556 2472 4556 
Q 2150 4556 1984 4379 
Q 1819 4203 1731 3750 
L 1647 3322 
L 2575 3322 
L 2509 2988 
L 1581 2988 
L 963 -206 
Q 853 -763 509 -1047 
Q 166 -1331 -394 -1331 
L -356 -1025 
Q -28 -1025 131 -850 
Q 297 -663 388 -206 
L 1006 2988 
L 456 2988 
L 522 3322 
L 1072 3322 
L 1153 3738 
Q 1263 4297 1606 4578 
Q 1950 4863 2509 4863 
Q 2719 4863 2920 4825 
Q 3122 4788 3316 4709 
L 3191 4078 
z
" transform="scale(0.015625)"/>
     </defs>
     <use xlink:href="#DejaVuSerif-Italic-3ba" transform="translate(0 0.015625)"/>
     <use xlink:href="#DejaVuSerif-Italic-3a" transform="translate(65.576172 0.015625)"/>
     <use xlink:href="#DejaVuSerif-Italic-20" transform="translate(99.267578 0.015625)"/>
     <use xlink:href="#DejaVuSerif-Italic-63" transform="translate(131.054688 0.015625)"/>
     <use xlink:href="#DejaVuSerif-Italic-75" transform="translate(187.060547 0.015625)"/>
     <use xlink:href="#DejaVuSerif-Italic-72" transform="translate(251.464844 0.015625)"/>
     <use xlink:href="#DejaVuSerif-Italic-76" transform="translate(299.267578 0.015625)"/>
     <use xlink:href="#DejaVuSerif-Italic-61" transform="translate(355.761719 0.015625)"/>
     <use xlink:href="#DejaVuSerif-Italic-74" transform="translate(415.380859 0.015625)"/>
     <use xlink:href="#DejaVuSerif-Italic-75" transform="translate(455.566406 0.015625)"/>
     <use xlink:href="#DejaVuSerif-Italic-72" transform="translate(519.970703 0.015625)"/>
     <use xlink:href="#DejaVuSerif-Italic-65" transform="translate(567.773438 0.015625)"/>
     <use xlink:href="#DejaVuSerif-Italic-20" transform="translate(626.953125 0.015625)"/>
     <use xlink:href="#DejaVuSerif-Italic-28" transform="translate(658.740234 0.015625)"/>
     <use xlink:href="#DejaVuSerif-Italic-31" transform="translate(697.753906 0.015625)"/>
     <use xlink:href="#DejaVuSerif-Italic-2f" transform="translate(761.376953 0.015625)"/>
     <use xlink:href="#DejaVuSerif-Italic-6d" transform="translate(795.068359 0.015625)"/>
     <use xlink:href="#DejaVuSerif-Italic-29" transform="translate(889.892578 0.015625)"/>
     <use xlink:href="#DejaVuSerif-Italic-20" transform="translate(928.90625 0.015625)"/>
     <use xlink:href="#DejaVuSerif-Italic-20" transform="translate(960.693359 0.015625)"/>
     <use xlink:href="#DejaVuSerif-Italic-20" transform="translate(992.480469 0.015625)"/>
     <use xlink:href="#DejaVuSerif-Italic-20" transform="translate(1024.267578 0.015625)"/>
     <use xlink:href="#DejaVuSerif-Italic-3c9" transform="translate(1056.054688 0.015625)"/>
     <use xlink:href="#DejaVuSerif-Italic-3a" transform="translate(1137.597656 0.015625)"/>
     <use xlink:href="#DejaVuSerif-Italic-20" transform="translate(1171.289062 0.015625)"/>
     <use xlink:href="#DejaVuSerif-Italic-61" transform="translate(1203.076172 0.015625)"/>
     <use xlink:href="#DejaVuSerif-Italic-6e" transform="translate(1262.695312 0.015625)"/>
     <use xlink:href="#DejaVuSerif-Italic-67" transform="translate(1327.099609 0.015625)"/>
     <use xlink:href="#DejaVuSerif-Italic-75" transform="translate(1391.113281 0.015625)"/>
     <use xlink:href="#DejaVuSerif-Italic-6c" transform="translate(1455.517578 0.015625)"/>
     <use xlink:href="#DejaVuSerif-Italic-61" transform="translate(1487.5 0.015625)"/>
     <use xlink:href="#DejaVuSerif-Italic-72" transform="translate(1547.119141 0.015625)"/>
     <use xlink:href="#DejaVuSerif-Italic-20" transform="translate(1594.921875 0.015625)"/>
     <use xlink:href="#DejaVuSerif-Italic-72" transform="translate(1626.708984 0.015625)"/>
     <use xlink:href="#DejaVuSerif-Italic-61" transform="translate(1674.511719 0.015625)"/>
     <use xlink:href="#DejaVuSerif-Italic-74" transform="translate(1734.130859 0.015625)"/>
     <use xlink:href="#DejaVuSerif-Italic-65" transform="translate(1774.316406 0.015625)"/>
     <use xlink:href="#DejaVuSerif-Italic-20" transform="translate(1833.496094 0.015625)"/>
     <use xlink:href="#DejaVuSerif-Italic-28" transform="translate(1865.283203 0.015625)"/>
     <use xlink:href="#DejaVuSerif-Italic-72" transform="translate(1904.296875 0.015625)"/>
     <use xlink:href="#DejaVuSerif-Italic-61" transform="translate(1952.099609 0.015625)"/>
     <use xlink:href="#DejaVuSerif-Italic-64" transform="translate(2011.71875 0.015625)"/>
     <use xlink:href="#DejaVuSerif-Italic-2f" transform="translate(2075.732422 0.015625)"/>
     <use xlink:href="#DejaVuSerif-Italic-73" transform="translate(2109.423828 0.015625)"/>
     <use xlink:href="#DejaVuSerif-Italic-29" transform="translate(2160.742188 0.015625)"/>
     <use xlink:href="#DejaVuSerif-Italic-20" transform="translate(2199.755859 0.015625)"/>
     <use xlink:href="#DejaVuSerif-Italic-20" transform="translate(2231.542969 0.015625)"/>
     <use xlink:href="#DejaVuSerif-Italic-20" transform="translate(2263.330078 0.015625)"/>
     <use xlink:href="#DejaVuSerif-Italic-20" transform="translate(2295.117188 0.015625)"/>
     <use xlink:href="#DejaVuSerif-Italic-52" transform="translate(2326.904297 0.015625)"/>
     <use xlink:href="#DejaVuSerif-Italic-3a" transform="translate(2402.197266 0.015625)"/>
     <use xlink:href="#DejaVuSerif-Italic-20" transform="translate(2435.888672 0.015625)"/>
     <use xlink:href="#DejaVuSerif-Italic-72" transform="translate(2467.675781 0.015625)"/>
     <use xlink:href="#DejaVuSerif-Italic-61" transform="translate(2515.478516 0.015625)"/>
     <use xlink:href="#DejaVuSerif-Italic-64" transform="translate(2575.097656 0.015625)"/>
     <use xlink:href="#DejaVuSerif-Italic-69" transform="translate(2639.111328 0.015625)"/>
     <use xlink:href="#DejaVuSerif-Italic-75" transform="translate(2671.09375 0.015625)"/>
     <use xlink:href="#DejaVuSerif-Italic-73" transform="translate(2735.498047 0.015625)"/>
     <use xlink:href="#DejaVuSerif-Italic-20" transform="translate(2786.816406 0.015625)"/>
     <use xlink:href="#DejaVuSerif-Italic-6f" transform="translate(2818.603516 0.015625)"/>
     <use xlink:href="#DejaVuSerif-Italic-66" transform="translate(2878.808594 0.015625)"/>
     <use xlink:href="#DejaVuSerif-Italic-20" transform="translate(2915.820312 0.015625)"/>
     <use xlink:href="#DejaVuSerif-Italic-63" transform="translate(2947.607422 0.015625)"/>
     <use xlink:href="#DejaVuSerif-Italic-75" transform="translate(3003.613281 0.015625)"/>
     <use xlink:href="#DejaVuSerif-Italic-72" transform="translate(3068.017578 0.015625)"/>
     <use xlink:href="#DejaVuSerif-Italic-76" transform="translate(3115.820312 0.015625)"/>
     <use xlink:href="#DejaVuSerif-Italic-61" transform="translate(3172.314453 0.015625)"/>
     <use xlink:href="#DejaVuSerif-Italic-74" transform="translate(3231.933594 0.015625)"/>
     <use xlink:href="#DejaVuSerif-Italic-75" transform="translate(3272.119141 0.015625)"/>
     <use xlink:href="#DejaVuSerif-Italic-72" transform="translate(3336.523438 0.015625)"/>
     <use xlink:href="#DejaVuSerif-Italic-65" transform="translate(3384.326172 0.015625)"/>
     <use xlink:href="#DejaVuSerif-Italic-20" transform="translate(3443.505859 0.015625)"/>
     <use xlink:href="#DejaVuSerif-Italic-28" transform="translate(3475.292969 0.015625)"/>
     <use xlink:href="#DejaVuSerif-Italic-6d" transform="translate(3514.306641 0.015625)"/>
     <use xlink:href="#DejaVuSerif-Italic-29" transform="translate(3609.130859 0.015625)"/>
    </g>
   </g>
  </g>
 </g>
 <defs>
  <clipPath id="p4c9467266b">
   <rect x="46.030156" y="23.077969" width="359.56" height="359.56"/>
  </clipPath>
 </defs>
</svg>
