<?xml version="1.0" encoding="utf-8" standalone="no"?>
<!DOCTYPE svg PUBLIC "-//W3C//DTD SVG 1.1//EN"
  "http://www.w3.org/Graphics/SVG/1.1/DTD/svg11.dtd">
<svg xmlns:xlink="http://www.w3.org/1999/xlink" width="998.64pt" height="422.517656pt" viewBox="0 0 998.64 422.517656" xmlns="http://www.w3.org/2000/svg" version="1.1">
 <metadata>
  <rdf:RDF xmlns:dc="http://purl.org/dc/elements/1.1/" xmlns:cc="http://creativecommons.org/ns#" xmlns:rdf="http://www.w3.org/1999/02/22-rdf-syntax-ns#">
   <cc:Work>
    <dc:type rdf:resource="http://purl.org/dc/dcmitype/StillImage"/>
    <dc:date>2026-02-20T00:14:41.002777</dc:date>
    <dc:format>image/svg+xml</dc:format>
    <dc:creator>
     <cc:Agent>
      <dc:title>Matplotlib v3.10.3, https://matplotlib.org/</dc:title>
     </cc:Agent>
    </dc:creator>
   </cc:Work>
  </rdf:RDF>
 </metadata>
 <defs>
  <style type="text/css">*{stroke-linejoin: round; stroke-linecap: butt}</style>
 </defs>
 <g id="figure_1">
  <g id="patch_1">
   <path d="M 0 422.517656 
L 998.64 422.517656 
L 998.64 0 
L 0 0 
z
" style="fill: #ffffff"/>
  </g>
  <g id="axes_1">
   <g id="patch_2">
    <path d="M 28.290857 267.76899 
L 126.714857 267.76899 
Q 137.260286 267.76899 137.260286 258.35099 
L 137.260286 195.564323 
Q 137.260286 186.146323 126.714857 186.146323 
L 28.290857 186.146323 
Q 17.745429 186.146323 17.745429 195.564323 
L 17.745429 258.35099 
Q 17.745429 267.76899 28.290857 267.76899 
z
" clip-path="url(#p7f7242f8f8)" style="fill: #aed6f1; stroke: #000000; stroke-width: 2; stroke-linejoin: miter"/>
   </g>
   <g id="patch_3">
    <path d="M 204.048 267.76899 
L 302.472 267.76899 
Q 313.017429 267.76899 313.017429 258.35099 
L 313.017429 195.564323 
Q 313.017429 186.146323 302.472 186.146323 
L 204.048 186.146323 
Q 193.502571 186.146323 193.502571 195.564323 
L 193.502571 258.35099 
Q 193.502571 267.76899 204.048 267.76899 
z
" clip-path="url(#p7f7242f8f8)" style="fill: #abebc6; stroke: #000000; stroke-width: 2; stroke-linejoin: miter"/>
   </g>
   <g id="patch_4">
    <path d="M 379.805143 267.76899 
L 478.229143 267.76899 
Q 488.774571 267.76899 488.774571 258.35099 
L 488.774571 195.564323 
Q 488.774571 186.146323 478.229143 186.146323 
L 379.805143 186.146323 
Q 369.259714 186.146323 369.259714 195.564323 
L 369.259714 258.35099 
Q 369.259714 267.76899 379.805143 267.76899 
z
" clip-path="url(#p7f7242f8f8)" style="fill: #f9e79f; stroke: #000000; stroke-width: 2; stroke-linejoin: miter"/>
   </g>
   <g id="patch_5">
    <path d="M 555.562286 267.76899 
L 653.986286 267.76899 
Q 664.531714 267.76899 664.531714 258.35099 
L 664.531714 195.564323 
Q 664.531714 186.146323 653.986286 186.146323 
L 555.562286 186.146323 
Q 545.016857 186.146323 545.016857 195.564323 
L 545.016857 258.35099 
Q 545.016857 267.76899 555.562286 267.76899 
z
" clip-path="url(#p7f7242f8f8)" style="fill: #f5b7b1; stroke: #000000; stroke-width: 2; stroke-linejoin: miter"/>
   </g>
   <g id="patch_6">
    <path d="M 731.319429 267.76899 
L 829.743429 267.76899 
Q 840.288857 267.76899 840.288857 258.35099 
L 840.288857 195.564323 
Q 840.288857 186.146323 829.743429 186.146323 
L 731.319429 186.146323 
Q 720.774 186.146323 720.774 195.564323 
L 720.774 258.35099 
Q 720.774 267.76899 731.319429 267.76899 
z
" clip-path="url(#p7f7242f8f8)" style="fill: #d7bde2; stroke: #000000; stroke-width: 2; stroke-linejoin: miter"/>
   </g>
   <g id="patch_7">
    <path d="M 871.925143 267.76899 
L 970.349143 267.76899 
Q 980.894571 267.76899 980.894571 258.35099 
L 980.894571 195.564323 
Q 980.894571 186.146323 970.349143 186.146323 
L 871.925143 186.146323 
Q 861.379714 186.146323 861.379714 195.564323 
L 861.379714 258.35099 
Q 861.379714 267.76899 871.925143 267.76899 
z
" clip-path="url(#p7f7242f8f8)" style="fill: #d5d8dc; stroke: #000000; stroke-width: 2; stroke-linejoin: miter"/>
   </g>
   <g id="text_1">
    <!-- Video -->
    <g transform="translate(60.22856 223.834172) scale(0.11 -0.11)">
     <defs>
      <path id="DejaVuSerif-Bold-56" d="M 5056 4666 
L 5056 4288 
L 4666 4288 
L 2906 0 
L 2163 0 
L 403 4288 
L -38 4288 
L -38 4666 
L 2150 4666 
L 2150 4288 
L 1697 4288 
L 2956 1197 
L 4225 4288 
L 3669 4288 
L 3669 4666 
L 5056 4666 
z
" transform="scale(0.015625)"/>
      <path id="DejaVuSerif-Bold-69" d="M 588 4263 
Q 588 4516 763 4689 
Q 938 4863 1191 4863 
Q 1438 4863 1611 4689 
Q 1784 4516 1784 4263 
Q 1784 4016 1611 3842 
Q 1438 3669 1191 3669 
Q 938 3669 763 3841 
Q 588 4013 588 4263 
z
M 1797 378 
L 2272 378 
L 2272 0 
L 219 0 
L 219 378 
L 691 378 
L 691 2944 
L 219 2944 
L 219 3322 
L 1797 3322 
L 1797 378 
z
" transform="scale(0.015625)"/>
      <path id="DejaVuSerif-Bold-64" d="M 2747 1497 
L 2747 1825 
Q 2747 2406 2597 2665 
Q 2447 2925 2119 2925 
Q 1775 2925 1636 2651 
Q 1497 2378 1497 1663 
Q 1497 947 1637 672 
Q 1778 397 2119 397 
Q 2447 397 2597 656 
Q 2747 916 2747 1497 
z
M 3853 378 
L 4325 378 
L 4325 0 
L 2747 0 
L 2747 422 
Q 2606 163 2367 36 
Q 2128 -91 1778 -91 
Q 1072 -91 667 378 
Q 263 847 263 1663 
Q 263 2481 667 2947 
Q 1072 3413 1778 3413 
Q 2128 3413 2367 3286 
Q 2606 3159 2747 2900 
L 2747 4488 
L 2272 4488 
L 2272 4863 
L 3853 4863 
L 3853 378 
z
" transform="scale(0.015625)"/>
      <path id="DejaVuSerif-Bold-65" d="M 2566 1875 
Q 2566 2531 2444 2795 
Q 2322 3059 2028 3059 
Q 1744 3059 1620 2800 
Q 1497 2541 1497 1931 
L 1497 1875 
L 2566 1875 
z
M 3781 1503 
L 1497 1503 
L 1497 1478 
Q 1497 834 1690 548 
Q 1884 263 2316 263 
Q 2675 263 2897 453 
Q 3119 644 3181 1006 
L 3700 1006 
Q 3566 441 3166 175 
Q 2766 -91 2047 -91 
Q 1184 -91 723 364 
Q 263 819 263 1663 
Q 263 2488 734 2950 
Q 1206 3413 2047 3413 
Q 2872 3413 3312 2927 
Q 3753 2441 3781 1503 
z
" transform="scale(0.015625)"/>
      <path id="DejaVuSerif-Bold-6f" d="M 2138 263 
Q 2488 263 2630 563 
Q 2772 863 2772 1663 
Q 2772 2463 2631 2761 
Q 2491 3059 2138 3059 
Q 1784 3059 1640 2757 
Q 1497 2456 1497 1663 
Q 1497 869 1640 566 
Q 1784 263 2138 263 
z
M 2138 -91 
Q 1259 -91 761 376 
Q 263 844 263 1663 
Q 263 2484 761 2948 
Q 1259 3413 2138 3413 
Q 3019 3413 3516 2948 
Q 4013 2484 4013 1663 
Q 4013 844 3514 376 
Q 3016 -91 2138 -91 
z
" transform="scale(0.015625)"/>
     </defs>
     <use xlink:href="#DejaVuSerif-Bold-56"/>
     <use xlink:href="#DejaVuSerif-Bold-69" transform="translate(75.837891 0)"/>
     <use xlink:href="#DejaVuSerif-Bold-64" transform="translate(113.826172 0)"/>
     <use xlink:href="#DejaVuSerif-Bold-65" transform="translate(183.748047 0)"/>
     <use xlink:href="#DejaVuSerif-Bold-6f" transform="translate(247.371094 0)"/>
    </g>
    <!-- Frame -->
    <g transform="translate(57.913404 236.151766) scale(0.11 -0.11)">
     <defs>
      <path id="DejaVuSerif-Bold-46" d="M 300 0 
L 300 378 
L 897 378 
L 897 4288 
L 300 4288 
L 300 4666 
L 4459 4666 
L 4459 3566 
L 4031 3566 
L 4031 4238 
L 2106 4238 
L 2106 2741 
L 3291 2741 
L 3291 3334 
L 3719 3334 
L 3719 1722 
L 3291 1722 
L 3291 2316 
L 2106 2316 
L 2106 378 
L 2841 378 
L 2841 0 
L 300 0 
z
" transform="scale(0.015625)"/>
      <path id="DejaVuSerif-Bold-72" d="M 3438 3359 
L 3438 2369 
L 3084 2369 
Q 3066 2634 2941 2764 
Q 2816 2894 2578 2894 
Q 2216 2894 2006 2575 
Q 1797 2256 1797 1691 
L 1797 378 
L 2400 378 
L 2400 0 
L 219 0 
L 219 378 
L 691 378 
L 691 2944 
L 184 2944 
L 184 3322 
L 1797 3322 
L 1797 2731 
Q 1959 3078 2226 3245 
Q 2494 3413 2881 3413 
Q 2978 3413 3117 3398 
Q 3256 3384 3438 3359 
z
" transform="scale(0.015625)"/>
      <path id="DejaVuSerif-Bold-61" d="M 3525 2041 
L 3525 378 
L 4000 378 
L 4000 0 
L 2419 0 
L 2419 422 
Q 2200 159 1931 34 
Q 1663 -91 1319 -91 
Q 809 -91 536 182 
Q 263 456 263 966 
Q 263 1525 655 1803 
Q 1047 2081 1838 2081 
L 2419 2081 
L 2419 2278 
Q 2419 2681 2228 2873 
Q 2038 3066 1638 3066 
Q 1306 3066 1126 2930 
Q 947 2794 872 2484 
L 519 2484 
L 519 3200 
Q 816 3306 1134 3359 
Q 1453 3413 1806 3413 
Q 2697 3413 3111 3081 
Q 3525 2750 3525 2041 
z
M 2419 1044 
L 2419 1709 
L 2003 1709 
Q 1694 1709 1528 1540 
Q 1363 1372 1363 1056 
Q 1363 741 1483 584 
Q 1603 428 1850 428 
Q 2106 428 2262 597 
Q 2419 766 2419 1044 
z
" transform="scale(0.015625)"/>
      <path id="DejaVuSerif-Bold-6d" d="M 3884 2778 
Q 4116 3109 4384 3261 
Q 4653 3413 5013 3413 
Q 5584 3413 5867 3089 
Q 6150 2766 6150 2113 
L 6150 378 
L 6625 378 
L 6625 0 
L 4647 0 
L 4647 378 
L 5044 378 
L 5044 1947 
Q 5044 2569 4948 2731 
Q 4853 2894 4594 2894 
Q 4300 2894 4137 2667 
Q 3975 2441 3975 2022 
L 3975 378 
L 4372 378 
L 4372 0 
L 2472 0 
L 2472 378 
L 2869 378 
L 2869 1947 
Q 2869 2569 2772 2731 
Q 2675 2894 2419 2894 
Q 2122 2894 1959 2667 
Q 1797 2441 1797 2022 
L 1797 378 
L 2194 378 
L 2194 0 
L 219 0 
L 219 378 
L 691 378 
L 691 2944 
L 219 2944 
L 219 3322 
L 1797 3322 
L 1797 2853 
Q 1991 3144 2241 3278 
Q 2491 3413 2834 3413 
Q 3241 3413 3494 3258 
Q 3747 3103 3884 2778 
z
" transform="scale(0.015625)"/>
     </defs>
     <use xlink:href="#DejaVuSerif-Bold-46"/>
     <use xlink:href="#DejaVuSerif-Bold-72" transform="translate(69.246094 0)"/>
     <use xlink:href="#DejaVuSerif-Bold-61" transform="translate(121.931641 0)"/>
     <use xlink:href="#DejaVuSerif-Bold-6d" transform="translate(186.726562 0)"/>
     <use xlink:href="#DejaVuSerif-Bold-65" transform="translate(292.537109 0)"/>
    </g>
   </g>
   <g id="text_2">
    <!-- Object -->
    <g transform="translate(233.244297 223.755969) scale(0.11 -0.11)">
     <defs>
      <path id="DejaVuSerif-Bold-4f" d="M 2784 288 
Q 3381 288 3672 791 
Q 3963 1294 3963 2328 
Q 3963 3366 3672 3869 
Q 3381 4372 2784 4372 
Q 2191 4372 1898 3864 
Q 1606 3356 1606 2328 
Q 1606 1303 1898 795 
Q 2191 288 2784 288 
z
M 2784 -91 
Q 1606 -91 937 553 
Q 269 1197 269 2328 
Q 269 3459 939 4104 
Q 1609 4750 2784 4750 
Q 3963 4750 4631 4106 
Q 5300 3463 5300 2328 
Q 5300 1197 4629 553 
Q 3959 -91 2784 -91 
z
" transform="scale(0.015625)"/>
      <path id="DejaVuSerif-Bold-62" d="M 622 378 
L 622 4488 
L 147 4488 
L 147 4863 
L 1728 4863 
L 1728 2900 
Q 1869 3159 2106 3286 
Q 2344 3413 2694 3413 
Q 3403 3413 3811 2945 
Q 4219 2478 4219 1663 
Q 4219 847 3811 378 
Q 3403 -91 2694 -91 
Q 2344 -91 2106 36 
Q 1869 163 1728 422 
L 1728 0 
L 147 0 
L 147 378 
L 622 378 
z
M 1728 1497 
Q 1728 916 1876 656 
Q 2025 397 2356 397 
Q 2697 397 2836 672 
Q 2975 947 2975 1663 
Q 2975 2378 2836 2651 
Q 2697 2925 2356 2925 
Q 2025 2925 1876 2665 
Q 1728 2406 1728 1825 
L 1728 1497 
z
" transform="scale(0.015625)"/>
      <path id="DejaVuSerif-Bold-6a" d="M 556 4263 
Q 556 4516 729 4689 
Q 903 4863 1159 4863 
Q 1403 4863 1578 4688 
Q 1753 4513 1753 4263 
Q 1753 4016 1579 3842 
Q 1406 3669 1159 3669 
Q 906 3669 731 3841 
Q 556 4013 556 4263 
z
M 684 2944 
L 213 2944 
L 213 3322 
L 1791 3322 
L 1791 -391 
Q 1791 -900 1430 -1161 
Q 1069 -1422 366 -1422 
Q 178 -1422 -34 -1390 
Q -247 -1359 -475 -1300 
L -475 -594 
L -122 -597 
Q -116 -847 -23 -958 
Q 69 -1069 275 -1069 
Q 503 -1069 593 -922 
Q 684 -775 684 -391 
L 684 2944 
z
" transform="scale(0.015625)"/>
      <path id="DejaVuSerif-Bold-63" d="M 3609 1038 
Q 3491 469 3123 189 
Q 2756 -91 2125 -91 
Q 1238 -91 750 368 
Q 263 828 263 1663 
Q 263 2488 744 2950 
Q 1225 3413 2081 3413 
Q 2428 3413 2781 3347 
Q 3134 3281 3500 3150 
L 3500 2228 
L 3150 2228 
Q 3100 2650 2903 2854 
Q 2706 3059 2350 3059 
Q 1888 3059 1692 2746 
Q 1497 2434 1497 1663 
Q 1497 909 1687 586 
Q 1878 263 2309 263 
Q 2644 263 2845 463 
Q 3047 663 3091 1038 
L 3609 1038 
z
" transform="scale(0.015625)"/>
      <path id="DejaVuSerif-Bold-74" d="M 634 2944 
L 153 2944 
L 153 3322 
L 634 3322 
L 634 4353 
L 1741 4353 
L 1741 3322 
L 2663 3322 
L 2663 2944 
L 1741 2944 
L 1741 909 
Q 1741 475 1809 369 
Q 1878 263 2059 263 
Q 2259 263 2356 397 
Q 2453 531 2459 813 
L 2925 813 
Q 2897 313 2651 111 
Q 2406 -91 1806 -91 
Q 1122 -91 878 123 
Q 634 338 634 909 
L 634 2944 
z
" transform="scale(0.015625)"/>
     </defs>
     <use xlink:href="#DejaVuSerif-Bold-4f"/>
     <use xlink:href="#DejaVuSerif-Bold-62" transform="translate(87.109375 0)"/>
     <use xlink:href="#DejaVuSerif-Bold-6a" transform="translate(157.03125 0)"/>
     <use xlink:href="#DejaVuSerif-Bold-65" transform="translate(193.212891 0)"/>
     <use xlink:href="#DejaVuSerif-Bold-63" transform="translate(256.835938 0)"/>
     <use xlink:href="#DejaVuSerif-Bold-74" transform="translate(317.724609 0)"/>
    </g>
    <!-- Detection -->
    <g transform="translate(223.305625 236.229969) scale(0.11 -0.11)">
     <defs>
      <path id="DejaVuSerif-Bold-44" d="M 2100 378 
L 2534 378 
Q 3266 378 3605 847 
Q 3944 1316 3944 2338 
Q 3944 3353 3606 3820 
Q 3269 4288 2534 4288 
L 2100 4288 
L 2100 378 
z
M 300 0 
L 300 378 
L 897 378 
L 897 4288 
L 300 4288 
L 300 4666 
L 2694 4666 
Q 3950 4666 4615 4066 
Q 5281 3466 5281 2338 
Q 5281 1203 4614 601 
Q 3947 0 2694 0 
L 300 0 
z
" transform="scale(0.015625)"/>
      <path id="DejaVuSerif-Bold-6e" d="M 219 0 
L 219 378 
L 691 378 
L 691 2944 
L 219 2944 
L 219 3322 
L 1797 3322 
L 1797 2853 
Q 1997 3150 2253 3281 
Q 2509 3413 2900 3413 
Q 3459 3413 3745 3083 
Q 4031 2753 4031 2113 
L 4031 378 
L 4506 378 
L 4506 0 
L 2522 0 
L 2522 378 
L 2925 378 
L 2925 2144 
Q 2925 2566 2817 2730 
Q 2709 2894 2444 2894 
Q 2109 2894 1953 2648 
Q 1797 2403 1797 1869 
L 1797 378 
L 2203 378 
L 2203 0 
L 219 0 
z
" transform="scale(0.015625)"/>
     </defs>
     <use xlink:href="#DejaVuSerif-Bold-44"/>
     <use xlink:href="#DejaVuSerif-Bold-65" transform="translate(86.71875 0)"/>
     <use xlink:href="#DejaVuSerif-Bold-74" transform="translate(150.341797 0)"/>
     <use xlink:href="#DejaVuSerif-Bold-65" transform="translate(196.533203 0)"/>
     <use xlink:href="#DejaVuSerif-Bold-63" transform="translate(260.15625 0)"/>
     <use xlink:href="#DejaVuSerif-Bold-74" transform="translate(321.044922 0)"/>
     <use xlink:href="#DejaVuSerif-Bold-69" transform="translate(367.236328 0)"/>
     <use xlink:href="#DejaVuSerif-Bold-6f" transform="translate(405.224609 0)"/>
     <use xlink:href="#DejaVuSerif-Bold-6e" transform="translate(471.923828 0)"/>
    </g>
   </g>
   <g id="text_3">
    <!-- Tracking -->
    <g transform="translate(401.76808 223.755969) scale(0.11 -0.11)">
     <defs>
      <path id="DejaVuSerif-Bold-54" d="M 1159 0 
L 1159 378 
L 1778 378 
L 1778 4238 
L 500 4238 
L 500 3500 
L 72 3500 
L 72 4666 
L 4697 4666 
L 4697 3500 
L 4275 3500 
L 4275 4238 
L 2988 4238 
L 2988 378 
L 3609 378 
L 3609 0 
L 1159 0 
z
" transform="scale(0.015625)"/>
      <path id="DejaVuSerif-Bold-6b" d="M 2216 0 
L 219 0 
L 219 378 
L 691 378 
L 691 4488 
L 219 4488 
L 219 4863 
L 1797 4863 
L 1797 1741 
L 3138 2944 
L 2741 2944 
L 2741 3322 
L 4256 3322 
L 4256 2944 
L 3641 2944 
L 2784 2175 
L 4184 378 
L 4544 378 
L 4544 0 
L 2638 0 
L 2638 378 
L 3028 378 
L 2106 1563 
L 1797 1288 
L 1797 378 
L 2216 378 
L 2216 0 
z
" transform="scale(0.015625)"/>
      <path id="DejaVuSerif-Bold-67" d="M 3853 2944 
L 3853 44 
Q 3853 -656 3354 -1039 
Q 2856 -1422 1947 -1422 
Q 1616 -1422 1275 -1370 
Q 934 -1319 575 -1216 
L 575 -422 
L 928 -422 
Q 975 -750 1192 -909 
Q 1409 -1069 1813 -1069 
Q 2325 -1069 2536 -823 
Q 2747 -578 2747 44 
L 2747 422 
Q 2606 163 2367 36 
Q 2128 -91 1778 -91 
Q 1072 -91 667 378 
Q 263 847 263 1663 
Q 263 2481 667 2947 
Q 1072 3413 1778 3413 
Q 2128 3413 2367 3286 
Q 2606 3159 2747 2900 
L 2747 3322 
L 4325 3322 
L 4325 2944 
L 3853 2944 
z
M 2747 1825 
Q 2747 2406 2597 2665 
Q 2447 2925 2119 2925 
Q 1775 2925 1636 2651 
Q 1497 2378 1497 1663 
Q 1497 947 1637 672 
Q 1778 397 2119 397 
Q 2447 397 2597 656 
Q 2747 916 2747 1497 
L 2747 1825 
z
" transform="scale(0.015625)"/>
     </defs>
     <use xlink:href="#DejaVuSerif-Bold-54"/>
     <use xlink:href="#DejaVuSerif-Bold-72" transform="translate(67.164062 0)"/>
     <use xlink:href="#DejaVuSerif-Bold-61" transform="translate(119.849609 0)"/>
     <use xlink:href="#DejaVuSerif-Bold-63" transform="translate(184.644531 0)"/>
     <use xlink:href="#DejaVuSerif-Bold-6b" transform="translate(245.533203 0)"/>
     <use xlink:href="#DejaVuSerif-Bold-69" transform="translate(314.820312 0)"/>
     <use xlink:href="#DejaVuSerif-Bold-6e" transform="translate(352.808594 0)"/>
     <use xlink:href="#DejaVuSerif-Bold-67" transform="translate(425.513672 0)"/>
    </g>
    <!-- (Kalman) -->
    <g transform="translate(399.996908 236.229969) scale(0.11 -0.11)">
     <defs>
      <path id="DejaVuSerif-Bold-28" d="M 2694 -997 
Q 1641 -606 1122 122 
Q 603 850 603 1931 
Q 603 3013 1115 3731 
Q 1628 4450 2694 4863 
L 2694 4488 
Q 2200 4188 1983 3598 
Q 1766 3009 1766 1931 
Q 1766 856 1983 267 
Q 2200 -322 2694 -622 
L 2694 -997 
z
" transform="scale(0.015625)"/>
      <path id="DejaVuSerif-Bold-4b" d="M 300 0 
L 300 378 
L 897 378 
L 897 4288 
L 300 4288 
L 300 4666 
L 2700 4666 
L 2700 4288 
L 2100 4288 
L 2100 2584 
L 4078 4288 
L 3578 4288 
L 3578 4666 
L 5319 4666 
L 5319 4288 
L 4697 4288 
L 3022 2847 
L 5300 378 
L 5759 378 
L 5759 0 
L 4178 0 
L 2100 2266 
L 2100 378 
L 2700 378 
L 2700 0 
L 300 0 
z
" transform="scale(0.015625)"/>
      <path id="DejaVuSerif-Bold-6c" d="M 1797 378 
L 2272 378 
L 2272 0 
L 219 0 
L 219 378 
L 691 378 
L 691 4488 
L 219 4488 
L 219 4863 
L 1797 4863 
L 1797 378 
z
" transform="scale(0.015625)"/>
      <path id="DejaVuSerif-Bold-29" d="M 325 -997 
L 325 -622 
Q 819 -322 1036 267 
Q 1253 856 1253 1931 
Q 1253 3009 1036 3598 
Q 819 4188 325 4488 
L 325 4863 
Q 1391 4450 1905 3731 
Q 2419 3013 2419 1931 
Q 2419 850 1898 122 
Q 1378 -606 325 -997 
z
" transform="scale(0.015625)"/>
     </defs>
     <use xlink:href="#DejaVuSerif-Bold-28"/>
     <use xlink:href="#DejaVuSerif-Bold-4b" transform="translate(47.314453 0)"/>
     <use xlink:href="#DejaVuSerif-Bold-61" transform="translate(134.228516 0)"/>
     <use xlink:href="#DejaVuSerif-Bold-6c" transform="translate(199.023438 0)"/>
     <use xlink:href="#DejaVuSerif-Bold-6d" transform="translate(237.011719 0)"/>
     <use xlink:href="#DejaVuSerif-Bold-61" transform="translate(342.822266 0)"/>
     <use xlink:href="#DejaVuSerif-Bold-6e" transform="translate(407.617188 0)"/>
     <use xlink:href="#DejaVuSerif-Bold-29" transform="translate(480.322266 0)"/>
    </g>
   </g>
   <g id="text_4">
    <!-- World -->
    <g transform="translate(586.542645 223.755969) scale(0.11 -0.11)">
     <defs>
      <path id="DejaVuSerif-Bold-57" d="M 5453 0 
L 4647 0 
L 3591 3397 
L 2534 0 
L 1728 0 
L 397 4288 
L -56 4288 
L -56 4666 
L 2156 4666 
L 2156 4288 
L 1656 4288 
L 2547 1422 
L 3553 4666 
L 4441 4666 
L 5466 1369 
L 6375 4288 
L 5819 4288 
L 5819 4666 
L 7263 4666 
L 7263 4288 
L 6784 4288 
L 5453 0 
z
" transform="scale(0.015625)"/>
     </defs>
     <use xlink:href="#DejaVuSerif-Bold-57"/>
     <use xlink:href="#DejaVuSerif-Bold-6f" transform="translate(104.179688 0)"/>
     <use xlink:href="#DejaVuSerif-Bold-72" transform="translate(170.878906 0)"/>
     <use xlink:href="#DejaVuSerif-Bold-6c" transform="translate(223.564453 0)"/>
     <use xlink:href="#DejaVuSerif-Bold-64" transform="translate(261.552734 0)"/>
    </g>
    <!-- Mapping -->
    <g transform="translate(577.497723 236.073563) scale(0.11 -0.11)">
     <defs>
      <path id="DejaVuSerif-Bold-4d" d="M 269 0 
L 269 378 
L 863 378 
L 863 4288 
L 269 4288 
L 269 4666 
L 2194 4666 
L 3525 1672 
L 4863 4666 
L 6784 4666 
L 6784 4288 
L 6188 4288 
L 6188 378 
L 6784 378 
L 6784 0 
L 4384 0 
L 4384 378 
L 4978 378 
L 4978 3938 
L 3531 684 
L 2741 684 
L 1300 3938 
L 1300 378 
L 1894 378 
L 1894 0 
L 269 0 
z
" transform="scale(0.015625)"/>
      <path id="DejaVuSerif-Bold-70" d="M 1728 1825 
L 1728 1497 
Q 1728 916 1876 656 
Q 2025 397 2356 397 
Q 2697 397 2836 672 
Q 2975 947 2975 1663 
Q 2975 2378 2836 2651 
Q 2697 2925 2356 2925 
Q 2025 2925 1876 2665 
Q 1728 2406 1728 1825 
z
M 622 2944 
L 147 2944 
L 147 3322 
L 1728 3322 
L 1728 2900 
Q 1869 3159 2106 3286 
Q 2344 3413 2694 3413 
Q 3403 3413 3811 2945 
Q 4219 2478 4219 1663 
Q 4219 847 3811 378 
Q 3403 -91 2694 -91 
Q 2344 -91 2106 36 
Q 1869 163 1728 422 
L 1728 -953 
L 2241 -953 
L 2241 -1331 
L 147 -1331 
L 147 -953 
L 622 -953 
L 622 2944 
z
" transform="scale(0.015625)"/>
     </defs>
     <use xlink:href="#DejaVuSerif-Bold-4d"/>
     <use xlink:href="#DejaVuSerif-Bold-61" transform="translate(110.693359 0)"/>
     <use xlink:href="#DejaVuSerif-Bold-70" transform="translate(175.488281 0)"/>
     <use xlink:href="#DejaVuSerif-Bold-70" transform="translate(245.410156 0)"/>
     <use xlink:href="#DejaVuSerif-Bold-69" transform="translate(315.332031 0)"/>
     <use xlink:href="#DejaVuSerif-Bold-6e" transform="translate(353.320312 0)"/>
     <use xlink:href="#DejaVuSerif-Bold-67" transform="translate(426.025391 0)"/>
    </g>
   </g>
   <g id="text_5">
    <!-- Speed -->
    <g transform="translate(761.869241 223.834172) scale(0.11 -0.11)">
     <defs>
      <path id="DejaVuSerif-Bold-53" d="M 494 225 
L 494 1331 
L 891 1331 
Q 981 806 1318 547 
Q 1656 288 2253 288 
Q 2738 288 2991 472 
Q 3244 656 3244 1013 
Q 3244 1294 3072 1450 
Q 2900 1606 2363 1741 
L 1663 1913 
Q 978 2088 700 2398 
Q 422 2709 422 3284 
Q 422 3978 883 4364 
Q 1344 4750 2175 4750 
Q 2584 4750 3026 4681 
Q 3469 4613 3944 4475 
L 3944 3444 
L 3547 3444 
Q 3456 3925 3150 4148 
Q 2844 4372 2278 4372 
Q 1816 4372 1580 4211 
Q 1344 4050 1344 3731 
Q 1344 3441 1506 3289 
Q 1669 3138 2303 2975 
L 3003 2803 
Q 3653 2641 3945 2297 
Q 4238 1953 4238 1350 
Q 4238 644 3750 276 
Q 3263 -91 2316 -91 
Q 1859 -91 1409 -12 
Q 959 66 494 225 
z
" transform="scale(0.015625)"/>
     </defs>
     <use xlink:href="#DejaVuSerif-Bold-53"/>
     <use xlink:href="#DejaVuSerif-Bold-70" transform="translate(72.216797 0)"/>
     <use xlink:href="#DejaVuSerif-Bold-65" transform="translate(142.138672 0)"/>
     <use xlink:href="#DejaVuSerif-Bold-65" transform="translate(205.761719 0)"/>
     <use xlink:href="#DejaVuSerif-Bold-64" transform="translate(269.384766 0)"/>
    </g>
    <!-- Calculation -->
    <g transform="translate(745.203382 236.151766) scale(0.11 -0.11)">
     <defs>
      <path id="DejaVuSerif-Bold-43" d="M 4769 1331 
Q 4584 609 4106 259 
Q 3628 -91 2822 -91 
Q 1641 -91 955 561 
Q 269 1213 269 2328 
Q 269 3447 955 4098 
Q 1641 4750 2822 4750 
Q 3238 4750 3688 4650 
Q 4138 4550 4641 4347 
L 4641 3200 
L 4244 3200 
Q 4122 3788 3800 4080 
Q 3478 4372 2950 4372 
Q 2269 4372 1937 3870 
Q 1606 3369 1606 2328 
Q 1606 1288 1937 788 
Q 2269 288 2956 288 
Q 3422 288 3717 547 
Q 4013 806 4147 1331 
L 4769 1331 
z
" transform="scale(0.015625)"/>
      <path id="DejaVuSerif-Bold-75" d="M 3963 3322 
L 3963 378 
L 4434 378 
L 4434 0 
L 2853 0 
L 2853 469 
Q 2656 172 2400 40 
Q 2144 -91 1753 -91 
Q 1194 -91 908 239 
Q 622 569 622 1209 
L 622 2944 
L 147 2944 
L 147 3322 
L 1728 3322 
L 1728 1381 
Q 1728 763 1831 595 
Q 1934 428 2209 428 
Q 2544 428 2698 675 
Q 2853 922 2853 1459 
L 2853 2944 
L 2450 2944 
L 2450 3322 
L 3963 3322 
z
" transform="scale(0.015625)"/>
     </defs>
     <use xlink:href="#DejaVuSerif-Bold-43"/>
     <use xlink:href="#DejaVuSerif-Bold-61" transform="translate(79.589844 0)"/>
     <use xlink:href="#DejaVuSerif-Bold-6c" transform="translate(144.384766 0)"/>
     <use xlink:href="#DejaVuSerif-Bold-63" transform="translate(182.373047 0)"/>
     <use xlink:href="#DejaVuSerif-Bold-75" transform="translate(243.261719 0)"/>
     <use xlink:href="#DejaVuSerif-Bold-6c" transform="translate(315.966797 0)"/>
     <use xlink:href="#DejaVuSerif-Bold-61" transform="translate(353.955078 0)"/>
     <use xlink:href="#DejaVuSerif-Bold-74" transform="translate(418.75 0)"/>
     <use xlink:href="#DejaVuSerif-Bold-69" transform="translate(464.941406 0)"/>
     <use xlink:href="#DejaVuSerif-Bold-6f" transform="translate(502.929688 0)"/>
     <use xlink:href="#DejaVuSerif-Bold-6e" transform="translate(569.628906 0)"/>
    </g>
   </g>
   <g id="text_6">
    <!-- Output -->
    <g transform="translate(899.422455 229.992969) scale(0.11 -0.11)">
     <use xlink:href="#DejaVuSerif-Bold-4f"/>
     <use xlink:href="#DejaVuSerif-Bold-75" transform="translate(87.109375 0)"/>
     <use xlink:href="#DejaVuSerif-Bold-74" transform="translate(159.814453 0)"/>
     <use xlink:href="#DejaVuSerif-Bold-70" transform="translate(206.005859 0)"/>
     <use xlink:href="#DejaVuSerif-Bold-75" transform="translate(275.927734 0)"/>
     <use xlink:href="#DejaVuSerif-Bold-74" transform="translate(348.632812 0)"/>
    </g>
   </g>
   <g id="patch_8">
    <path d="M 142.772864 226.957656 
Q 165.378739 226.957656 184.630512 226.957656 
" style="fill: none; stroke: #1a5276; stroke-width: 3; stroke-linecap: round"/>
    <path d="M 176.630512 222.957656 
L 184.630512 226.957656 
L 176.630512 230.957656 
" style="fill: none; stroke: #1a5276; stroke-width: 3; stroke-linecap: round"/>
   </g>
   <g id="patch_9">
    <path d="M 318.530007 226.957656 
Q 341.135882 226.957656 360.387654 226.957656 
" style="fill: none; stroke: #1a5276; stroke-width: 3; stroke-linecap: round"/>
    <path d="M 352.387654 222.957656 
L 360.387654 226.957656 
L 352.387654 230.957656 
" style="fill: none; stroke: #1a5276; stroke-width: 3; stroke-linecap: round"/>
   </g>
   <g id="patch_10">
    <path d="M 494.28715 226.957656 
Q 516.893024 226.957656 536.144797 226.957656 
" style="fill: none; stroke: #1a5276; stroke-width: 3; stroke-linecap: round"/>
    <path d="M 528.144797 222.957656 
L 536.144797 226.957656 
L 528.144797 230.957656 
" style="fill: none; stroke: #1a5276; stroke-width: 3; stroke-linecap: round"/>
   </g>
   <g id="patch_11">
    <path d="M 670.044292 226.957656 
Q 692.650167 226.957656 711.90194 226.957656 
" style="fill: none; stroke: #1a5276; stroke-width: 3; stroke-linecap: round"/>
    <path d="M 703.90194 222.957656 
L 711.90194 226.957656 
L 703.90194 230.957656 
" style="fill: none; stroke: #1a5276; stroke-width: 3; stroke-linecap: round"/>
   </g>
   <g id="patch_12">
    <path d="M 845.804439 226.957656 
Q 854.349918 226.957656 859.541295 226.957656 
" style="fill: none; stroke: #1a5276; stroke-width: 3; stroke-linecap: round"/>
    <path d="M 851.541295 222.957656 
L 859.541295 226.957656 
L 851.541295 230.957656 
" style="fill: none; stroke: #1a5276; stroke-width: 3; stroke-linecap: round"/>
   </g>
   <g id="text_7">
    <g id="patch_13">
     <path d="M 164.21394 139.832812 
L 201.700346 139.832812 
Q 204.400346 139.832812 204.400346 137.132812 
L 204.400346 128.4225 
Q 204.400346 125.7225 201.700346 125.7225 
L 164.21394 125.7225 
Q 161.51394 125.7225 161.51394 128.4225 
L 161.51394 137.132812 
Q 161.51394 139.832812 164.21394 139.832812 
z
" style="fill: #ffffff; opacity: 0.9; stroke: #145a32; stroke-width: 1.5; stroke-linejoin: miter"/>
    </g>
    <!-- YOLOv8 -->
    <g style="fill: #145a32" transform="translate(164.21394 135.261094) scale(0.09 -0.09)">
     <defs>
      <path id="DejaVuSerif-59" d="M 1209 0 
L 1209 331 
L 1806 331 
L 1806 2009 
L 366 4331 
L -72 4331 
L -72 4666 
L 1663 4666 
L 1663 4331 
L 1119 4331 
L 2284 2444 
L 3450 4331 
L 2925 4331 
L 2925 4666 
L 4281 4666 
L 4281 4331 
L 3841 4331 
L 2438 2069 
L 2438 331 
L 3034 331 
L 3034 0 
L 1209 0 
z
" transform="scale(0.015625)"/>
      <path id="DejaVuSerif-4f" d="M 2625 244 
Q 3391 244 3781 770 
Q 4172 1297 4172 2328 
Q 4172 3363 3781 3889 
Q 3391 4416 2625 4416 
Q 1856 4416 1465 3889 
Q 1075 3363 1075 2328 
Q 1075 1297 1465 770 
Q 1856 244 2625 244 
z
M 2625 -91 
Q 2150 -91 1751 65 
Q 1353 222 1050 525 
Q 700 875 529 1319 
Q 359 1763 359 2328 
Q 359 2894 529 3339 
Q 700 3784 1050 4134 
Q 1356 4441 1750 4595 
Q 2144 4750 2625 4750 
Q 3641 4750 4266 4084 
Q 4891 3419 4891 2328 
Q 4891 1769 4719 1320 
Q 4547 872 4197 525 
Q 3891 219 3497 64 
Q 3103 -91 2625 -91 
z
" transform="scale(0.015625)"/>
      <path id="DejaVuSerif-4c" d="M 353 0 
L 353 331 
L 947 331 
L 947 4331 
L 353 4331 
L 353 4666 
L 2175 4666 
L 2175 4331 
L 1581 4331 
L 1581 384 
L 3713 384 
L 3713 1166 
L 4097 1166 
L 4097 0 
L 353 0 
z
" transform="scale(0.015625)"/>
      <path id="DejaVuSerif-76" d="M 1581 0 
L 359 2988 
L -19 2988 
L -19 3322 
L 1509 3322 
L 1509 2988 
L 978 2988 
L 1913 703 
L 2847 2988 
L 2350 2988 
L 2350 3322 
L 3597 3322 
L 3597 2988 
L 3225 2988 
L 2003 0 
L 1581 0 
z
" transform="scale(0.015625)"/>
      <path id="DejaVuSerif-38" d="M 2981 1275 
Q 2981 1775 2732 2051 
Q 2484 2328 2034 2328 
Q 1584 2328 1336 2051 
Q 1088 1775 1088 1275 
Q 1088 772 1336 495 
Q 1584 219 2034 219 
Q 2484 219 2732 495 
Q 2981 772 2981 1275 
z
M 2853 3541 
Q 2853 3966 2637 4203 
Q 2422 4441 2034 4441 
Q 1650 4441 1433 4203 
Q 1216 3966 1216 3541 
Q 1216 3113 1433 2875 
Q 1650 2638 2034 2638 
Q 2422 2638 2637 2875 
Q 2853 3113 2853 3541 
z
M 2516 2484 
Q 3047 2413 3344 2092 
Q 3641 1772 3641 1275 
Q 3641 619 3225 264 
Q 2809 -91 2034 -91 
Q 1263 -91 845 264 
Q 428 619 428 1275 
Q 428 1772 725 2092 
Q 1022 2413 1556 2484 
Q 1084 2569 832 2842 
Q 581 3116 581 3541 
Q 581 4103 968 4426 
Q 1356 4750 2034 4750 
Q 2713 4750 3100 4426 
Q 3488 4103 3488 3541 
Q 3488 3116 3236 2842 
Q 2984 2569 2516 2484 
z
" transform="scale(0.015625)"/>
     </defs>
     <use xlink:href="#DejaVuSerif-59"/>
     <use xlink:href="#DejaVuSerif-4f" transform="translate(66.015625 0)"/>
     <use xlink:href="#DejaVuSerif-4c" transform="translate(147.998047 0)"/>
     <use xlink:href="#DejaVuSerif-4f" transform="translate(214.404297 0)"/>
     <use xlink:href="#DejaVuSerif-76" transform="translate(296.386719 0)"/>
     <use xlink:href="#DejaVuSerif-38" transform="translate(352.880859 0)"/>
    </g>
   </g>
   <g id="text_8">
    <g id="patch_14">
     <path d="M 333.815926 139.832812 
L 383.612645 139.832812 
Q 386.312645 139.832812 386.312645 137.132812 
L 386.312645 128.4225 
Q 386.312645 125.7225 383.612645 125.7225 
L 333.815926 125.7225 
Q 331.115926 125.7225 331.115926 128.4225 
L 331.115926 137.132812 
Q 331.115926 139.832812 333.815926 139.832812 
z
" style="fill: #ffffff; opacity: 0.9; stroke: #145a32; stroke-width: 1.5; stroke-linejoin: miter"/>
    </g>
    <!-- DeepSORT -->
    <g style="fill: #145a32" transform="translate(333.815926 135.261094) scale(0.09 -0.09)">
     <defs>
      <path id="DejaVuSerif-44" d="M 1581 331 
L 2163 331 
Q 3072 331 3558 850 
Q 4044 1369 4044 2338 
Q 4044 3306 3559 3818 
Q 3075 4331 2163 4331 
L 1581 4331 
L 1581 331 
z
M 353 0 
L 353 331 
L 947 331 
L 947 4331 
L 353 4331 
L 353 4666 
L 2209 4666 
Q 3416 4666 4089 4050 
Q 4763 3434 4763 2338 
Q 4763 1238 4088 619 
Q 3413 0 2209 0 
L 353 0 
z
" transform="scale(0.015625)"/>
      <path id="DejaVuSerif-65" d="M 3469 1600 
L 991 1600 
L 991 1575 
Q 991 903 1244 561 
Q 1497 219 1991 219 
Q 2369 219 2611 417 
Q 2853 616 2950 1006 
L 3413 1006 
Q 3275 459 2904 184 
Q 2534 -91 1931 -91 
Q 1203 -91 761 389 
Q 319 869 319 1663 
Q 319 2450 753 2931 
Q 1188 3413 1894 3413 
Q 2647 3413 3050 2948 
Q 3453 2484 3469 1600 
z
M 2791 1931 
Q 2772 2513 2545 2808 
Q 2319 3103 1894 3103 
Q 1497 3103 1269 2806 
Q 1041 2509 991 1931 
L 2791 1931 
z
" transform="scale(0.015625)"/>
      <path id="DejaVuSerif-70" d="M 1313 1825 
L 1313 1497 
Q 1313 897 1542 583 
Q 1772 269 2209 269 
Q 2650 269 2876 622 
Q 3103 975 3103 1663 
Q 3103 2353 2876 2703 
Q 2650 3053 2209 3053 
Q 1772 3053 1542 2737 
Q 1313 2422 1313 1825 
z
M 738 2988 
L 184 2988 
L 184 3322 
L 1313 3322 
L 1313 2803 
Q 1481 3116 1742 3264 
Q 2003 3413 2388 3413 
Q 3000 3413 3387 2928 
Q 3775 2444 3775 1663 
Q 3775 881 3387 395 
Q 3000 -91 2388 -91 
Q 2003 -91 1742 57 
Q 1481 206 1313 519 
L 1313 -997 
L 1856 -997 
L 1856 -1331 
L 184 -1331 
L 184 -997 
L 738 -997 
L 738 2988 
z
" transform="scale(0.015625)"/>
      <path id="DejaVuSerif-53" d="M 594 225 
L 594 1288 
L 953 1284 
Q 969 753 1261 498 
Q 1553 244 2150 244 
Q 2706 244 2998 464 
Q 3291 684 3291 1106 
Q 3291 1444 3114 1625 
Q 2938 1806 2369 1978 
L 1753 2163 
Q 1084 2366 811 2669 
Q 538 2972 538 3500 
Q 538 4094 959 4422 
Q 1381 4750 2144 4750 
Q 2469 4750 2856 4679 
Q 3244 4609 3681 4475 
L 3681 3481 
L 3328 3481 
Q 3275 3975 2998 4195 
Q 2722 4416 2156 4416 
Q 1663 4416 1405 4214 
Q 1147 4013 1147 3628 
Q 1147 3294 1340 3103 
Q 1534 2913 2163 2725 
L 2741 2553 
Q 3375 2363 3645 2067 
Q 3916 1772 3916 1275 
Q 3916 597 3481 253 
Q 3047 -91 2188 -91 
Q 1803 -91 1404 -12 
Q 1006 66 594 225 
z
" transform="scale(0.015625)"/>
      <path id="DejaVuSerif-52" d="M 3066 2316 
Q 3284 2256 3442 2114 
Q 3600 1972 3725 1716 
L 4403 331 
L 4972 331 
L 4972 0 
L 3872 0 
L 3144 1484 
Q 2934 1916 2759 2042 
Q 2584 2169 2278 2169 
L 1581 2169 
L 1581 331 
L 2241 331 
L 2241 0 
L 353 0 
L 353 331 
L 947 331 
L 947 4331 
L 353 4331 
L 353 4666 
L 2719 4666 
Q 3400 4666 3770 4341 
Q 4141 4016 4141 3419 
Q 4141 2938 3870 2661 
Q 3600 2384 3066 2316 
z
M 1581 2503 
L 2503 2503 
Q 2975 2503 3200 2726 
Q 3425 2950 3425 3419 
Q 3425 3888 3200 4109 
Q 2975 4331 2503 4331 
L 1581 4331 
L 1581 2503 
z
" transform="scale(0.015625)"/>
      <path id="DejaVuSerif-54" d="M 1222 0 
L 1222 331 
L 1819 331 
L 1819 4294 
L 447 4294 
L 447 3566 
L 63 3566 
L 63 4666 
L 4206 4666 
L 4206 3566 
L 3822 3566 
L 3822 4294 
L 2450 4294 
L 2450 331 
L 3047 331 
L 3047 0 
L 1222 0 
z
" transform="scale(0.015625)"/>
     </defs>
     <use xlink:href="#DejaVuSerif-44"/>
     <use xlink:href="#DejaVuSerif-65" transform="translate(80.175781 0)"/>
     <use xlink:href="#DejaVuSerif-65" transform="translate(139.355469 0)"/>
     <use xlink:href="#DejaVuSerif-70" transform="translate(198.535156 0)"/>
     <use xlink:href="#DejaVuSerif-53" transform="translate(262.548828 0)"/>
     <use xlink:href="#DejaVuSerif-4f" transform="translate(331.054688 0)"/>
     <use xlink:href="#DejaVuSerif-52" transform="translate(413.037109 0)"/>
     <use xlink:href="#DejaVuSerif-54" transform="translate(486.580078 0)"/>
    </g>
   </g>
   <g id="text_9">
    <g id="patch_15">
     <path d="M 499.471272 139.896797 
L 569.471585 139.896797 
Q 572.171585 139.896797 572.171585 137.196797 
L 572.171585 128.358516 
Q 572.171585 125.658516 569.471585 125.658516 
L 499.471272 125.658516 
Q 496.771272 125.658516 496.771272 128.358516 
L 496.771272 137.196797 
Q 496.771272 139.896797 499.471272 139.896797 
z
" style="fill: #ffffff; opacity: 0.9; stroke: #145a32; stroke-width: 1.5; stroke-linejoin: miter"/>
    </g>
    <!-- Homography H -->
    <g style="fill: #145a32" transform="translate(499.471272 135.197109) scale(0.09 -0.09)">
     <defs>
      <path id="DejaVuSerif-48" d="M 353 0 
L 353 331 
L 947 331 
L 947 4331 
L 353 4331 
L 353 4666 
L 2175 4666 
L 2175 4331 
L 1581 4331 
L 1581 2719 
L 4000 2719 
L 4000 4331 
L 3406 4331 
L 3406 4666 
L 5228 4666 
L 5228 4331 
L 4634 4331 
L 4634 331 
L 5228 331 
L 5228 0 
L 3406 0 
L 3406 331 
L 4000 331 
L 4000 2338 
L 1581 2338 
L 1581 331 
L 2175 331 
L 2175 0 
L 353 0 
z
" transform="scale(0.015625)"/>
      <path id="DejaVuSerif-6f" d="M 1925 219 
Q 2388 219 2623 584 
Q 2859 950 2859 1663 
Q 2859 2375 2623 2739 
Q 2388 3103 1925 3103 
Q 1463 3103 1227 2739 
Q 991 2375 991 1663 
Q 991 950 1228 584 
Q 1466 219 1925 219 
z
M 1925 -91 
Q 1200 -91 759 389 
Q 319 869 319 1663 
Q 319 2456 758 2934 
Q 1197 3413 1925 3413 
Q 2653 3413 3092 2934 
Q 3531 2456 3531 1663 
Q 3531 869 3092 389 
Q 2653 -91 1925 -91 
z
" transform="scale(0.015625)"/>
      <path id="DejaVuSerif-6d" d="M 3316 2675 
Q 3481 3041 3739 3227 
Q 3997 3413 4341 3413 
Q 4863 3413 5119 3089 
Q 5375 2766 5375 2113 
L 5375 331 
L 5894 331 
L 5894 0 
L 4300 0 
L 4300 331 
L 4800 331 
L 4800 2047 
Q 4800 2556 4650 2772 
Q 4500 2988 4153 2988 
Q 3769 2988 3567 2697 
Q 3366 2406 3366 1850 
L 3366 331 
L 3866 331 
L 3866 0 
L 2291 0 
L 2291 331 
L 2791 331 
L 2791 2069 
Q 2791 2566 2641 2777 
Q 2491 2988 2144 2988 
Q 1759 2988 1557 2697 
Q 1356 2406 1356 1850 
L 1356 331 
L 1856 331 
L 1856 0 
L 263 0 
L 263 331 
L 781 331 
L 781 2994 
L 231 2994 
L 231 3322 
L 1356 3322 
L 1356 2731 
Q 1516 3063 1762 3238 
Q 2009 3413 2322 3413 
Q 2709 3413 2968 3220 
Q 3228 3028 3316 2675 
z
" transform="scale(0.015625)"/>
      <path id="DejaVuSerif-67" d="M 3359 2988 
L 3359 72 
Q 3359 -644 2965 -1033 
Q 2572 -1422 1844 -1422 
Q 1516 -1422 1216 -1362 
Q 916 -1303 641 -1184 
L 641 -488 
L 941 -488 
Q 997 -813 1206 -963 
Q 1416 -1113 1806 -1113 
Q 2313 -1113 2548 -827 
Q 2784 -541 2784 72 
L 2784 519 
Q 2616 206 2355 57 
Q 2094 -91 1709 -91 
Q 1097 -91 708 395 
Q 319 881 319 1663 
Q 319 2444 706 2928 
Q 1094 3413 1709 3413 
Q 2094 3413 2355 3264 
Q 2616 3116 2784 2803 
L 2784 3322 
L 3909 3322 
L 3909 2988 
L 3359 2988 
z
M 2784 1825 
Q 2784 2422 2554 2737 
Q 2325 3053 1888 3053 
Q 1444 3053 1217 2703 
Q 991 2353 991 1663 
Q 991 975 1217 622 
Q 1444 269 1888 269 
Q 2325 269 2554 583 
Q 2784 897 2784 1497 
L 2784 1825 
z
" transform="scale(0.015625)"/>
      <path id="DejaVuSerif-72" d="M 3059 3328 
L 3059 2497 
L 2728 2497 
Q 2713 2744 2591 2866 
Q 2469 2988 2234 2988 
Q 1809 2988 1582 2694 
Q 1356 2400 1356 1850 
L 1356 331 
L 2022 331 
L 2022 0 
L 263 0 
L 263 331 
L 781 331 
L 781 2994 
L 231 2994 
L 231 3322 
L 1356 3322 
L 1356 2731 
Q 1525 3078 1790 3245 
Q 2056 3413 2438 3413 
Q 2578 3413 2733 3391 
Q 2888 3369 3059 3328 
z
" transform="scale(0.015625)"/>
      <path id="DejaVuSerif-61" d="M 2547 1044 
L 2547 1747 
L 1806 1747 
Q 1378 1747 1168 1562 
Q 959 1378 959 997 
Q 959 650 1171 447 
Q 1384 244 1747 244 
Q 2106 244 2326 466 
Q 2547 688 2547 1044 
z
M 3122 2075 
L 3122 331 
L 3634 331 
L 3634 0 
L 2547 0 
L 2547 359 
Q 2356 128 2106 18 
Q 1856 -91 1522 -91 
Q 969 -91 644 203 
Q 319 497 319 997 
Q 319 1513 691 1797 
Q 1063 2081 1741 2081 
L 2547 2081 
L 2547 2309 
Q 2547 2688 2317 2895 
Q 2088 3103 1672 3103 
Q 1328 3103 1125 2947 
Q 922 2791 872 2484 
L 575 2484 
L 575 3156 
Q 875 3284 1158 3348 
Q 1441 3413 1709 3413 
Q 2400 3413 2761 3070 
Q 3122 2728 3122 2075 
z
" transform="scale(0.015625)"/>
      <path id="DejaVuSerif-68" d="M 263 0 
L 263 331 
L 781 331 
L 781 4531 
L 231 4531 
L 231 4863 
L 1356 4863 
L 1356 2731 
Q 1516 3069 1770 3241 
Q 2025 3413 2363 3413 
Q 2913 3413 3172 3097 
Q 3431 2781 3431 2113 
L 3431 331 
L 3944 331 
L 3944 0 
L 2356 0 
L 2356 331 
L 2853 331 
L 2853 1931 
Q 2853 2541 2704 2764 
Q 2556 2988 2175 2988 
Q 1775 2988 1565 2697 
Q 1356 2406 1356 1850 
L 1356 331 
L 1856 331 
L 1856 0 
L 263 0 
z
" transform="scale(0.015625)"/>
      <path id="DejaVuSerif-79" d="M 1381 -609 
L 1600 -56 
L 359 2988 
L -19 2988 
L -19 3322 
L 1509 3322 
L 1509 2988 
L 978 2988 
L 1913 703 
L 2847 2988 
L 2350 2988 
L 2350 3322 
L 3597 3322 
L 3597 2988 
L 3225 2988 
L 1703 -750 
Q 1547 -1138 1356 -1280 
Q 1166 -1422 819 -1422 
Q 672 -1422 517 -1397 
Q 363 -1372 206 -1325 
L 206 -691 
L 500 -691 
Q 519 -903 608 -995 
Q 697 -1088 884 -1088 
Q 1056 -1088 1161 -992 
Q 1266 -897 1381 -609 
z
" transform="scale(0.015625)"/>
      <path id="DejaVuSerif-20" transform="scale(0.015625)"/>
     </defs>
     <use xlink:href="#DejaVuSerif-48"/>
     <use xlink:href="#DejaVuSerif-6f" transform="translate(87.207031 0)"/>
     <use xlink:href="#DejaVuSerif-6d" transform="translate(147.412109 0)"/>
     <use xlink:href="#DejaVuSerif-6f" transform="translate(242.236328 0)"/>
     <use xlink:href="#DejaVuSerif-67" transform="translate(302.441406 0)"/>
     <use xlink:href="#DejaVuSerif-72" transform="translate(366.455078 0)"/>
     <use xlink:href="#DejaVuSerif-61" transform="translate(414.257812 0)"/>
     <use xlink:href="#DejaVuSerif-70" transform="translate(473.876953 0)"/>
     <use xlink:href="#DejaVuSerif-68" transform="translate(537.890625 0)"/>
     <use xlink:href="#DejaVuSerif-79" transform="translate(602.294922 0)"/>
     <use xlink:href="#DejaVuSerif-20" transform="translate(658.789062 0)"/>
     <use xlink:href="#DejaVuSerif-48" transform="translate(690.576172 0)"/>
    </g>
   </g>
   <g id="text_10">
    <g id="patch_16">
     <path d="M 698.078571 141.732656 
L 722.378571 141.732656 
Q 725.078571 141.732656 725.078571 139.032656 
L 725.078571 126.522656 
Q 725.078571 123.822656 722.378571 123.822656 
L 698.078571 123.822656 
Q 695.378571 123.822656 695.378571 126.522656 
L 695.378571 139.032656 
Q 695.378571 141.732656 698.078571 141.732656 
z
" style="fill: #ffffff; opacity: 0.9; stroke: #145a32; stroke-width: 1.5; stroke-linejoin: miter"/>
    </g>
    <!-- $v = \frac{d}{\Delta t}$ -->
    <g style="fill: #145a32" transform="translate(698.078571 135.432656) scale(0.09 -0.09)">
     <defs>
      <path id="DejaVuSerif-Italic-76" d="M 1681 0 
L 1259 0 
L 619 2988 
L 241 2988 
L 303 3322 
L 1163 3322 
L 1725 703 
Q 2084 1016 2325 1413 
Q 2825 2238 3003 2988 
L 2622 2988 
L 2688 3322 
L 3547 3322 
Q 3206 2034 2775 1313 
Q 2400 688 1681 0 
z
" transform="scale(0.015625)"/>
      <path id="DejaVuSerif-3d" d="M 678 2894 
L 4684 2894 
L 4684 2394 
L 678 2394 
L 678 2894 
z
M 678 1619 
L 4684 1619 
L 4684 1119 
L 678 1119 
L 678 1619 
z
" transform="scale(0.015625)"/>
      <path id="DejaVuSerif-Italic-64" d="M 3841 4863 
L 2897 0 
L 2322 0 
L 2422 519 
Q 2191 206 1902 57 
Q 1613 -91 1228 -91 
Q 616 -91 322 394 
Q 125 716 125 1166 
Q 125 1397 178 1663 
Q 331 2444 812 2928 
Q 1294 3413 1909 3413 
Q 2294 3413 2525 3264 
Q 2756 3116 2866 2803 
L 3200 4531 
L 2656 4531 
L 2722 4863 
L 3841 4863 
z
M 2613 1497 
L 2675 1825 
Q 2722 2069 2722 2266 
Q 2722 2550 2622 2738 
Q 2456 3053 2019 3053 
Q 1575 3053 1279 2703 
Q 984 2353 850 1663 
Q 788 1347 788 1103 
Q 788 813 875 622 
Q 1031 269 1475 269 
Q 1913 269 2203 583 
Q 2494 897 2613 1497 
z
" transform="scale(0.015625)"/>
      <path id="DejaVuSerif-394" d="M 4350 0 
L 244 0 
L 2034 4666 
L 2559 4666 
L 4350 0 
z
M 3506 331 
L 2138 3909 
L 763 331 
L 3506 331 
z
" transform="scale(0.015625)"/>
      <path id="DejaVuSerif-Italic-74" d="M 856 2988 
L 350 2988 
L 416 3322 
L 922 3322 
L 1122 4353 
L 1700 4353 
L 1500 3322 
L 2581 3322 
L 2516 2988 
L 1434 2988 
L 1025 878 
Q 978 631 978 488 
Q 978 388 1000 338 
Q 1059 219 1278 219 
Q 1503 219 1633 351 
Q 1763 484 1825 781 
L 2259 781 
Q 2147 328 1884 118 
Q 1622 -91 1169 -91 
Q 672 -91 506 131 
Q 406 266 406 516 
Q 406 675 447 878 
L 856 2988 
z
" transform="scale(0.015625)"/>
     </defs>
     <use xlink:href="#DejaVuSerif-Italic-76" transform="translate(0 0.964062)"/>
     <use xlink:href="#DejaVuSerif-3d" transform="translate(75.458984 0.964062)"/>
     <use xlink:href="#DejaVuSerif-Italic-64" transform="translate(195.212891 45.810938) scale(0.7)"/>
     <use xlink:href="#DejaVuSerif-394" transform="translate(178.212891 -37.46875) scale(0.7)"/>
     <use xlink:href="#DejaVuSerif-Italic-74" transform="translate(228.764648 -37.46875) scale(0.7)"/>
     <path d="M 178.212891 19.815625 
L 178.212891 26.065625 
L 256.894531 26.065625 
L 256.894531 19.815625 
L 178.212891 19.815625 
z
"/>
    </g>
   </g>
   <g id="text_11">
    <g id="patch_17">
     <path d="M 216.392344 333.295813 
L 290.127656 333.295813 
Q 292.827656 333.295813 292.827656 330.595813 
L 292.827656 311.551531 
Q 292.827656 308.851531 290.127656 308.851531 
L 216.392344 308.851531 
Q 213.692344 308.851531 213.692344 311.551531 
L 213.692344 330.595813 
Q 213.692344 333.295813 216.392344 333.295813 
z
" style="fill: #ffffff; opacity: 0.9; stroke: #5d6d7e; stroke-width: 1.5; stroke-linejoin: miter"/>
    </g>
    <!-- Bounding Boxes -->
    <g style="fill: #5d6d7e" transform="translate(216.392344 318.518094) scale(0.09 -0.09)">
     <defs>
      <path id="DejaVuSerif-42" d="M 1581 331 
L 2516 331 
Q 3078 331 3337 575 
Q 3597 819 3597 1350 
Q 3597 1878 3339 2120 
Q 3081 2363 2516 2363 
L 1581 2363 
L 1581 331 
z
M 1581 2694 
L 2375 2694 
Q 2888 2694 3123 2891 
Q 3359 3088 3359 3513 
Q 3359 3941 3123 4136 
Q 2888 4331 2375 4331 
L 1581 4331 
L 1581 2694 
z
M 353 0 
L 353 331 
L 947 331 
L 947 4331 
L 353 4331 
L 353 4666 
L 2656 4666 
Q 3363 4666 3720 4377 
Q 4078 4088 4078 3513 
Q 4078 3097 3829 2850 
Q 3581 2603 3103 2547 
Q 3697 2472 4005 2167 
Q 4313 1863 4313 1350 
Q 4313 656 3875 328 
Q 3438 0 2509 0 
L 353 0 
z
" transform="scale(0.015625)"/>
      <path id="DejaVuSerif-75" d="M 2266 3322 
L 3341 3322 
L 3341 331 
L 3884 331 
L 3884 0 
L 2766 0 
L 2766 588 
Q 2606 256 2353 82 
Q 2100 -91 1766 -91 
Q 1213 -91 952 223 
Q 691 538 691 1209 
L 691 2988 
L 172 2988 
L 172 3322 
L 1269 3322 
L 1269 1388 
Q 1269 781 1417 556 
Q 1566 331 1947 331 
Q 2347 331 2556 625 
Q 2766 919 2766 1478 
L 2766 2988 
L 2266 2988 
L 2266 3322 
z
" transform="scale(0.015625)"/>
      <path id="DejaVuSerif-6e" d="M 263 0 
L 263 331 
L 781 331 
L 781 2988 
L 231 2988 
L 231 3322 
L 1356 3322 
L 1356 2731 
Q 1516 3069 1770 3241 
Q 2025 3413 2363 3413 
Q 2913 3413 3172 3097 
Q 3431 2781 3431 2113 
L 3431 331 
L 3944 331 
L 3944 0 
L 2356 0 
L 2356 331 
L 2853 331 
L 2853 1931 
Q 2853 2541 2703 2767 
Q 2553 2994 2175 2994 
Q 1775 2994 1565 2701 
Q 1356 2409 1356 1850 
L 1356 331 
L 1856 331 
L 1856 0 
L 263 0 
z
" transform="scale(0.015625)"/>
      <path id="DejaVuSerif-64" d="M 3359 331 
L 3909 331 
L 3909 0 
L 2784 0 
L 2784 519 
Q 2616 206 2355 57 
Q 2094 -91 1709 -91 
Q 1097 -91 708 395 
Q 319 881 319 1663 
Q 319 2444 706 2928 
Q 1094 3413 1709 3413 
Q 2094 3413 2355 3264 
Q 2616 3116 2784 2803 
L 2784 4531 
L 2241 4531 
L 2241 4863 
L 3359 4863 
L 3359 331 
z
M 2784 1497 
L 2784 1825 
Q 2784 2422 2554 2737 
Q 2325 3053 1888 3053 
Q 1444 3053 1217 2703 
Q 991 2353 991 1663 
Q 991 975 1217 622 
Q 1444 269 1888 269 
Q 2325 269 2554 583 
Q 2784 897 2784 1497 
z
" transform="scale(0.015625)"/>
      <path id="DejaVuSerif-69" d="M 622 4353 
Q 622 4497 726 4603 
Q 831 4709 978 4709 
Q 1122 4709 1226 4603 
Q 1331 4497 1331 4353 
Q 1331 4206 1228 4103 
Q 1125 4000 978 4000 
Q 831 4000 726 4103 
Q 622 4206 622 4353 
z
M 1356 331 
L 1900 331 
L 1900 0 
L 231 0 
L 231 331 
L 781 331 
L 781 2988 
L 231 2988 
L 231 3322 
L 1356 3322 
L 1356 331 
z
" transform="scale(0.015625)"/>
      <path id="DejaVuSerif-78" d="M 1863 2028 
L 2559 2988 
L 2113 2988 
L 2113 3322 
L 3391 3322 
L 3391 2988 
L 2950 2988 
L 2059 1759 
L 3097 331 
L 3531 331 
L 3531 0 
L 1997 0 
L 1997 331 
L 2419 331 
L 1697 1325 
L 972 331 
L 1403 331 
L 1403 0 
L 141 0 
L 141 331 
L 581 331 
L 1497 1594 
L 488 2988 
L 78 2988 
L 78 3322 
L 1563 3322 
L 1563 2988 
L 1166 2988 
L 1863 2028 
z
" transform="scale(0.015625)"/>
      <path id="DejaVuSerif-73" d="M 359 184 
L 359 959 
L 691 959 
Q 703 588 923 403 
Q 1144 219 1575 219 
Q 1963 219 2166 364 
Q 2369 509 2369 788 
Q 2369 1006 2220 1140 
Q 2072 1275 1594 1428 
L 1178 1569 
Q 750 1706 558 1912 
Q 366 2119 366 2438 
Q 366 2894 700 3153 
Q 1034 3413 1625 3413 
Q 1888 3413 2178 3344 
Q 2469 3275 2778 3144 
L 2778 2419 
L 2447 2419 
Q 2434 2741 2221 2922 
Q 2009 3103 1644 3103 
Q 1281 3103 1095 2975 
Q 909 2847 909 2591 
Q 909 2381 1050 2254 
Q 1191 2128 1613 1997 
L 2069 1856 
Q 2541 1709 2748 1489 
Q 2956 1269 2956 922 
Q 2956 450 2595 179 
Q 2234 -91 1600 -91 
Q 1278 -91 972 -22 
Q 666 47 359 184 
z
" transform="scale(0.015625)"/>
     </defs>
     <use xlink:href="#DejaVuSerif-42"/>
     <use xlink:href="#DejaVuSerif-6f" transform="translate(73.486328 0)"/>
     <use xlink:href="#DejaVuSerif-75" transform="translate(133.691406 0)"/>
     <use xlink:href="#DejaVuSerif-6e" transform="translate(198.095703 0)"/>
     <use xlink:href="#DejaVuSerif-64" transform="translate(262.5 0)"/>
     <use xlink:href="#DejaVuSerif-69" transform="translate(326.513672 0)"/>
     <use xlink:href="#DejaVuSerif-6e" transform="translate(358.496094 0)"/>
     <use xlink:href="#DejaVuSerif-67" transform="translate(422.900391 0)"/>
     <use xlink:href="#DejaVuSerif-20" transform="translate(486.914062 0)"/>
     <use xlink:href="#DejaVuSerif-42" transform="translate(518.701172 0)"/>
     <use xlink:href="#DejaVuSerif-6f" transform="translate(592.1875 0)"/>
     <use xlink:href="#DejaVuSerif-78" transform="translate(652.392578 0)"/>
     <use xlink:href="#DejaVuSerif-65" transform="translate(708.789062 0)"/>
     <use xlink:href="#DejaVuSerif-73" transform="translate(767.96875 0)"/>
    </g>
    <!-- + Confidences -->
    <g style="fill: #5d6d7e" transform="translate(219.968437 328.724094) scale(0.09 -0.09)">
     <defs>
      <path id="DejaVuSerif-2b" d="M 2931 4013 
L 2931 2259 
L 4684 2259 
L 4684 1753 
L 2931 1753 
L 2931 0 
L 2431 0 
L 2431 1753 
L 678 1753 
L 678 2259 
L 2431 2259 
L 2431 4013 
L 2931 4013 
z
" transform="scale(0.015625)"/>
      <path id="DejaVuSerif-43" d="M 4513 1234 
Q 4306 581 3820 245 
Q 3334 -91 2591 -91 
Q 2134 -91 1743 65 
Q 1353 222 1050 525 
Q 700 875 529 1320 
Q 359 1766 359 2328 
Q 359 3416 987 4083 
Q 1616 4750 2644 4750 
Q 3025 4750 3456 4650 
Q 3888 4550 4384 4347 
L 4384 3272 
L 4031 3272 
Q 3916 3859 3567 4137 
Q 3219 4416 2591 4416 
Q 1844 4416 1459 3886 
Q 1075 3356 1075 2328 
Q 1075 1303 1459 773 
Q 1844 244 2591 244 
Q 3113 244 3450 492 
Q 3788 741 3938 1234 
L 4513 1234 
z
" transform="scale(0.015625)"/>
      <path id="DejaVuSerif-66" d="M 2753 4078 
L 2450 4078 
Q 2447 4313 2317 4434 
Q 2188 4556 1941 4556 
Q 1619 4556 1487 4379 
Q 1356 4203 1356 3750 
L 1356 3322 
L 2284 3322 
L 2284 2988 
L 1356 2988 
L 1356 331 
L 2094 331 
L 2094 0 
L 231 0 
L 231 331 
L 781 331 
L 781 2988 
L 231 2988 
L 231 3322 
L 781 3322 
L 781 3738 
Q 781 4294 1070 4578 
Q 1359 4863 1919 4863 
Q 2128 4863 2337 4825 
Q 2547 4788 2753 4709 
L 2753 4078 
z
" transform="scale(0.015625)"/>
      <path id="DejaVuSerif-63" d="M 3291 997 
Q 3169 466 2822 187 
Q 2475 -91 1925 -91 
Q 1200 -91 759 389 
Q 319 869 319 1663 
Q 319 2459 759 2936 
Q 1200 3413 1925 3413 
Q 2241 3413 2553 3339 
Q 2866 3266 3181 3116 
L 3181 2266 
L 2847 2266 
Q 2781 2703 2561 2903 
Q 2341 3103 1931 3103 
Q 1466 3103 1228 2742 
Q 991 2381 991 1663 
Q 991 944 1227 581 
Q 1463 219 1931 219 
Q 2303 219 2525 412 
Q 2747 606 2828 997 
L 3291 997 
z
" transform="scale(0.015625)"/>
     </defs>
     <use xlink:href="#DejaVuSerif-2b"/>
     <use xlink:href="#DejaVuSerif-20" transform="translate(83.789062 0)"/>
     <use xlink:href="#DejaVuSerif-43" transform="translate(115.576172 0)"/>
     <use xlink:href="#DejaVuSerif-6f" transform="translate(192.089844 0)"/>
     <use xlink:href="#DejaVuSerif-6e" transform="translate(252.294922 0)"/>
     <use xlink:href="#DejaVuSerif-66" transform="translate(316.699219 0)"/>
     <use xlink:href="#DejaVuSerif-69" transform="translate(353.710938 0)"/>
     <use xlink:href="#DejaVuSerif-64" transform="translate(385.693359 0)"/>
     <use xlink:href="#DejaVuSerif-65" transform="translate(449.707031 0)"/>
     <use xlink:href="#DejaVuSerif-6e" transform="translate(508.886719 0)"/>
     <use xlink:href="#DejaVuSerif-63" transform="translate(573.291016 0)"/>
     <use xlink:href="#DejaVuSerif-65" transform="translate(629.296875 0)"/>
     <use xlink:href="#DejaVuSerif-73" transform="translate(688.476562 0)"/>
    </g>
   </g>
   <g id="text_12">
    <g id="patch_18">
     <path d="M 393.339877 333.231828 
L 464.694408 333.231828 
Q 467.394408 333.231828 467.394408 330.531828 
L 467.394408 311.743484 
Q 467.394408 309.043484 464.694408 309.043484 
L 393.339877 309.043484 
Q 390.639877 309.043484 390.639877 311.743484 
L 390.639877 330.531828 
Q 390.639877 333.231828 393.339877 333.231828 
z
" style="fill: #ffffff; opacity: 0.9; stroke: #5d6d7e; stroke-width: 1.5; stroke-linejoin: miter"/>
    </g>
    <!-- Track IDs -->
    <g style="fill: #5d6d7e" transform="translate(406.810346 318.582078) scale(0.09 -0.09)">
     <defs>
      <path id="DejaVuSerif-6b" d="M 1831 0 
L 219 0 
L 219 331 
L 738 331 
L 738 4531 
L 184 4531 
L 184 4863 
L 1313 4863 
L 1313 1697 
L 2713 2988 
L 2234 2988 
L 2234 3322 
L 3738 3322 
L 3738 2988 
L 3169 2988 
L 2181 2075 
L 3444 331 
L 3922 331 
L 3922 0 
L 2284 0 
L 2284 331 
L 2759 331 
L 1766 1697 
L 1313 1275 
L 1313 331 
L 1831 331 
L 1831 0 
z
" transform="scale(0.015625)"/>
      <path id="DejaVuSerif-49" d="M 1581 331 
L 2175 331 
L 2175 0 
L 353 0 
L 353 331 
L 947 331 
L 947 4331 
L 353 4331 
L 353 4666 
L 2175 4666 
L 2175 4331 
L 1581 4331 
L 1581 331 
z
" transform="scale(0.015625)"/>
     </defs>
     <use xlink:href="#DejaVuSerif-54"/>
     <use xlink:href="#DejaVuSerif-72" transform="translate(66.699219 0)"/>
     <use xlink:href="#DejaVuSerif-61" transform="translate(114.501953 0)"/>
     <use xlink:href="#DejaVuSerif-63" transform="translate(174.121094 0)"/>
     <use xlink:href="#DejaVuSerif-6b" transform="translate(230.126953 0)"/>
     <use xlink:href="#DejaVuSerif-20" transform="translate(290.722656 0)"/>
     <use xlink:href="#DejaVuSerif-49" transform="translate(322.509766 0)"/>
     <use xlink:href="#DejaVuSerif-44" transform="translate(362.011719 0)"/>
     <use xlink:href="#DejaVuSerif-73" transform="translate(442.1875 0)"/>
    </g>
    <!-- + State Vectors -->
    <g style="fill: #5d6d7e" transform="translate(393.339877 328.660109) scale(0.09 -0.09)">
     <defs>
      <path id="DejaVuSerif-74" d="M 691 2988 
L 184 2988 
L 184 3322 
L 691 3322 
L 691 4353 
L 1269 4353 
L 1269 3322 
L 2350 3322 
L 2350 2988 
L 1269 2988 
L 1269 878 
Q 1269 456 1350 337 
Q 1431 219 1650 219 
Q 1875 219 1978 351 
Q 2081 484 2088 781 
L 2522 781 
Q 2497 328 2275 118 
Q 2053 -91 1600 -91 
Q 1103 -91 897 129 
Q 691 350 691 878 
L 691 2988 
z
" transform="scale(0.015625)"/>
      <path id="DejaVuSerif-56" d="M 1119 4331 
L 2497 750 
L 3872 4331 
L 3347 4331 
L 3347 4666 
L 4716 4666 
L 4716 4331 
L 4263 4331 
L 2597 0 
L 2059 0 
L 403 4331 
L -63 4331 
L -63 4666 
L 1638 4666 
L 1638 4331 
L 1119 4331 
z
" transform="scale(0.015625)"/>
     </defs>
     <use xlink:href="#DejaVuSerif-2b"/>
     <use xlink:href="#DejaVuSerif-20" transform="translate(83.789062 0)"/>
     <use xlink:href="#DejaVuSerif-53" transform="translate(115.576172 0)"/>
     <use xlink:href="#DejaVuSerif-74" transform="translate(184.082031 0)"/>
     <use xlink:href="#DejaVuSerif-61" transform="translate(224.267578 0)"/>
     <use xlink:href="#DejaVuSerif-74" transform="translate(283.886719 0)"/>
     <use xlink:href="#DejaVuSerif-65" transform="translate(324.072266 0)"/>
     <use xlink:href="#DejaVuSerif-20" transform="translate(383.251953 0)"/>
     <use xlink:href="#DejaVuSerif-56" transform="translate(415.039062 0)"/>
     <use xlink:href="#DejaVuSerif-65" transform="translate(478.130859 0)"/>
     <use xlink:href="#DejaVuSerif-63" transform="translate(537.310547 0)"/>
     <use xlink:href="#DejaVuSerif-74" transform="translate(593.316406 0)"/>
     <use xlink:href="#DejaVuSerif-6f" transform="translate(633.501953 0)"/>
     <use xlink:href="#DejaVuSerif-72" transform="translate(693.707031 0)"/>
     <use xlink:href="#DejaVuSerif-73" transform="translate(741.509766 0)"/>
    </g>
   </g>
   <g id="text_13">
    <g id="patch_19">
     <path d="M 572.395379 333.231828 
L 637.153192 333.231828 
Q 639.853192 333.231828 639.853192 330.531828 
L 639.853192 311.743484 
Q 639.853192 309.043484 637.153192 309.043484 
L 572.395379 309.043484 
Q 569.695379 309.043484 569.695379 311.743484 
L 569.695379 330.531828 
Q 569.695379 333.231828 572.395379 333.231828 
z
" style="fill: #ffffff; opacity: 0.9; stroke: #5d6d7e; stroke-width: 1.5; stroke-linejoin: miter"/>
    </g>
    <!-- Pixel to Meter -->
    <g style="fill: #5d6d7e" transform="translate(572.395379 318.582078) scale(0.09 -0.09)">
     <defs>
      <path id="DejaVuSerif-50" d="M 1581 2375 
L 2406 2375 
Q 2872 2375 3115 2626 
Q 3359 2878 3359 3353 
Q 3359 3831 3115 4081 
Q 2872 4331 2406 4331 
L 1581 4331 
L 1581 2375 
z
M 353 0 
L 353 331 
L 947 331 
L 947 4331 
L 353 4331 
L 353 4666 
L 2559 4666 
Q 3259 4666 3668 4311 
Q 4078 3956 4078 3353 
Q 4078 2753 3668 2397 
Q 3259 2041 2559 2041 
L 1581 2041 
L 1581 331 
L 2303 331 
L 2303 0 
L 353 0 
z
" transform="scale(0.015625)"/>
      <path id="DejaVuSerif-6c" d="M 1313 331 
L 1856 331 
L 1856 0 
L 184 0 
L 184 331 
L 738 331 
L 738 4531 
L 184 4531 
L 184 4863 
L 1313 4863 
L 1313 331 
z
" transform="scale(0.015625)"/>
      <path id="DejaVuSerif-4d" d="M 353 0 
L 353 331 
L 947 331 
L 947 4331 
L 319 4331 
L 319 4666 
L 1678 4666 
L 3316 1344 
L 4953 4666 
L 6228 4666 
L 6228 4331 
L 5606 4331 
L 5606 331 
L 6203 331 
L 6203 0 
L 4378 0 
L 4378 331 
L 4972 331 
L 4972 3938 
L 3372 684 
L 2931 684 
L 1331 3938 
L 1331 331 
L 1925 331 
L 1925 0 
L 353 0 
z
" transform="scale(0.015625)"/>
     </defs>
     <use xlink:href="#DejaVuSerif-50"/>
     <use xlink:href="#DejaVuSerif-69" transform="translate(67.285156 0)"/>
     <use xlink:href="#DejaVuSerif-78" transform="translate(99.267578 0)"/>
     <use xlink:href="#DejaVuSerif-65" transform="translate(155.664062 0)"/>
     <use xlink:href="#DejaVuSerif-6c" transform="translate(214.84375 0)"/>
     <use xlink:href="#DejaVuSerif-20" transform="translate(246.826172 0)"/>
     <use xlink:href="#DejaVuSerif-74" transform="translate(278.613281 0)"/>
     <use xlink:href="#DejaVuSerif-6f" transform="translate(318.798828 0)"/>
     <use xlink:href="#DejaVuSerif-20" transform="translate(379.003906 0)"/>
     <use xlink:href="#DejaVuSerif-4d" transform="translate(410.791016 0)"/>
     <use xlink:href="#DejaVuSerif-65" transform="translate(513.183594 0)"/>
     <use xlink:href="#DejaVuSerif-74" transform="translate(572.363281 0)"/>
     <use xlink:href="#DejaVuSerif-65" transform="translate(612.548828 0)"/>
     <use xlink:href="#DejaVuSerif-72" transform="translate(671.728516 0)"/>
    </g>
    <!-- Conversion -->
    <g style="fill: #5d6d7e" transform="translate(579.011083 328.660109) scale(0.09 -0.09)">
     <use xlink:href="#DejaVuSerif-43"/>
     <use xlink:href="#DejaVuSerif-6f" transform="translate(76.513672 0)"/>
     <use xlink:href="#DejaVuSerif-6e" transform="translate(136.71875 0)"/>
     <use xlink:href="#DejaVuSerif-76" transform="translate(201.123047 0)"/>
     <use xlink:href="#DejaVuSerif-65" transform="translate(257.617188 0)"/>
     <use xlink:href="#DejaVuSerif-72" transform="translate(316.796875 0)"/>
     <use xlink:href="#DejaVuSerif-73" transform="translate(364.599609 0)"/>
     <use xlink:href="#DejaVuSerif-69" transform="translate(415.917969 0)"/>
     <use xlink:href="#DejaVuSerif-6f" transform="translate(447.900391 0)"/>
     <use xlink:href="#DejaVuSerif-6e" transform="translate(508.105469 0)"/>
    </g>
   </g>
   <g id="text_14">
    <g id="patch_20">
     <path d="M 750.010882 333.295813 
L 811.051975 333.295813 
Q 813.751975 333.295813 813.751975 330.595813 
L 813.751975 311.807469 
Q 813.751975 309.107469 811.051975 309.107469 
L 750.010882 309.107469 
Q 747.310882 309.107469 747.310882 311.807469 
L 747.310882 330.595813 
Q 747.310882 333.295813 750.010882 333.295813 
z
" style="fill: #ffffff; opacity: 0.9; stroke: #5d6d7e; stroke-width: 1.5; stroke-linejoin: miter"/>
    </g>
    <!-- Speed (km/h) -->
    <g style="fill: #5d6d7e" transform="translate(750.010882 318.518094) scale(0.09 -0.09)">
     <defs>
      <path id="DejaVuSerif-28" d="M 2041 -997 
Q 1281 -656 893 83 
Q 506 822 506 1931 
Q 506 3044 893 3783 
Q 1281 4522 2041 4863 
L 2041 4556 
Q 1559 4225 1350 3623 
Q 1141 3022 1141 1931 
Q 1141 844 1350 242 
Q 1559 -359 2041 -691 
L 2041 -997 
z
" transform="scale(0.015625)"/>
      <path id="DejaVuSerif-2f" d="M 1656 4666 
L 2156 4666 
L 500 -594 
L 0 -594 
L 1656 4666 
z
" transform="scale(0.015625)"/>
      <path id="DejaVuSerif-29" d="M 453 -997 
L 453 -691 
Q 934 -359 1145 242 
Q 1356 844 1356 1931 
Q 1356 3022 1145 3623 
Q 934 4225 453 4556 
L 453 4863 
Q 1216 4522 1603 3783 
Q 1991 3044 1991 1931 
Q 1991 822 1603 83 
Q 1216 -656 453 -997 
z
" transform="scale(0.015625)"/>
     </defs>
     <use xlink:href="#DejaVuSerif-53"/>
     <use xlink:href="#DejaVuSerif-70" transform="translate(68.505859 0)"/>
     <use xlink:href="#DejaVuSerif-65" transform="translate(132.519531 0)"/>
     <use xlink:href="#DejaVuSerif-65" transform="translate(191.699219 0)"/>
     <use xlink:href="#DejaVuSerif-64" transform="translate(250.878906 0)"/>
     <use xlink:href="#DejaVuSerif-20" transform="translate(314.892578 0)"/>
     <use xlink:href="#DejaVuSerif-28" transform="translate(346.679688 0)"/>
     <use xlink:href="#DejaVuSerif-6b" transform="translate(385.693359 0)"/>
     <use xlink:href="#DejaVuSerif-6d" transform="translate(446.289062 0)"/>
     <use xlink:href="#DejaVuSerif-2f" transform="translate(541.113281 0)"/>
     <use xlink:href="#DejaVuSerif-68" transform="translate(574.804688 0)"/>
     <use xlink:href="#DejaVuSerif-29" transform="translate(639.208984 0)"/>
    </g>
    <!-- + Trajectory -->
    <g style="fill: #5d6d7e" transform="translate(751.705413 328.596125) scale(0.09 -0.09)">
     <defs>
      <path id="DejaVuSerif-6a" d="M 641 4353 
Q 641 4497 745 4603 
Q 850 4709 997 4709 
Q 1141 4709 1245 4603 
Q 1350 4497 1350 4353 
Q 1350 4206 1248 4103 
Q 1147 4000 997 4000 
Q 850 4000 745 4103 
Q 641 4206 641 4353 
z
M 781 2988 
L 238 2988 
L 238 3322 
L 1356 3322 
L 1356 -325 
Q 1356 -838 1051 -1130 
Q 747 -1422 213 -1422 
Q -13 -1422 -217 -1370 
Q -422 -1319 -616 -1216 
L -616 -531 
L -319 -531 
Q -297 -831 -164 -972 
Q -31 -1113 225 -1113 
Q 509 -1113 645 -920 
Q 781 -728 781 -325 
L 781 2988 
z
" transform="scale(0.015625)"/>
     </defs>
     <use xlink:href="#DejaVuSerif-2b"/>
     <use xlink:href="#DejaVuSerif-20" transform="translate(83.789062 0)"/>
     <use xlink:href="#DejaVuSerif-54" transform="translate(115.576172 0)"/>
     <use xlink:href="#DejaVuSerif-72" transform="translate(182.275391 0)"/>
     <use xlink:href="#DejaVuSerif-61" transform="translate(230.078125 0)"/>
     <use xlink:href="#DejaVuSerif-6a" transform="translate(289.697266 0)"/>
     <use xlink:href="#DejaVuSerif-65" transform="translate(320.703125 0)"/>
     <use xlink:href="#DejaVuSerif-63" transform="translate(379.882812 0)"/>
     <use xlink:href="#DejaVuSerif-74" transform="translate(435.888672 0)"/>
     <use xlink:href="#DejaVuSerif-6f" transform="translate(476.074219 0)"/>
     <use xlink:href="#DejaVuSerif-72" transform="translate(536.279297 0)"/>
     <use xlink:href="#DejaVuSerif-79" transform="translate(584.082031 0)"/>
    </g>
   </g>
   <g id="text_15">
    <!-- Speed Estimation Pipeline Workflow -->
    <g transform="translate(346.297734 18.597656) scale(0.15 -0.15)">
     <defs>
      <path id="DejaVuSerif-Bold-20" transform="scale(0.015625)"/>
      <path id="DejaVuSerif-Bold-45" d="M 300 0 
L 300 378 
L 897 378 
L 897 4288 
L 300 4288 
L 300 4666 
L 4494 4666 
L 4494 3566 
L 4063 3566 
L 4063 4238 
L 2100 4238 
L 2100 2741 
L 3322 2741 
L 3322 3334 
L 3750 3334 
L 3750 1722 
L 3322 1722 
L 3322 2316 
L 2100 2316 
L 2100 428 
L 4122 428 
L 4122 1100 
L 4550 1100 
L 4550 0 
L 300 0 
z
" transform="scale(0.015625)"/>
      <path id="DejaVuSerif-Bold-73" d="M 300 97 
L 300 1025 
L 653 1025 
Q 697 653 931 458 
Q 1166 263 1569 263 
Q 1906 263 2086 380 
Q 2266 497 2266 716 
Q 2266 916 2152 1025 
Q 2038 1134 1709 1216 
L 1253 1331 
Q 738 1459 506 1698 
Q 275 1938 275 2344 
Q 275 2884 650 3148 
Q 1025 3413 1806 3413 
Q 2100 3413 2433 3364 
Q 2766 3316 3169 3213 
L 3169 2375 
L 2816 2375 
Q 2788 2716 2573 2887 
Q 2359 3059 1959 3059 
Q 1622 3059 1448 2951 
Q 1275 2844 1275 2638 
Q 1275 2469 1375 2372 
Q 1475 2275 1734 2209 
L 2188 2094 
Q 2841 1928 3091 1684 
Q 3341 1441 3341 1006 
Q 3341 444 2939 176 
Q 2538 -91 1691 -91 
Q 1381 -91 1034 -44 
Q 688 3 300 97 
z
" transform="scale(0.015625)"/>
      <path id="DejaVuSerif-Bold-50" d="M 300 0 
L 300 378 
L 897 378 
L 897 4288 
L 300 4288 
L 300 4666 
L 2956 4666 
Q 3734 4666 4193 4295 
Q 4653 3925 4653 3303 
Q 4653 2678 4192 2304 
Q 3731 1931 2956 1931 
L 2100 1931 
L 2100 378 
L 2853 378 
L 2853 0 
L 300 0 
z
M 2100 2309 
L 2450 2309 
Q 2856 2309 3098 2579 
Q 3341 2850 3341 3303 
Q 3341 3753 3100 4020 
Q 2859 4288 2450 4288 
L 2100 4288 
L 2100 2309 
z
" transform="scale(0.015625)"/>
      <path id="DejaVuSerif-Bold-66" d="M 3097 4031 
L 2747 4031 
Q 2722 4275 2605 4394 
Q 2488 4513 2272 4513 
Q 2022 4513 1909 4333 
Q 1797 4153 1797 3750 
L 1797 3322 
L 2631 3322 
L 2631 2944 
L 1797 2944 
L 1797 378 
L 2438 378 
L 2438 0 
L 219 0 
L 219 378 
L 691 378 
L 691 2944 
L 197 2944 
L 197 3322 
L 691 3322 
L 691 3738 
Q 691 4291 1044 4577 
Q 1397 4863 2081 4863 
Q 2347 4863 2600 4833 
Q 2853 4803 3097 4744 
L 3097 4031 
z
" transform="scale(0.015625)"/>
      <path id="DejaVuSerif-Bold-77" d="M 3450 3322 
L 4206 1106 
L 4831 2944 
L 4397 2944 
L 4397 3322 
L 5638 3322 
L 5638 2944 
L 5247 2944 
L 4244 0 
L 3481 0 
L 2778 2081 
L 2069 0 
L 1313 0 
L 306 2944 
L -56 2944 
L -56 3322 
L 1825 3322 
L 1825 2944 
L 1434 2944 
L 2047 1147 
L 2791 3322 
L 3450 3322 
z
" transform="scale(0.015625)"/>
     </defs>
     <use xlink:href="#DejaVuSerif-Bold-53"/>
     <use xlink:href="#DejaVuSerif-Bold-70" transform="translate(72.216797 0)"/>
     <use xlink:href="#DejaVuSerif-Bold-65" transform="translate(142.138672 0)"/>
     <use xlink:href="#DejaVuSerif-Bold-65" transform="translate(205.761719 0)"/>
     <use xlink:href="#DejaVuSerif-Bold-64" transform="translate(269.384766 0)"/>
     <use xlink:href="#DejaVuSerif-Bold-20" transform="translate(339.306641 0)"/>
     <use xlink:href="#DejaVuSerif-Bold-45" transform="translate(374.121094 0)"/>
     <use xlink:href="#DejaVuSerif-Bold-73" transform="translate(450.341797 0)"/>
     <use xlink:href="#DejaVuSerif-Bold-74" transform="translate(506.640625 0)"/>
     <use xlink:href="#DejaVuSerif-Bold-69" transform="translate(552.832031 0)"/>
     <use xlink:href="#DejaVuSerif-Bold-6d" transform="translate(590.820312 0)"/>
     <use xlink:href="#DejaVuSerif-Bold-61" transform="translate(696.630859 0)"/>
     <use xlink:href="#DejaVuSerif-Bold-74" transform="translate(761.425781 0)"/>
     <use xlink:href="#DejaVuSerif-Bold-69" transform="translate(807.617188 0)"/>
     <use xlink:href="#DejaVuSerif-Bold-6f" transform="translate(845.605469 0)"/>
     <use xlink:href="#DejaVuSerif-Bold-6e" transform="translate(912.304688 0)"/>
     <use xlink:href="#DejaVuSerif-Bold-20" transform="translate(985.009766 0)"/>
     <use xlink:href="#DejaVuSerif-Bold-50" transform="translate(1019.824219 0)"/>
     <use xlink:href="#DejaVuSerif-Bold-69" transform="translate(1095.019531 0)"/>
     <use xlink:href="#DejaVuSerif-Bold-70" transform="translate(1133.007812 0)"/>
     <use xlink:href="#DejaVuSerif-Bold-65" transform="translate(1202.929688 0)"/>
     <use xlink:href="#DejaVuSerif-Bold-6c" transform="translate(1266.552734 0)"/>
     <use xlink:href="#DejaVuSerif-Bold-69" transform="translate(1304.541016 0)"/>
     <use xlink:href="#DejaVuSerif-Bold-6e" transform="translate(1342.529297 0)"/>
     <use xlink:href="#DejaVuSerif-Bold-65" transform="translate(1415.234375 0)"/>
     <use xlink:href="#DejaVuSerif-Bold-20" transform="translate(1478.857422 0)"/>
     <use xlink:href="#DejaVuSerif-Bold-57" transform="translate(1513.671875 0)"/>
     <use xlink:href="#DejaVuSerif-Bold-6f" transform="translate(1617.851562 0)"/>
     <use xlink:href="#DejaVuSerif-Bold-72" transform="translate(1684.550781 0)"/>
     <use xlink:href="#DejaVuSerif-Bold-6b" transform="translate(1737.236328 0)"/>
     <use xlink:href="#DejaVuSerif-Bold-66" transform="translate(1806.523438 0)"/>
     <use xlink:href="#DejaVuSerif-Bold-6c" transform="translate(1849.541016 0)"/>
     <use xlink:href="#DejaVuSerif-Bold-6f" transform="translate(1887.529297 0)"/>
     <use xlink:href="#DejaVuSerif-Bold-77" transform="translate(1954.228516 0)"/>
    </g>
   </g>
  </g>
 </g>
 <defs>
  <clipPath id="p7f7242f8f8">
   <rect x="7.2" y="38.597656" width="984.24" height="376.72"/>
  </clipPath>
 </defs>
</svg>
