<?xml version="1.0" encoding="utf-8" standalone="no"?>
<!DOCTYPE svg PUBLIC "-//W3C//DTD SVG 1.1//EN"
  "http://www.w3.org/Graphics/SVG/1.1/DTD/svg11.dtd">
<svg xmlns:xlink="http://www.w3.org/1999/xlink" width="1142.64pt" height="849.24pt" viewBox="0 0 1142.64 849.24" xmlns="http://www.w3.org/2000/svg" version="1.1">
 <metadata>
  <rdf:RDF xmlns:dc="http://purl.org/dc/elements/1.1/" xmlns:cc="http://creativecommons.org/ns#" xmlns:rdf="http://www.w3.org/1999/02/22-rdf-syntax-ns#">
   <cc:Work>
    <dc:type rdf:resource="http://purl.org/dc/dcmitype/StillImage"/>
    <dc:date>2026-02-20T00:14:46.464612</dc:date>
    <dc:format>image/svg+xml</dc:format>
    <dc:creator>
     <cc:Agent>
      <dc:title>Matplotlib v3.10.3, https://matplotlib.org/</dc:title>
     </cc:Agent>
    </dc:creator>
   </cc:Work>
  </rdf:RDF>
 </metadata>
 <defs>
  <style type="text/css">*{stroke-linejoin: round; stroke-linecap: butt}</style>
 </defs>
 <g id="figure_1">
  <g id="patch_1">
   <path d="M 0 849.24 
L 1142.64 849.24 
L 1142.64 0 
L 0 0 
z
" style="fill: #ffffff"/>
  </g>
  <g id="axes_1">
   <g id="patch_2">
    <path d="M 37.8999 308.268 
L 110.4633 308.268 
Q 116.0451 308.268 116.0451 298.692 
L 116.0451 212.508 
Q 116.0451 202.932 110.4633 202.932 
L 37.8999 202.932 
Q 32.3181 202.932 32.3181 212.508 
L 32.3181 298.692 
Q 32.3181 308.268 37.8999 308.268 
z
" clip-path="url(#p818dd47615)" style="fill: #aed6f1; stroke: #000000; stroke-width: 1.5; stroke-linejoin: miter"/>
   </g>
   <g id="patch_3">
    <path d="M 143.9541 308.268 
L 216.5175 308.268 
Q 222.0993 308.268 222.0993 298.692 
L 222.0993 212.508 
Q 222.0993 202.932 216.5175 202.932 
L 143.9541 202.932 
Q 138.3723 202.932 138.3723 212.508 
L 138.3723 298.692 
Q 138.3723 308.268 143.9541 308.268 
z
" clip-path="url(#p818dd47615)" style="fill: #f9e79f; stroke: #000000; stroke-width: 1.5; stroke-linejoin: miter"/>
   </g>
   <g id="patch_4">
    <path d="M 250.0083 308.268 
L 322.5717 308.268 
Q 328.1535 308.268 328.1535 298.692 
L 328.1535 212.508 
Q 328.1535 202.932 322.5717 202.932 
L 250.0083 202.932 
Q 244.4265 202.932 244.4265 212.508 
L 244.4265 298.692 
Q 244.4265 308.268 250.0083 308.268 
z
" clip-path="url(#p818dd47615)" style="fill: #f9e79f; stroke: #000000; stroke-width: 1.5; stroke-linejoin: miter"/>
   </g>
   <g id="patch_5">
    <path d="M 356.0625 308.268 
L 428.6259 308.268 
Q 434.2077 308.268 434.2077 298.692 
L 434.2077 212.508 
Q 434.2077 202.932 428.6259 202.932 
L 356.0625 202.932 
Q 350.4807 202.932 350.4807 212.508 
L 350.4807 298.692 
Q 350.4807 308.268 356.0625 308.268 
z
" clip-path="url(#p818dd47615)" style="fill: #f9e79f; stroke: #000000; stroke-width: 1.5; stroke-linejoin: miter"/>
   </g>
   <g id="patch_6">
    <path d="M 462.1167 308.268 
L 534.6801 308.268 
Q 540.2619 308.268 540.2619 298.692 
L 540.2619 212.508 
Q 540.2619 202.932 534.6801 202.932 
L 462.1167 202.932 
Q 456.5349 202.932 456.5349 212.508 
L 456.5349 298.692 
Q 456.5349 308.268 462.1167 308.268 
z
" clip-path="url(#p818dd47615)" style="fill: #d7bde2; stroke: #000000; stroke-width: 1.5; stroke-linejoin: miter"/>
   </g>
   <g id="text_1">
    <!-- Video -->
    <g transform="translate(60.048084 253.044422) scale(0.09 -0.09)">
     <defs>
      <path id="DejaVuSerif-Bold-56" d="M 5056 4666 
L 5056 4288 
L 4666 4288 
L 2906 0 
L 2163 0 
L 403 4288 
L -38 4288 
L -38 4666 
L 2150 4666 
L 2150 4288 
L 1697 4288 
L 2956 1197 
L 4225 4288 
L 3669 4288 
L 3669 4666 
L 5056 4666 
z
" transform="scale(0.015625)"/>
      <path id="DejaVuSerif-Bold-69" d="M 588 4263 
Q 588 4516 763 4689 
Q 938 4863 1191 4863 
Q 1438 4863 1611 4689 
Q 1784 4516 1784 4263 
Q 1784 4016 1611 3842 
Q 1438 3669 1191 3669 
Q 938 3669 763 3841 
Q 588 4013 588 4263 
z
M 1797 378 
L 2272 378 
L 2272 0 
L 219 0 
L 219 378 
L 691 378 
L 691 2944 
L 219 2944 
L 219 3322 
L 1797 3322 
L 1797 378 
z
" transform="scale(0.015625)"/>
      <path id="DejaVuSerif-Bold-64" d="M 2747 1497 
L 2747 1825 
Q 2747 2406 2597 2665 
Q 2447 2925 2119 2925 
Q 1775 2925 1636 2651 
Q 1497 2378 1497 1663 
Q 1497 947 1637 672 
Q 1778 397 2119 397 
Q 2447 397 2597 656 
Q 2747 916 2747 1497 
z
M 3853 378 
L 4325 378 
L 4325 0 
L 2747 0 
L 2747 422 
Q 2606 163 2367 36 
Q 2128 -91 1778 -91 
Q 1072 -91 667 378 
Q 263 847 263 1663 
Q 263 2481 667 2947 
Q 1072 3413 1778 3413 
Q 2128 3413 2367 3286 
Q 2606 3159 2747 2900 
L 2747 4488 
L 2272 4488 
L 2272 4863 
L 3853 4863 
L 3853 378 
z
" transform="scale(0.015625)"/>
      <path id="DejaVuSerif-Bold-65" d="M 2566 1875 
Q 2566 2531 2444 2795 
Q 2322 3059 2028 3059 
Q 1744 3059 1620 2800 
Q 1497 2541 1497 1931 
L 1497 1875 
L 2566 1875 
z
M 3781 1503 
L 1497 1503 
L 1497 1478 
Q 1497 834 1690 548 
Q 1884 263 2316 263 
Q 2675 263 2897 453 
Q 3119 644 3181 1006 
L 3700 1006 
Q 3566 441 3166 175 
Q 2766 -91 2047 -91 
Q 1184 -91 723 364 
Q 263 819 263 1663 
Q 263 2488 734 2950 
Q 1206 3413 2047 3413 
Q 2872 3413 3312 2927 
Q 3753 2441 3781 1503 
z
" transform="scale(0.015625)"/>
      <path id="DejaVuSerif-Bold-6f" d="M 2138 263 
Q 2488 263 2630 563 
Q 2772 863 2772 1663 
Q 2772 2463 2631 2761 
Q 2491 3059 2138 3059 
Q 1784 3059 1640 2757 
Q 1497 2456 1497 1663 
Q 1497 869 1640 566 
Q 1784 263 2138 263 
z
M 2138 -91 
Q 1259 -91 761 376 
Q 263 844 263 1663 
Q 263 2484 761 2948 
Q 1259 3413 2138 3413 
Q 3019 3413 3516 2948 
Q 4013 2484 4013 1663 
Q 4013 844 3514 376 
Q 3016 -91 2138 -91 
z
" transform="scale(0.015625)"/>
     </defs>
     <use xlink:href="#DejaVuSerif-Bold-56"/>
     <use xlink:href="#DejaVuSerif-Bold-69" transform="translate(75.837891 0)"/>
     <use xlink:href="#DejaVuSerif-Bold-64" transform="translate(113.826172 0)"/>
     <use xlink:href="#DejaVuSerif-Bold-65" transform="translate(183.748047 0)"/>
     <use xlink:href="#DejaVuSerif-Bold-6f" transform="translate(247.371094 0)"/>
    </g>
    <!-- Frame -->
    <g transform="translate(58.153866 263.122453) scale(0.09 -0.09)">
     <defs>
      <path id="DejaVuSerif-Bold-46" d="M 300 0 
L 300 378 
L 897 378 
L 897 4288 
L 300 4288 
L 300 4666 
L 4459 4666 
L 4459 3566 
L 4031 3566 
L 4031 4238 
L 2106 4238 
L 2106 2741 
L 3291 2741 
L 3291 3334 
L 3719 3334 
L 3719 1722 
L 3291 1722 
L 3291 2316 
L 2106 2316 
L 2106 378 
L 2841 378 
L 2841 0 
L 300 0 
z
" transform="scale(0.015625)"/>
      <path id="DejaVuSerif-Bold-72" d="M 3438 3359 
L 3438 2369 
L 3084 2369 
Q 3066 2634 2941 2764 
Q 2816 2894 2578 2894 
Q 2216 2894 2006 2575 
Q 1797 2256 1797 1691 
L 1797 378 
L 2400 378 
L 2400 0 
L 219 0 
L 219 378 
L 691 378 
L 691 2944 
L 184 2944 
L 184 3322 
L 1797 3322 
L 1797 2731 
Q 1959 3078 2226 3245 
Q 2494 3413 2881 3413 
Q 2978 3413 3117 3398 
Q 3256 3384 3438 3359 
z
" transform="scale(0.015625)"/>
      <path id="DejaVuSerif-Bold-61" d="M 3525 2041 
L 3525 378 
L 4000 378 
L 4000 0 
L 2419 0 
L 2419 422 
Q 2200 159 1931 34 
Q 1663 -91 1319 -91 
Q 809 -91 536 182 
Q 263 456 263 966 
Q 263 1525 655 1803 
Q 1047 2081 1838 2081 
L 2419 2081 
L 2419 2278 
Q 2419 2681 2228 2873 
Q 2038 3066 1638 3066 
Q 1306 3066 1126 2930 
Q 947 2794 872 2484 
L 519 2484 
L 519 3200 
Q 816 3306 1134 3359 
Q 1453 3413 1806 3413 
Q 2697 3413 3111 3081 
Q 3525 2750 3525 2041 
z
M 2419 1044 
L 2419 1709 
L 2003 1709 
Q 1694 1709 1528 1540 
Q 1363 1372 1363 1056 
Q 1363 741 1483 584 
Q 1603 428 1850 428 
Q 2106 428 2262 597 
Q 2419 766 2419 1044 
z
" transform="scale(0.015625)"/>
      <path id="DejaVuSerif-Bold-6d" d="M 3884 2778 
Q 4116 3109 4384 3261 
Q 4653 3413 5013 3413 
Q 5584 3413 5867 3089 
Q 6150 2766 6150 2113 
L 6150 378 
L 6625 378 
L 6625 0 
L 4647 0 
L 4647 378 
L 5044 378 
L 5044 1947 
Q 5044 2569 4948 2731 
Q 4853 2894 4594 2894 
Q 4300 2894 4137 2667 
Q 3975 2441 3975 2022 
L 3975 378 
L 4372 378 
L 4372 0 
L 2472 0 
L 2472 378 
L 2869 378 
L 2869 1947 
Q 2869 2569 2772 2731 
Q 2675 2894 2419 2894 
Q 2122 2894 1959 2667 
Q 1797 2441 1797 2022 
L 1797 378 
L 2194 378 
L 2194 0 
L 219 0 
L 219 378 
L 691 378 
L 691 2944 
L 219 2944 
L 219 3322 
L 1797 3322 
L 1797 2853 
Q 1991 3144 2241 3278 
Q 2491 3413 2834 3413 
Q 3241 3413 3494 3258 
Q 3747 3103 3884 2778 
z
" transform="scale(0.015625)"/>
     </defs>
     <use xlink:href="#DejaVuSerif-Bold-46"/>
     <use xlink:href="#DejaVuSerif-Bold-72" transform="translate(69.246094 0)"/>
     <use xlink:href="#DejaVuSerif-Bold-61" transform="translate(121.931641 0)"/>
     <use xlink:href="#DejaVuSerif-Bold-6d" transform="translate(186.726562 0)"/>
     <use xlink:href="#DejaVuSerif-Bold-65" transform="translate(292.537109 0)"/>
    </g>
   </g>
   <g id="patch_7">
    <path d="M 118.042883 255.6 
Q 127.207499 255.6 134.136048 255.6 
" style="fill: none; stroke: #1a5276; stroke-width: 2; stroke-linecap: round"/>
    <path d="M 129.736048 253.4 
L 134.136048 255.6 
L 129.736048 257.8 
" style="fill: none; stroke: #1a5276; stroke-width: 2; stroke-linecap: round"/>
   </g>
   <g id="text_2">
    <!-- Detection -->
    <g transform="translate(155.727675 258.083437) scale(0.09 -0.09)">
     <defs>
      <path id="DejaVuSerif-Bold-44" d="M 2100 378 
L 2534 378 
Q 3266 378 3605 847 
Q 3944 1316 3944 2338 
Q 3944 3353 3606 3820 
Q 3269 4288 2534 4288 
L 2100 4288 
L 2100 378 
z
M 300 0 
L 300 378 
L 897 378 
L 897 4288 
L 300 4288 
L 300 4666 
L 2694 4666 
Q 3950 4666 4615 4066 
Q 5281 3466 5281 2338 
Q 5281 1203 4614 601 
Q 3947 0 2694 0 
L 300 0 
z
" transform="scale(0.015625)"/>
      <path id="DejaVuSerif-Bold-74" d="M 634 2944 
L 153 2944 
L 153 3322 
L 634 3322 
L 634 4353 
L 1741 4353 
L 1741 3322 
L 2663 3322 
L 2663 2944 
L 1741 2944 
L 1741 909 
Q 1741 475 1809 369 
Q 1878 263 2059 263 
Q 2259 263 2356 397 
Q 2453 531 2459 813 
L 2925 813 
Q 2897 313 2651 111 
Q 2406 -91 1806 -91 
Q 1122 -91 878 123 
Q 634 338 634 909 
L 634 2944 
z
" transform="scale(0.015625)"/>
      <path id="DejaVuSerif-Bold-63" d="M 3609 1038 
Q 3491 469 3123 189 
Q 2756 -91 2125 -91 
Q 1238 -91 750 368 
Q 263 828 263 1663 
Q 263 2488 744 2950 
Q 1225 3413 2081 3413 
Q 2428 3413 2781 3347 
Q 3134 3281 3500 3150 
L 3500 2228 
L 3150 2228 
Q 3100 2650 2903 2854 
Q 2706 3059 2350 3059 
Q 1888 3059 1692 2746 
Q 1497 2434 1497 1663 
Q 1497 909 1687 586 
Q 1878 263 2309 263 
Q 2644 263 2845 463 
Q 3047 663 3091 1038 
L 3609 1038 
z
" transform="scale(0.015625)"/>
      <path id="DejaVuSerif-Bold-6e" d="M 219 0 
L 219 378 
L 691 378 
L 691 2944 
L 219 2944 
L 219 3322 
L 1797 3322 
L 1797 2853 
Q 1997 3150 2253 3281 
Q 2509 3413 2900 3413 
Q 3459 3413 3745 3083 
Q 4031 2753 4031 2113 
L 4031 378 
L 4506 378 
L 4506 0 
L 2522 0 
L 2522 378 
L 2925 378 
L 2925 2144 
Q 2925 2566 2817 2730 
Q 2709 2894 2444 2894 
Q 2109 2894 1953 2648 
Q 1797 2403 1797 1869 
L 1797 378 
L 2203 378 
L 2203 0 
L 219 0 
z
" transform="scale(0.015625)"/>
     </defs>
     <use xlink:href="#DejaVuSerif-Bold-44"/>
     <use xlink:href="#DejaVuSerif-Bold-65" transform="translate(86.71875 0)"/>
     <use xlink:href="#DejaVuSerif-Bold-74" transform="translate(150.341797 0)"/>
     <use xlink:href="#DejaVuSerif-Bold-65" transform="translate(196.533203 0)"/>
     <use xlink:href="#DejaVuSerif-Bold-63" transform="translate(260.15625 0)"/>
     <use xlink:href="#DejaVuSerif-Bold-74" transform="translate(321.044922 0)"/>
     <use xlink:href="#DejaVuSerif-Bold-69" transform="translate(367.236328 0)"/>
     <use xlink:href="#DejaVuSerif-Bold-6f" transform="translate(405.224609 0)"/>
     <use xlink:href="#DejaVuSerif-Bold-6e" transform="translate(471.923828 0)"/>
    </g>
   </g>
   <g id="patch_8">
    <path d="M 224.097083 255.6 
Q 233.261699 255.6 240.190248 255.6 
" style="fill: none; stroke: #1a5276; stroke-width: 2; stroke-linecap: round"/>
    <path d="M 235.790248 253.4 
L 240.190248 255.6 
L 235.790248 257.8 
" style="fill: none; stroke: #1a5276; stroke-width: 2; stroke-linecap: round"/>
   </g>
   <g id="text_3">
    <!-- Centroid -->
    <g transform="translate(264.266719 258.083437) scale(0.09 -0.09)">
     <defs>
      <path id="DejaVuSerif-Bold-43" d="M 4769 1331 
Q 4584 609 4106 259 
Q 3628 -91 2822 -91 
Q 1641 -91 955 561 
Q 269 1213 269 2328 
Q 269 3447 955 4098 
Q 1641 4750 2822 4750 
Q 3238 4750 3688 4650 
Q 4138 4550 4641 4347 
L 4641 3200 
L 4244 3200 
Q 4122 3788 3800 4080 
Q 3478 4372 2950 4372 
Q 2269 4372 1937 3870 
Q 1606 3369 1606 2328 
Q 1606 1288 1937 788 
Q 2269 288 2956 288 
Q 3422 288 3717 547 
Q 4013 806 4147 1331 
L 4769 1331 
z
" transform="scale(0.015625)"/>
     </defs>
     <use xlink:href="#DejaVuSerif-Bold-43"/>
     <use xlink:href="#DejaVuSerif-Bold-65" transform="translate(79.589844 0)"/>
     <use xlink:href="#DejaVuSerif-Bold-6e" transform="translate(143.212891 0)"/>
     <use xlink:href="#DejaVuSerif-Bold-74" transform="translate(215.917969 0)"/>
     <use xlink:href="#DejaVuSerif-Bold-72" transform="translate(262.109375 0)"/>
     <use xlink:href="#DejaVuSerif-Bold-6f" transform="translate(314.794922 0)"/>
     <use xlink:href="#DejaVuSerif-Bold-69" transform="translate(381.494141 0)"/>
     <use xlink:href="#DejaVuSerif-Bold-64" transform="translate(419.482422 0)"/>
    </g>
   </g>
   <g id="patch_9">
    <path d="M 330.151283 255.6 
Q 339.315899 255.6 346.244448 255.6 
" style="fill: none; stroke: #1a5276; stroke-width: 2; stroke-linecap: round"/>
    <path d="M 341.844448 253.4 
L 346.244448 255.6 
L 341.844448 257.8 
" style="fill: none; stroke: #1a5276; stroke-width: 2; stroke-linecap: round"/>
   </g>
   <g id="text_4">
    <!-- Pixel -->
    <g transform="translate(379.995216 253.044422) scale(0.09 -0.09)">
     <defs>
      <path id="DejaVuSerif-Bold-50" d="M 300 0 
L 300 378 
L 897 378 
L 897 4288 
L 300 4288 
L 300 4666 
L 2956 4666 
Q 3734 4666 4193 4295 
Q 4653 3925 4653 3303 
Q 4653 2678 4192 2304 
Q 3731 1931 2956 1931 
L 2100 1931 
L 2100 378 
L 2853 378 
L 2853 0 
L 300 0 
z
M 2100 2309 
L 2450 2309 
Q 2856 2309 3098 2579 
Q 3341 2850 3341 3303 
Q 3341 3753 3100 4020 
Q 2859 4288 2450 4288 
L 2100 4288 
L 2100 2309 
z
" transform="scale(0.015625)"/>
      <path id="DejaVuSerif-Bold-78" d="M 2247 2119 
L 2834 2944 
L 2425 2944 
L 2425 3322 
L 3719 3322 
L 3719 2944 
L 3278 2944 
L 2431 1759 
L 3419 378 
L 3859 378 
L 3859 0 
L 1747 0 
L 1747 378 
L 2175 378 
L 1550 1253 
L 922 378 
L 1369 378 
L 1369 0 
L 0 0 
L 0 378 
L 475 378 
L 1356 1619 
L 403 2944 
L 31 2944 
L 31 3322 
L 2059 3322 
L 2059 2944 
L 1656 2944 
L 2247 2119 
z
" transform="scale(0.015625)"/>
      <path id="DejaVuSerif-Bold-6c" d="M 1797 378 
L 2272 378 
L 2272 0 
L 219 0 
L 219 378 
L 691 378 
L 691 4488 
L 219 4488 
L 219 4863 
L 1797 4863 
L 1797 378 
z
" transform="scale(0.015625)"/>
     </defs>
     <use xlink:href="#DejaVuSerif-Bold-50"/>
     <use xlink:href="#DejaVuSerif-Bold-69" transform="translate(75.195312 0)"/>
     <use xlink:href="#DejaVuSerif-Bold-78" transform="translate(113.183594 0)"/>
     <use xlink:href="#DejaVuSerif-Bold-65" transform="translate(172.802734 0)"/>
     <use xlink:href="#DejaVuSerif-Bold-6c" transform="translate(236.425781 0)"/>
    </g>
    <!-- Displacement -->
    <g transform="translate(357.849591 263.122453) scale(0.09 -0.09)">
     <defs>
      <path id="DejaVuSerif-Bold-73" d="M 300 97 
L 300 1025 
L 653 1025 
Q 697 653 931 458 
Q 1166 263 1569 263 
Q 1906 263 2086 380 
Q 2266 497 2266 716 
Q 2266 916 2152 1025 
Q 2038 1134 1709 1216 
L 1253 1331 
Q 738 1459 506 1698 
Q 275 1938 275 2344 
Q 275 2884 650 3148 
Q 1025 3413 1806 3413 
Q 2100 3413 2433 3364 
Q 2766 3316 3169 3213 
L 3169 2375 
L 2816 2375 
Q 2788 2716 2573 2887 
Q 2359 3059 1959 3059 
Q 1622 3059 1448 2951 
Q 1275 2844 1275 2638 
Q 1275 2469 1375 2372 
Q 1475 2275 1734 2209 
L 2188 2094 
Q 2841 1928 3091 1684 
Q 3341 1441 3341 1006 
Q 3341 444 2939 176 
Q 2538 -91 1691 -91 
Q 1381 -91 1034 -44 
Q 688 3 300 97 
z
" transform="scale(0.015625)"/>
      <path id="DejaVuSerif-Bold-70" d="M 1728 1825 
L 1728 1497 
Q 1728 916 1876 656 
Q 2025 397 2356 397 
Q 2697 397 2836 672 
Q 2975 947 2975 1663 
Q 2975 2378 2836 2651 
Q 2697 2925 2356 2925 
Q 2025 2925 1876 2665 
Q 1728 2406 1728 1825 
z
M 622 2944 
L 147 2944 
L 147 3322 
L 1728 3322 
L 1728 2900 
Q 1869 3159 2106 3286 
Q 2344 3413 2694 3413 
Q 3403 3413 3811 2945 
Q 4219 2478 4219 1663 
Q 4219 847 3811 378 
Q 3403 -91 2694 -91 
Q 2344 -91 2106 36 
Q 1869 163 1728 422 
L 1728 -953 
L 2241 -953 
L 2241 -1331 
L 147 -1331 
L 147 -953 
L 622 -953 
L 622 2944 
z
" transform="scale(0.015625)"/>
     </defs>
     <use xlink:href="#DejaVuSerif-Bold-44"/>
     <use xlink:href="#DejaVuSerif-Bold-69" transform="translate(86.71875 0)"/>
     <use xlink:href="#DejaVuSerif-Bold-73" transform="translate(124.707031 0)"/>
     <use xlink:href="#DejaVuSerif-Bold-70" transform="translate(181.005859 0)"/>
     <use xlink:href="#DejaVuSerif-Bold-6c" transform="translate(250.927734 0)"/>
     <use xlink:href="#DejaVuSerif-Bold-61" transform="translate(288.916016 0)"/>
     <use xlink:href="#DejaVuSerif-Bold-63" transform="translate(353.710938 0)"/>
     <use xlink:href="#DejaVuSerif-Bold-65" transform="translate(414.599609 0)"/>
     <use xlink:href="#DejaVuSerif-Bold-6d" transform="translate(478.222656 0)"/>
     <use xlink:href="#DejaVuSerif-Bold-65" transform="translate(584.033203 0)"/>
     <use xlink:href="#DejaVuSerif-Bold-6e" transform="translate(647.65625 0)"/>
     <use xlink:href="#DejaVuSerif-Bold-74" transform="translate(720.361328 0)"/>
    </g>
   </g>
   <g id="patch_10">
    <path d="M 436.205483 255.6 
Q 445.370099 255.6 452.298648 255.6 
" style="fill: none; stroke: #1a5276; stroke-width: 2; stroke-linecap: round"/>
    <path d="M 447.898648 253.4 
L 452.298648 255.6 
L 447.898648 257.8 
" style="fill: none; stroke: #1a5276; stroke-width: 2; stroke-linecap: round"/>
   </g>
   <g id="text_5">
    <!-- Speed -->
    <g transform="translate(483.129337 253.044422) scale(0.09 -0.09)">
     <defs>
      <path id="DejaVuSerif-Bold-53" d="M 494 225 
L 494 1331 
L 891 1331 
Q 981 806 1318 547 
Q 1656 288 2253 288 
Q 2738 288 2991 472 
Q 3244 656 3244 1013 
Q 3244 1294 3072 1450 
Q 2900 1606 2363 1741 
L 1663 1913 
Q 978 2088 700 2398 
Q 422 2709 422 3284 
Q 422 3978 883 4364 
Q 1344 4750 2175 4750 
Q 2584 4750 3026 4681 
Q 3469 4613 3944 4475 
L 3944 3444 
L 3547 3444 
Q 3456 3925 3150 4148 
Q 2844 4372 2278 4372 
Q 1816 4372 1580 4211 
Q 1344 4050 1344 3731 
Q 1344 3441 1506 3289 
Q 1669 3138 2303 2975 
L 3003 2803 
Q 3653 2641 3945 2297 
Q 4238 1953 4238 1350 
Q 4238 644 3750 276 
Q 3263 -91 2316 -91 
Q 1859 -91 1409 -12 
Q 959 66 494 225 
z
" transform="scale(0.015625)"/>
     </defs>
     <use xlink:href="#DejaVuSerif-Bold-53"/>
     <use xlink:href="#DejaVuSerif-Bold-70" transform="translate(72.216797 0)"/>
     <use xlink:href="#DejaVuSerif-Bold-65" transform="translate(142.138672 0)"/>
     <use xlink:href="#DejaVuSerif-Bold-65" transform="translate(205.761719 0)"/>
     <use xlink:href="#DejaVuSerif-Bold-64" transform="translate(269.384766 0)"/>
    </g>
    <!-- (px/frame) -->
    <g transform="translate(471.819572 263.122453) scale(0.09 -0.09)">
     <defs>
      <path id="DejaVuSerif-Bold-28" d="M 2694 -997 
Q 1641 -606 1122 122 
Q 603 850 603 1931 
Q 603 3013 1115 3731 
Q 1628 4450 2694 4863 
L 2694 4488 
Q 2200 4188 1983 3598 
Q 1766 3009 1766 1931 
Q 1766 856 1983 267 
Q 2200 -322 2694 -622 
L 2694 -997 
z
" transform="scale(0.015625)"/>
      <path id="DejaVuSerif-Bold-2f" d="M 1644 4666 
L 2338 4666 
L 691 -594 
L 0 -594 
L 1644 4666 
z
" transform="scale(0.015625)"/>
      <path id="DejaVuSerif-Bold-66" d="M 3097 4031 
L 2747 4031 
Q 2722 4275 2605 4394 
Q 2488 4513 2272 4513 
Q 2022 4513 1909 4333 
Q 1797 4153 1797 3750 
L 1797 3322 
L 2631 3322 
L 2631 2944 
L 1797 2944 
L 1797 378 
L 2438 378 
L 2438 0 
L 219 0 
L 219 378 
L 691 378 
L 691 2944 
L 197 2944 
L 197 3322 
L 691 3322 
L 691 3738 
Q 691 4291 1044 4577 
Q 1397 4863 2081 4863 
Q 2347 4863 2600 4833 
Q 2853 4803 3097 4744 
L 3097 4031 
z
" transform="scale(0.015625)"/>
      <path id="DejaVuSerif-Bold-29" d="M 325 -997 
L 325 -622 
Q 819 -322 1036 267 
Q 1253 856 1253 1931 
Q 1253 3009 1036 3598 
Q 819 4188 325 4488 
L 325 4863 
Q 1391 4450 1905 3731 
Q 2419 3013 2419 1931 
Q 2419 850 1898 122 
Q 1378 -606 325 -997 
z
" transform="scale(0.015625)"/>
     </defs>
     <use xlink:href="#DejaVuSerif-Bold-28"/>
     <use xlink:href="#DejaVuSerif-Bold-70" transform="translate(47.314453 0)"/>
     <use xlink:href="#DejaVuSerif-Bold-78" transform="translate(117.236328 0)"/>
     <use xlink:href="#DejaVuSerif-Bold-2f" transform="translate(176.855469 0)"/>
     <use xlink:href="#DejaVuSerif-Bold-66" transform="translate(213.378906 0)"/>
     <use xlink:href="#DejaVuSerif-Bold-72" transform="translate(256.396484 0)"/>
     <use xlink:href="#DejaVuSerif-Bold-61" transform="translate(309.082031 0)"/>
     <use xlink:href="#DejaVuSerif-Bold-6d" transform="translate(373.876953 0)"/>
     <use xlink:href="#DejaVuSerif-Bold-65" transform="translate(479.6875 0)"/>
     <use xlink:href="#DejaVuSerif-Bold-29" transform="translate(543.310547 0)"/>
    </g>
   </g>
   <g id="text_6">
    <!-- Pixel-Based -->
    <g transform="translate(243.709922 115.547187) scale(0.13 -0.13)">
     <defs>
      <path id="DejaVuSerif-Bold-2d" d="M 347 2138 
L 2309 2138 
L 2309 1294 
L 347 1294 
L 347 2138 
z
" transform="scale(0.015625)"/>
      <path id="DejaVuSerif-Bold-42" d="M 300 0 
L 300 378 
L 897 378 
L 897 4288 
L 300 4288 
L 300 4666 
L 3066 4666 
Q 3919 4666 4347 4378 
Q 4775 4091 4775 3513 
Q 4775 3097 4479 2853 
Q 4184 2609 3603 2547 
Q 4306 2481 4681 2172 
Q 5056 1863 5056 1350 
Q 5056 656 4532 328 
Q 4009 0 2894 0 
L 300 0 
z
M 2100 2719 
L 2509 2719 
Q 3047 2719 3306 2914 
Q 3566 3109 3566 3513 
Q 3566 3919 3314 4103 
Q 3063 4288 2509 4288 
L 2100 4288 
L 2100 2719 
z
M 2100 378 
L 2547 378 
Q 3144 378 3431 615 
Q 3719 853 3719 1350 
Q 3719 1850 3428 2097 
Q 3138 2344 2547 2344 
L 2100 2344 
L 2100 378 
z
" transform="scale(0.015625)"/>
     </defs>
     <use xlink:href="#DejaVuSerif-Bold-50"/>
     <use xlink:href="#DejaVuSerif-Bold-69" transform="translate(75.195312 0)"/>
     <use xlink:href="#DejaVuSerif-Bold-78" transform="translate(113.183594 0)"/>
     <use xlink:href="#DejaVuSerif-Bold-65" transform="translate(172.802734 0)"/>
     <use xlink:href="#DejaVuSerif-Bold-6c" transform="translate(236.425781 0)"/>
     <use xlink:href="#DejaVuSerif-Bold-2d" transform="translate(274.414062 0)"/>
     <use xlink:href="#DejaVuSerif-Bold-42" transform="translate(315.917969 0)"/>
     <use xlink:href="#DejaVuSerif-Bold-61" transform="translate(400.439453 0)"/>
     <use xlink:href="#DejaVuSerif-Bold-73" transform="translate(465.234375 0)"/>
     <use xlink:href="#DejaVuSerif-Bold-65" transform="translate(521.533203 0)"/>
     <use xlink:href="#DejaVuSerif-Bold-64" transform="translate(585.15625 0)"/>
    </g>
   </g>
  </g>
  <g id="axes_2">
   <g id="patch_11">
    <path d="M 592.8093 308.268 
L 665.3727 308.268 
Q 670.9545 308.268 670.9545 298.692 
L 670.9545 212.508 
Q 670.9545 202.932 665.3727 202.932 
L 592.8093 202.932 
Q 587.2275 202.932 587.2275 212.508 
L 587.2275 298.692 
Q 587.2275 308.268 592.8093 308.268 
z
" clip-path="url(#pff669bc4d4)" style="fill: #aed6f1; stroke: #000000; stroke-width: 1.5; stroke-linejoin: miter"/>
   </g>
   <g id="patch_12">
    <path d="M 683.7129 308.268 
L 756.2763 308.268 
Q 761.8581 308.268 761.8581 298.692 
L 761.8581 212.508 
Q 761.8581 202.932 756.2763 202.932 
L 683.7129 202.932 
Q 678.1311 202.932 678.1311 212.508 
L 678.1311 298.692 
Q 678.1311 308.268 683.7129 308.268 
z
" clip-path="url(#pff669bc4d4)" style="fill: #f9e79f; stroke: #000000; stroke-width: 1.5; stroke-linejoin: miter"/>
   </g>
   <g id="patch_13">
    <path d="M 774.6165 308.268 
L 847.1799 308.268 
Q 852.7617 308.268 852.7617 298.692 
L 852.7617 212.508 
Q 852.7617 202.932 847.1799 202.932 
L 774.6165 202.932 
Q 769.0347 202.932 769.0347 212.508 
L 769.0347 298.692 
Q 769.0347 308.268 774.6165 308.268 
z
" clip-path="url(#pff669bc4d4)" style="fill: #f9e79f; stroke: #000000; stroke-width: 1.5; stroke-linejoin: miter"/>
   </g>
   <g id="patch_14">
    <path d="M 865.5201 308.268 
L 938.0835 308.268 
Q 943.6653 308.268 943.6653 298.692 
L 943.6653 212.508 
Q 943.6653 202.932 938.0835 202.932 
L 865.5201 202.932 
Q 859.9383 202.932 859.9383 212.508 
L 859.9383 298.692 
Q 859.9383 308.268 865.5201 308.268 
z
" clip-path="url(#pff669bc4d4)" style="fill: #f9e79f; stroke: #000000; stroke-width: 1.5; stroke-linejoin: miter"/>
   </g>
   <g id="patch_15">
    <path d="M 956.4237 308.268 
L 1028.9871 308.268 
Q 1034.5689 308.268 1034.5689 298.692 
L 1034.5689 212.508 
Q 1034.5689 202.932 1028.9871 202.932 
L 956.4237 202.932 
Q 950.8419 202.932 950.8419 212.508 
L 950.8419 298.692 
Q 950.8419 308.268 956.4237 308.268 
z
" clip-path="url(#pff669bc4d4)" style="fill: #f9e79f; stroke: #000000; stroke-width: 1.5; stroke-linejoin: miter"/>
   </g>
   <g id="patch_16">
    <path d="M 1047.3273 308.268 
L 1119.8907 308.268 
Q 1125.4725 308.268 1125.4725 298.692 
L 1125.4725 212.508 
Q 1125.4725 202.932 1119.8907 202.932 
L 1047.3273 202.932 
Q 1041.7455 202.932 1041.7455 212.508 
L 1041.7455 298.692 
Q 1041.7455 308.268 1047.3273 308.268 
z
" clip-path="url(#pff669bc4d4)" style="fill: #d7bde2; stroke: #000000; stroke-width: 1.5; stroke-linejoin: miter"/>
   </g>
   <g id="text_7">
    <!-- Video -->
    <g transform="translate(614.957484 253.044422) scale(0.09 -0.09)">
     <use xlink:href="#DejaVuSerif-Bold-56"/>
     <use xlink:href="#DejaVuSerif-Bold-69" transform="translate(75.837891 0)"/>
     <use xlink:href="#DejaVuSerif-Bold-64" transform="translate(113.826172 0)"/>
     <use xlink:href="#DejaVuSerif-Bold-65" transform="translate(183.748047 0)"/>
     <use xlink:href="#DejaVuSerif-Bold-6f" transform="translate(247.371094 0)"/>
    </g>
    <!-- Frame -->
    <g transform="translate(613.063266 263.122453) scale(0.09 -0.09)">
     <use xlink:href="#DejaVuSerif-Bold-46"/>
     <use xlink:href="#DejaVuSerif-Bold-72" transform="translate(69.246094 0)"/>
     <use xlink:href="#DejaVuSerif-Bold-61" transform="translate(121.931641 0)"/>
     <use xlink:href="#DejaVuSerif-Bold-6d" transform="translate(186.726562 0)"/>
     <use xlink:href="#DejaVuSerif-Bold-65" transform="translate(292.537109 0)"/>
    </g>
   </g>
   <g id="patch_17">
    <path d="M 672.955398 255.6 
Q 674.543742 255.6 673.896018 255.6 
" style="fill: none; stroke: #1a5276; stroke-width: 2; stroke-linecap: round"/>
    <path d="M 669.496018 253.4 
L 673.896018 255.6 
L 669.496018 257.8 
" style="fill: none; stroke: #1a5276; stroke-width: 2; stroke-linecap: round"/>
   </g>
   <g id="text_8">
    <!-- Detection -->
    <g transform="translate(695.486475 258.083437) scale(0.09 -0.09)">
     <use xlink:href="#DejaVuSerif-Bold-44"/>
     <use xlink:href="#DejaVuSerif-Bold-65" transform="translate(86.71875 0)"/>
     <use xlink:href="#DejaVuSerif-Bold-74" transform="translate(150.341797 0)"/>
     <use xlink:href="#DejaVuSerif-Bold-65" transform="translate(196.533203 0)"/>
     <use xlink:href="#DejaVuSerif-Bold-63" transform="translate(260.15625 0)"/>
     <use xlink:href="#DejaVuSerif-Bold-74" transform="translate(321.044922 0)"/>
     <use xlink:href="#DejaVuSerif-Bold-69" transform="translate(367.236328 0)"/>
     <use xlink:href="#DejaVuSerif-Bold-6f" transform="translate(405.224609 0)"/>
     <use xlink:href="#DejaVuSerif-Bold-6e" transform="translate(471.923828 0)"/>
    </g>
   </g>
   <g id="patch_18">
    <path d="M 763.858998 255.6 
Q 765.447342 255.6 764.799618 255.6 
" style="fill: none; stroke: #1a5276; stroke-width: 2; stroke-linecap: round"/>
    <path d="M 760.399618 253.4 
L 764.799618 255.6 
L 760.399618 257.8 
" style="fill: none; stroke: #1a5276; stroke-width: 2; stroke-linecap: round"/>
   </g>
   <g id="text_9">
    <!-- Tracking -->
    <g transform="translate(788.603512 258.019453) scale(0.09 -0.09)">
     <defs>
      <path id="DejaVuSerif-Bold-54" d="M 1159 0 
L 1159 378 
L 1778 378 
L 1778 4238 
L 500 4238 
L 500 3500 
L 72 3500 
L 72 4666 
L 4697 4666 
L 4697 3500 
L 4275 3500 
L 4275 4238 
L 2988 4238 
L 2988 378 
L 3609 378 
L 3609 0 
L 1159 0 
z
" transform="scale(0.015625)"/>
      <path id="DejaVuSerif-Bold-6b" d="M 2216 0 
L 219 0 
L 219 378 
L 691 378 
L 691 4488 
L 219 4488 
L 219 4863 
L 1797 4863 
L 1797 1741 
L 3138 2944 
L 2741 2944 
L 2741 3322 
L 4256 3322 
L 4256 2944 
L 3641 2944 
L 2784 2175 
L 4184 378 
L 4544 378 
L 4544 0 
L 2638 0 
L 2638 378 
L 3028 378 
L 2106 1563 
L 1797 1288 
L 1797 378 
L 2216 378 
L 2216 0 
z
" transform="scale(0.015625)"/>
      <path id="DejaVuSerif-Bold-67" d="M 3853 2944 
L 3853 44 
Q 3853 -656 3354 -1039 
Q 2856 -1422 1947 -1422 
Q 1616 -1422 1275 -1370 
Q 934 -1319 575 -1216 
L 575 -422 
L 928 -422 
Q 975 -750 1192 -909 
Q 1409 -1069 1813 -1069 
Q 2325 -1069 2536 -823 
Q 2747 -578 2747 44 
L 2747 422 
Q 2606 163 2367 36 
Q 2128 -91 1778 -91 
Q 1072 -91 667 378 
Q 263 847 263 1663 
Q 263 2481 667 2947 
Q 1072 3413 1778 3413 
Q 2128 3413 2367 3286 
Q 2606 3159 2747 2900 
L 2747 3322 
L 4325 3322 
L 4325 2944 
L 3853 2944 
z
M 2747 1825 
Q 2747 2406 2597 2665 
Q 2447 2925 2119 2925 
Q 1775 2925 1636 2651 
Q 1497 2378 1497 1663 
Q 1497 947 1637 672 
Q 1778 397 2119 397 
Q 2447 397 2597 656 
Q 2747 916 2747 1497 
L 2747 1825 
z
" transform="scale(0.015625)"/>
     </defs>
     <use xlink:href="#DejaVuSerif-Bold-54"/>
     <use xlink:href="#DejaVuSerif-Bold-72" transform="translate(67.164062 0)"/>
     <use xlink:href="#DejaVuSerif-Bold-61" transform="translate(119.849609 0)"/>
     <use xlink:href="#DejaVuSerif-Bold-63" transform="translate(184.644531 0)"/>
     <use xlink:href="#DejaVuSerif-Bold-6b" transform="translate(245.533203 0)"/>
     <use xlink:href="#DejaVuSerif-Bold-69" transform="translate(314.820312 0)"/>
     <use xlink:href="#DejaVuSerif-Bold-6e" transform="translate(352.808594 0)"/>
     <use xlink:href="#DejaVuSerif-Bold-67" transform="translate(425.513672 0)"/>
    </g>
   </g>
   <g id="patch_19">
    <path d="M 854.762598 255.6 
Q 856.350942 255.6 855.703218 255.6 
" style="fill: none; stroke: #1a5276; stroke-width: 2; stroke-linecap: round"/>
    <path d="M 851.303218 253.4 
L 855.703218 255.6 
L 851.303218 257.8 
" style="fill: none; stroke: #1a5276; stroke-width: 2; stroke-linecap: round"/>
   </g>
   <g id="text_10">
    <!-- Homography -->
    <g transform="translate(869.318831 258.019453) scale(0.09 -0.09)">
     <defs>
      <path id="DejaVuSerif-Bold-48" d="M 300 0 
L 300 378 
L 897 378 
L 897 4288 
L 300 4288 
L 300 4666 
L 2700 4666 
L 2700 4288 
L 2100 4288 
L 2100 2719 
L 3956 2719 
L 3956 4288 
L 3359 4288 
L 3359 4666 
L 5759 4666 
L 5759 4288 
L 5159 4288 
L 5159 378 
L 5759 378 
L 5759 0 
L 3359 0 
L 3359 378 
L 3956 378 
L 3956 2291 
L 2100 2291 
L 2100 378 
L 2700 378 
L 2700 0 
L 300 0 
z
" transform="scale(0.015625)"/>
      <path id="DejaVuSerif-Bold-68" d="M 219 0 
L 219 378 
L 691 378 
L 691 4488 
L 197 4488 
L 197 4863 
L 1797 4863 
L 1797 2853 
Q 1997 3150 2253 3281 
Q 2509 3413 2900 3413 
Q 3459 3413 3745 3083 
Q 4031 2753 4031 2113 
L 4031 378 
L 4506 378 
L 4506 0 
L 2522 0 
L 2522 378 
L 2925 378 
L 2925 2144 
Q 2925 2566 2817 2730 
Q 2709 2894 2444 2894 
Q 2109 2894 1953 2648 
Q 1797 2403 1797 1869 
L 1797 378 
L 2203 378 
L 2203 0 
L 219 0 
z
" transform="scale(0.015625)"/>
      <path id="DejaVuSerif-Bold-79" d="M 1997 -750 
Q 1847 -1116 1634 -1269 
Q 1422 -1422 1063 -1422 
Q 909 -1422 721 -1387 
Q 534 -1353 313 -1288 
L 313 -594 
L 666 -597 
Q 675 -838 779 -953 
Q 884 -1069 1094 -1069 
Q 1297 -1069 1422 -958 
Q 1547 -847 1672 -538 
L 1722 -422 
L 275 2944 
L -84 2944 
L -84 3322 
L 1831 3322 
L 1831 2944 
L 1434 2944 
L 2278 978 
L 3066 2944 
L 2625 2944 
L 2625 3322 
L 3872 3322 
L 3872 2944 
L 3469 2944 
L 1997 -750 
z
" transform="scale(0.015625)"/>
     </defs>
     <use xlink:href="#DejaVuSerif-Bold-48"/>
     <use xlink:href="#DejaVuSerif-Bold-6f" transform="translate(94.482422 0)"/>
     <use xlink:href="#DejaVuSerif-Bold-6d" transform="translate(161.181641 0)"/>
     <use xlink:href="#DejaVuSerif-Bold-6f" transform="translate(266.992188 0)"/>
     <use xlink:href="#DejaVuSerif-Bold-67" transform="translate(333.691406 0)"/>
     <use xlink:href="#DejaVuSerif-Bold-72" transform="translate(403.613281 0)"/>
     <use xlink:href="#DejaVuSerif-Bold-61" transform="translate(456.298828 0)"/>
     <use xlink:href="#DejaVuSerif-Bold-70" transform="translate(521.09375 0)"/>
     <use xlink:href="#DejaVuSerif-Bold-68" transform="translate(591.015625 0)"/>
     <use xlink:href="#DejaVuSerif-Bold-79" transform="translate(663.720703 0)"/>
    </g>
   </g>
   <g id="patch_20">
    <path d="M 945.666198 255.6 
Q 947.254542 255.6 946.606818 255.6 
" style="fill: none; stroke: #1a5276; stroke-width: 2; stroke-linecap: round"/>
    <path d="M 942.206818 253.4 
L 946.606818 255.6 
L 942.206818 257.8 
" style="fill: none; stroke: #1a5276; stroke-width: 2; stroke-linecap: round"/>
   </g>
   <g id="text_11">
    <!-- World -->
    <g transform="translate(977.788603 253.044422) scale(0.09 -0.09)">
     <defs>
      <path id="DejaVuSerif-Bold-57" d="M 5453 0 
L 4647 0 
L 3591 3397 
L 2534 0 
L 1728 0 
L 397 4288 
L -56 4288 
L -56 4666 
L 2156 4666 
L 2156 4288 
L 1656 4288 
L 2547 1422 
L 3553 4666 
L 4441 4666 
L 5466 1369 
L 6375 4288 
L 5819 4288 
L 5819 4666 
L 7263 4666 
L 7263 4288 
L 6784 4288 
L 5453 0 
z
" transform="scale(0.015625)"/>
     </defs>
     <use xlink:href="#DejaVuSerif-Bold-57"/>
     <use xlink:href="#DejaVuSerif-Bold-6f" transform="translate(104.179688 0)"/>
     <use xlink:href="#DejaVuSerif-Bold-72" transform="translate(170.878906 0)"/>
     <use xlink:href="#DejaVuSerif-Bold-6c" transform="translate(223.564453 0)"/>
     <use xlink:href="#DejaVuSerif-Bold-64" transform="translate(261.552734 0)"/>
    </g>
    <!-- Coords -->
    <g transform="translate(975.069619 263.122453) scale(0.09 -0.09)">
     <use xlink:href="#DejaVuSerif-Bold-43"/>
     <use xlink:href="#DejaVuSerif-Bold-6f" transform="translate(79.589844 0)"/>
     <use xlink:href="#DejaVuSerif-Bold-6f" transform="translate(146.289062 0)"/>
     <use xlink:href="#DejaVuSerif-Bold-72" transform="translate(212.988281 0)"/>
     <use xlink:href="#DejaVuSerif-Bold-64" transform="translate(265.673828 0)"/>
     <use xlink:href="#DejaVuSerif-Bold-73" transform="translate(335.595703 0)"/>
    </g>
   </g>
   <g id="patch_21">
    <path d="M 1036.569798 255.6 
Q 1038.158142 255.6 1037.510418 255.6 
" style="fill: none; stroke: #1a5276; stroke-width: 2; stroke-linecap: round"/>
    <path d="M 1033.110418 253.4 
L 1037.510418 255.6 
L 1033.110418 257.8 
" style="fill: none; stroke: #1a5276; stroke-width: 2; stroke-linecap: round"/>
   </g>
   <g id="text_12">
    <!-- Speed + -->
    <g transform="translate(1063.002516 252.980437) scale(0.09 -0.09)">
     <defs>
      <path id="DejaVuSerif-Bold-20" transform="scale(0.015625)"/>
      <path id="DejaVuSerif-Bold-2b" d="M 3041 4013 
L 3041 2369 
L 4684 2369 
L 4684 1650 
L 3041 1650 
L 3041 6 
L 2322 6 
L 2322 1650 
L 678 1650 
L 678 2369 
L 2322 2369 
L 2322 4013 
L 3041 4013 
z
" transform="scale(0.015625)"/>
     </defs>
     <use xlink:href="#DejaVuSerif-Bold-53"/>
     <use xlink:href="#DejaVuSerif-Bold-70" transform="translate(72.216797 0)"/>
     <use xlink:href="#DejaVuSerif-Bold-65" transform="translate(142.138672 0)"/>
     <use xlink:href="#DejaVuSerif-Bold-65" transform="translate(205.761719 0)"/>
     <use xlink:href="#DejaVuSerif-Bold-64" transform="translate(269.384766 0)"/>
     <use xlink:href="#DejaVuSerif-Bold-20" transform="translate(339.306641 0)"/>
     <use xlink:href="#DejaVuSerif-Bold-2b" transform="translate(374.121094 0)"/>
    </g>
    <!-- Angle -->
    <g transform="translate(1069.126734 263.058469) scale(0.09 -0.09)">
     <defs>
      <path id="DejaVuSerif-Bold-41" d="M -50 0 
L -50 378 
L 331 378 
L 2088 4666 
L 2834 4666 
L 4594 378 
L 5038 378 
L 5038 0 
L 2853 0 
L 2853 378 
L 3309 378 
L 2925 1331 
L 1172 1331 
L 781 378 
L 1338 378 
L 1338 0 
L -50 0 
z
M 1325 1709 
L 2772 1709 
L 2053 3494 
L 1325 1709 
z
" transform="scale(0.015625)"/>
     </defs>
     <use xlink:href="#DejaVuSerif-Bold-41"/>
     <use xlink:href="#DejaVuSerif-Bold-6e" transform="translate(77.587891 0)"/>
     <use xlink:href="#DejaVuSerif-Bold-67" transform="translate(150.292969 0)"/>
     <use xlink:href="#DejaVuSerif-Bold-6c" transform="translate(220.214844 0)"/>
     <use xlink:href="#DejaVuSerif-Bold-65" transform="translate(258.203125 0)"/>
    </g>
   </g>
   <g id="text_13">
    <!-- Homography-Based (Ours) -->
    <g style="fill: #27ae60" transform="translate(758.802266 115.454766) scale(0.13 -0.13)">
     <defs>
      <path id="DejaVuSerif-Bold-4f" d="M 2784 288 
Q 3381 288 3672 791 
Q 3963 1294 3963 2328 
Q 3963 3366 3672 3869 
Q 3381 4372 2784 4372 
Q 2191 4372 1898 3864 
Q 1606 3356 1606 2328 
Q 1606 1303 1898 795 
Q 2191 288 2784 288 
z
M 2784 -91 
Q 1606 -91 937 553 
Q 269 1197 269 2328 
Q 269 3459 939 4104 
Q 1609 4750 2784 4750 
Q 3963 4750 4631 4106 
Q 5300 3463 5300 2328 
Q 5300 1197 4629 553 
Q 3959 -91 2784 -91 
z
" transform="scale(0.015625)"/>
      <path id="DejaVuSerif-Bold-75" d="M 3963 3322 
L 3963 378 
L 4434 378 
L 4434 0 
L 2853 0 
L 2853 469 
Q 2656 172 2400 40 
Q 2144 -91 1753 -91 
Q 1194 -91 908 239 
Q 622 569 622 1209 
L 622 2944 
L 147 2944 
L 147 3322 
L 1728 3322 
L 1728 1381 
Q 1728 763 1831 595 
Q 1934 428 2209 428 
Q 2544 428 2698 675 
Q 2853 922 2853 1459 
L 2853 2944 
L 2450 2944 
L 2450 3322 
L 3963 3322 
z
" transform="scale(0.015625)"/>
     </defs>
     <use xlink:href="#DejaVuSerif-Bold-48"/>
     <use xlink:href="#DejaVuSerif-Bold-6f" transform="translate(94.482422 0)"/>
     <use xlink:href="#DejaVuSerif-Bold-6d" transform="translate(161.181641 0)"/>
     <use xlink:href="#DejaVuSerif-Bold-6f" transform="translate(266.992188 0)"/>
     <use xlink:href="#DejaVuSerif-Bold-67" transform="translate(333.691406 0)"/>
     <use xlink:href="#DejaVuSerif-Bold-72" transform="translate(403.613281 0)"/>
     <use xlink:href="#DejaVuSerif-Bold-61" transform="translate(456.298828 0)"/>
     <use xlink:href="#DejaVuSerif-Bold-70" transform="translate(521.09375 0)"/>
     <use xlink:href="#DejaVuSerif-Bold-68" transform="translate(591.015625 0)"/>
     <use xlink:href="#DejaVuSerif-Bold-79" transform="translate(663.720703 0)"/>
     <use xlink:href="#DejaVuSerif-Bold-2d" transform="translate(721.826172 0)"/>
     <use xlink:href="#DejaVuSerif-Bold-42" transform="translate(763.330078 0)"/>
     <use xlink:href="#DejaVuSerif-Bold-61" transform="translate(847.851562 0)"/>
     <use xlink:href="#DejaVuSerif-Bold-73" transform="translate(912.646484 0)"/>
     <use xlink:href="#DejaVuSerif-Bold-65" transform="translate(968.945312 0)"/>
     <use xlink:href="#DejaVuSerif-Bold-64" transform="translate(1032.568359 0)"/>
     <use xlink:href="#DejaVuSerif-Bold-20" transform="translate(1102.490234 0)"/>
     <use xlink:href="#DejaVuSerif-Bold-28" transform="translate(1137.304688 0)"/>
     <use xlink:href="#DejaVuSerif-Bold-4f" transform="translate(1184.619141 0)"/>
     <use xlink:href="#DejaVuSerif-Bold-75" transform="translate(1271.728516 0)"/>
     <use xlink:href="#DejaVuSerif-Bold-72" transform="translate(1344.433594 0)"/>
     <use xlink:href="#DejaVuSerif-Bold-73" transform="translate(1397.119141 0)"/>
     <use xlink:href="#DejaVuSerif-Bold-29" transform="translate(1453.417969 0)"/>
    </g>
   </g>
   <g id="text_14">
    <g id="patch_22">
     <path d="M 772.114922 407.862969 
L 940.585078 407.862969 
Q 943.885078 407.862969 943.885078 404.562969 
L 943.885078 393.917031 
Q 943.885078 390.617031 940.585078 390.617031 
L 772.114922 390.617031 
Q 768.814922 390.617031 768.814922 393.917031 
L 768.814922 404.562969 
Q 768.814922 407.862969 772.114922 407.862969 
z
" style="fill: #d5f5e3; stroke: #27ae60; stroke-width: 2; stroke-linejoin: miter"/>
    </g>
    <!-- *** Our Implementation *** -->
    <g style="fill: #27ae60" transform="translate(772.114922 402.275312) scale(0.11 -0.11)">
     <defs>
      <path id="DejaVuSerif-Bold-2a" d="M 3206 3788 
L 2081 3263 
L 3206 2731 
L 2900 2247 
L 1875 2994 
L 1959 1778 
L 1388 1778 
L 1472 2994 
L 447 2247 
L 141 2731 
L 1269 3263 
L 141 3788 
L 447 4281 
L 1472 3525 
L 1388 4750 
L 1959 4750 
L 1875 3525 
L 2900 4281 
L 3206 3788 
z
" transform="scale(0.015625)"/>
      <path id="DejaVuSerif-Bold-49" d="M 300 0 
L 300 378 
L 897 378 
L 897 4288 
L 300 4288 
L 300 4666 
L 2700 4666 
L 2700 4288 
L 2100 4288 
L 2100 378 
L 2700 378 
L 2700 0 
L 300 0 
z
" transform="scale(0.015625)"/>
     </defs>
     <use xlink:href="#DejaVuSerif-Bold-2a"/>
     <use xlink:href="#DejaVuSerif-Bold-2a" transform="translate(52.294922 0)"/>
     <use xlink:href="#DejaVuSerif-Bold-2a" transform="translate(104.589844 0)"/>
     <use xlink:href="#DejaVuSerif-Bold-20" transform="translate(156.884766 0)"/>
     <use xlink:href="#DejaVuSerif-Bold-4f" transform="translate(191.699219 0)"/>
     <use xlink:href="#DejaVuSerif-Bold-75" transform="translate(278.808594 0)"/>
     <use xlink:href="#DejaVuSerif-Bold-72" transform="translate(351.513672 0)"/>
     <use xlink:href="#DejaVuSerif-Bold-20" transform="translate(404.199219 0)"/>
     <use xlink:href="#DejaVuSerif-Bold-49" transform="translate(439.013672 0)"/>
     <use xlink:href="#DejaVuSerif-Bold-6d" transform="translate(485.791016 0)"/>
     <use xlink:href="#DejaVuSerif-Bold-70" transform="translate(591.601562 0)"/>
     <use xlink:href="#DejaVuSerif-Bold-6c" transform="translate(661.523438 0)"/>
     <use xlink:href="#DejaVuSerif-Bold-65" transform="translate(699.511719 0)"/>
     <use xlink:href="#DejaVuSerif-Bold-6d" transform="translate(763.134766 0)"/>
     <use xlink:href="#DejaVuSerif-Bold-65" transform="translate(868.945312 0)"/>
     <use xlink:href="#DejaVuSerif-Bold-6e" transform="translate(932.568359 0)"/>
     <use xlink:href="#DejaVuSerif-Bold-74" transform="translate(1005.273438 0)"/>
     <use xlink:href="#DejaVuSerif-Bold-61" transform="translate(1051.464844 0)"/>
     <use xlink:href="#DejaVuSerif-Bold-74" transform="translate(1116.259766 0)"/>
     <use xlink:href="#DejaVuSerif-Bold-69" transform="translate(1162.451172 0)"/>
     <use xlink:href="#DejaVuSerif-Bold-6f" transform="translate(1200.439453 0)"/>
     <use xlink:href="#DejaVuSerif-Bold-6e" transform="translate(1267.138672 0)"/>
     <use xlink:href="#DejaVuSerif-Bold-20" transform="translate(1339.84375 0)"/>
     <use xlink:href="#DejaVuSerif-Bold-2a" transform="translate(1374.658203 0)"/>
     <use xlink:href="#DejaVuSerif-Bold-2a" transform="translate(1426.953125 0)"/>
     <use xlink:href="#DejaVuSerif-Bold-2a" transform="translate(1479.248047 0)"/>
    </g>
   </g>
  </g>
  <g id="axes_3">
   <g id="patch_23">
    <path d="M 37.8999 703.188 
L 110.4633 703.188 
Q 116.0451 703.188 116.0451 693.612 
L 116.0451 607.428 
Q 116.0451 597.852 110.4633 597.852 
L 37.8999 597.852 
Q 32.3181 597.852 32.3181 607.428 
L 32.3181 693.612 
Q 32.3181 703.188 37.8999 703.188 
z
" clip-path="url(#pd84f73cd58)" style="fill: #aed6f1; stroke: #000000; stroke-width: 1.5; stroke-linejoin: miter"/>
   </g>
   <g id="patch_24">
    <path d="M 143.9541 703.188 
L 216.5175 703.188 
Q 222.0993 703.188 222.0993 693.612 
L 222.0993 607.428 
Q 222.0993 597.852 216.5175 597.852 
L 143.9541 597.852 
Q 138.3723 597.852 138.3723 607.428 
L 138.3723 693.612 
Q 138.3723 703.188 143.9541 703.188 
z
" clip-path="url(#pd84f73cd58)" style="fill: #f9e79f; stroke: #000000; stroke-width: 1.5; stroke-linejoin: miter"/>
   </g>
   <g id="patch_25">
    <path d="M 250.0083 703.188 
L 322.5717 703.188 
Q 328.1535 703.188 328.1535 693.612 
L 328.1535 607.428 
Q 328.1535 597.852 322.5717 597.852 
L 250.0083 597.852 
Q 244.4265 597.852 244.4265 607.428 
L 244.4265 693.612 
Q 244.4265 703.188 250.0083 703.188 
z
" clip-path="url(#pd84f73cd58)" style="fill: #f9e79f; stroke: #000000; stroke-width: 1.5; stroke-linejoin: miter"/>
   </g>
   <g id="patch_26">
    <path d="M 356.0625 703.188 
L 428.6259 703.188 
Q 434.2077 703.188 434.2077 693.612 
L 434.2077 607.428 
Q 434.2077 597.852 428.6259 597.852 
L 356.0625 597.852 
Q 350.4807 597.852 350.4807 607.428 
L 350.4807 693.612 
Q 350.4807 703.188 356.0625 703.188 
z
" clip-path="url(#pd84f73cd58)" style="fill: #f9e79f; stroke: #000000; stroke-width: 1.5; stroke-linejoin: miter"/>
   </g>
   <g id="patch_27">
    <path d="M 462.1167 703.188 
L 534.6801 703.188 
Q 540.2619 703.188 540.2619 693.612 
L 540.2619 607.428 
Q 540.2619 597.852 534.6801 597.852 
L 462.1167 597.852 
Q 456.5349 597.852 456.5349 607.428 
L 456.5349 693.612 
Q 456.5349 703.188 462.1167 703.188 
z
" clip-path="url(#pd84f73cd58)" style="fill: #d7bde2; stroke: #000000; stroke-width: 1.5; stroke-linejoin: miter"/>
   </g>
   <g id="text_15">
    <!-- Video -->
    <g transform="translate(60.048084 647.964422) scale(0.09 -0.09)">
     <use xlink:href="#DejaVuSerif-Bold-56"/>
     <use xlink:href="#DejaVuSerif-Bold-69" transform="translate(75.837891 0)"/>
     <use xlink:href="#DejaVuSerif-Bold-64" transform="translate(113.826172 0)"/>
     <use xlink:href="#DejaVuSerif-Bold-65" transform="translate(183.748047 0)"/>
     <use xlink:href="#DejaVuSerif-Bold-6f" transform="translate(247.371094 0)"/>
    </g>
    <!-- Frame -->
    <g transform="translate(58.153866 658.042453) scale(0.09 -0.09)">
     <use xlink:href="#DejaVuSerif-Bold-46"/>
     <use xlink:href="#DejaVuSerif-Bold-72" transform="translate(69.246094 0)"/>
     <use xlink:href="#DejaVuSerif-Bold-61" transform="translate(121.931641 0)"/>
     <use xlink:href="#DejaVuSerif-Bold-6d" transform="translate(186.726562 0)"/>
     <use xlink:href="#DejaVuSerif-Bold-65" transform="translate(292.537109 0)"/>
    </g>
   </g>
   <g id="patch_28">
    <path d="M 118.042883 650.52 
Q 127.207499 650.52 134.136048 650.52 
" style="fill: none; stroke: #1a5276; stroke-width: 2; stroke-linecap: round"/>
    <path d="M 129.736048 648.32 
L 134.136048 650.52 
L 129.736048 652.72 
" style="fill: none; stroke: #1a5276; stroke-width: 2; stroke-linecap: round"/>
   </g>
   <g id="text_16">
    <!-- Features -->
    <g transform="translate(158.391816 653.003437) scale(0.09 -0.09)">
     <use xlink:href="#DejaVuSerif-Bold-46"/>
     <use xlink:href="#DejaVuSerif-Bold-65" transform="translate(65.496094 0)"/>
     <use xlink:href="#DejaVuSerif-Bold-61" transform="translate(129.119141 0)"/>
     <use xlink:href="#DejaVuSerif-Bold-74" transform="translate(193.914062 0)"/>
     <use xlink:href="#DejaVuSerif-Bold-75" transform="translate(240.105469 0)"/>
     <use xlink:href="#DejaVuSerif-Bold-72" transform="translate(312.810547 0)"/>
     <use xlink:href="#DejaVuSerif-Bold-65" transform="translate(365.496094 0)"/>
     <use xlink:href="#DejaVuSerif-Bold-73" transform="translate(429.119141 0)"/>
    </g>
   </g>
   <g id="patch_29">
    <path d="M 224.097083 650.52 
Q 233.261699 650.52 240.190248 650.52 
" style="fill: none; stroke: #1a5276; stroke-width: 2; stroke-linecap: round"/>
    <path d="M 235.790248 648.32 
L 240.190248 650.52 
L 235.790248 652.72 
" style="fill: none; stroke: #1a5276; stroke-width: 2; stroke-linecap: round"/>
   </g>
   <g id="text_17">
    <!-- Optical -->
    <g transform="translate(268.070625 647.964422) scale(0.09 -0.09)">
     <use xlink:href="#DejaVuSerif-Bold-4f"/>
     <use xlink:href="#DejaVuSerif-Bold-70" transform="translate(87.109375 0)"/>
     <use xlink:href="#DejaVuSerif-Bold-74" transform="translate(157.03125 0)"/>
     <use xlink:href="#DejaVuSerif-Bold-69" transform="translate(203.222656 0)"/>
     <use xlink:href="#DejaVuSerif-Bold-63" transform="translate(241.210938 0)"/>
     <use xlink:href="#DejaVuSerif-Bold-61" transform="translate(302.099609 0)"/>
     <use xlink:href="#DejaVuSerif-Bold-6c" transform="translate(366.894531 0)"/>
    </g>
    <!-- Flow -->
    <g transform="translate(274.510547 658.042453) scale(0.09 -0.09)">
     <defs>
      <path id="DejaVuSerif-Bold-77" d="M 3450 3322 
L 4206 1106 
L 4831 2944 
L 4397 2944 
L 4397 3322 
L 5638 3322 
L 5638 2944 
L 5247 2944 
L 4244 0 
L 3481 0 
L 2778 2081 
L 2069 0 
L 1313 0 
L 306 2944 
L -56 2944 
L -56 3322 
L 1825 3322 
L 1825 2944 
L 1434 2944 
L 2047 1147 
L 2791 3322 
L 3450 3322 
z
" transform="scale(0.015625)"/>
     </defs>
     <use xlink:href="#DejaVuSerif-Bold-46"/>
     <use xlink:href="#DejaVuSerif-Bold-6c" transform="translate(70.996094 0)"/>
     <use xlink:href="#DejaVuSerif-Bold-6f" transform="translate(108.984375 0)"/>
     <use xlink:href="#DejaVuSerif-Bold-77" transform="translate(175.683594 0)"/>
    </g>
   </g>
   <g id="patch_30">
    <path d="M 330.151283 650.52 
Q 339.315899 650.52 346.244448 650.52 
" style="fill: none; stroke: #1a5276; stroke-width: 2; stroke-linecap: round"/>
    <path d="M 341.844448 648.32 
L 346.244448 650.52 
L 341.844448 652.72 
" style="fill: none; stroke: #1a5276; stroke-width: 2; stroke-linecap: round"/>
   </g>
   <g id="text_18">
    <!-- Motion -->
    <g transform="translate(374.300606 647.964422) scale(0.09 -0.09)">
     <defs>
      <path id="DejaVuSerif-Bold-4d" d="M 269 0 
L 269 378 
L 863 378 
L 863 4288 
L 269 4288 
L 269 4666 
L 2194 4666 
L 3525 1672 
L 4863 4666 
L 6784 4666 
L 6784 4288 
L 6188 4288 
L 6188 378 
L 6784 378 
L 6784 0 
L 4384 0 
L 4384 378 
L 4978 378 
L 4978 3938 
L 3531 684 
L 2741 684 
L 1300 3938 
L 1300 378 
L 1894 378 
L 1894 0 
L 269 0 
z
" transform="scale(0.015625)"/>
     </defs>
     <use xlink:href="#DejaVuSerif-Bold-4d"/>
     <use xlink:href="#DejaVuSerif-Bold-6f" transform="translate(110.693359 0)"/>
     <use xlink:href="#DejaVuSerif-Bold-74" transform="translate(177.392578 0)"/>
     <use xlink:href="#DejaVuSerif-Bold-69" transform="translate(223.583984 0)"/>
     <use xlink:href="#DejaVuSerif-Bold-6f" transform="translate(261.572266 0)"/>
     <use xlink:href="#DejaVuSerif-Bold-6e" transform="translate(328.271484 0)"/>
    </g>
    <!-- Vectors -->
    <g transform="translate(373.675528 658.042453) scale(0.09 -0.09)">
     <use xlink:href="#DejaVuSerif-Bold-56"/>
     <use xlink:href="#DejaVuSerif-Bold-65" transform="translate(68.462891 0)"/>
     <use xlink:href="#DejaVuSerif-Bold-63" transform="translate(132.085938 0)"/>
     <use xlink:href="#DejaVuSerif-Bold-74" transform="translate(192.974609 0)"/>
     <use xlink:href="#DejaVuSerif-Bold-6f" transform="translate(239.166016 0)"/>
     <use xlink:href="#DejaVuSerif-Bold-72" transform="translate(305.865234 0)"/>
     <use xlink:href="#DejaVuSerif-Bold-73" transform="translate(358.550781 0)"/>
    </g>
   </g>
   <g id="patch_31">
    <path d="M 436.205483 650.52 
Q 445.370099 650.52 452.298648 650.52 
" style="fill: none; stroke: #1a5276; stroke-width: 2; stroke-linecap: round"/>
    <path d="M 447.898648 648.32 
L 452.298648 650.52 
L 447.898648 652.72 
" style="fill: none; stroke: #1a5276; stroke-width: 2; stroke-linecap: round"/>
   </g>
   <g id="text_19">
    <!-- Speed -->
    <g transform="translate(483.129337 653.003437) scale(0.09 -0.09)">
     <use xlink:href="#DejaVuSerif-Bold-53"/>
     <use xlink:href="#DejaVuSerif-Bold-70" transform="translate(72.216797 0)"/>
     <use xlink:href="#DejaVuSerif-Bold-65" transform="translate(142.138672 0)"/>
     <use xlink:href="#DejaVuSerif-Bold-65" transform="translate(205.761719 0)"/>
     <use xlink:href="#DejaVuSerif-Bold-64" transform="translate(269.384766 0)"/>
    </g>
   </g>
   <g id="text_20">
    <!-- Optical Flow -->
    <g transform="translate(240.695547 510.467187) scale(0.13 -0.13)">
     <use xlink:href="#DejaVuSerif-Bold-4f"/>
     <use xlink:href="#DejaVuSerif-Bold-70" transform="translate(87.109375 0)"/>
     <use xlink:href="#DejaVuSerif-Bold-74" transform="translate(157.03125 0)"/>
     <use xlink:href="#DejaVuSerif-Bold-69" transform="translate(203.222656 0)"/>
     <use xlink:href="#DejaVuSerif-Bold-63" transform="translate(241.210938 0)"/>
     <use xlink:href="#DejaVuSerif-Bold-61" transform="translate(302.099609 0)"/>
     <use xlink:href="#DejaVuSerif-Bold-6c" transform="translate(366.894531 0)"/>
     <use xlink:href="#DejaVuSerif-Bold-20" transform="translate(404.882812 0)"/>
     <use xlink:href="#DejaVuSerif-Bold-46" transform="translate(439.697266 0)"/>
     <use xlink:href="#DejaVuSerif-Bold-6c" transform="translate(510.693359 0)"/>
     <use xlink:href="#DejaVuSerif-Bold-6f" transform="translate(548.681641 0)"/>
     <use xlink:href="#DejaVuSerif-Bold-77" transform="translate(615.380859 0)"/>
    </g>
   </g>
  </g>
  <g id="axes_4">
   <g id="patch_32">
    <path d="M 660.987 703.188 
L 733.5504 703.188 
Q 739.1322 703.188 739.1322 693.612 
L 739.1322 607.428 
Q 739.1322 597.852 733.5504 597.852 
L 660.987 597.852 
Q 655.4052 597.852 655.4052 607.428 
L 655.4052 693.612 
Q 655.4052 703.188 660.987 703.188 
z
" clip-path="url(#p70a7cb6995)" style="fill: #aed6f1; stroke: #000000; stroke-width: 1.5; stroke-linejoin: miter"/>
   </g>
   <g id="patch_33">
    <path d="M 820.0683 703.188 
L 892.6317 703.188 
Q 898.2135 703.188 898.2135 693.612 
L 898.2135 607.428 
Q 898.2135 597.852 892.6317 597.852 
L 820.0683 597.852 
Q 814.4865 597.852 814.4865 607.428 
L 814.4865 693.612 
Q 814.4865 703.188 820.0683 703.188 
z
" clip-path="url(#p70a7cb6995)" style="fill: #f9e79f; stroke: #000000; stroke-width: 1.5; stroke-linejoin: miter"/>
   </g>
   <g id="patch_34">
    <path d="M 979.1496 703.188 
L 1051.713 703.188 
Q 1057.2948 703.188 1057.2948 693.612 
L 1057.2948 607.428 
Q 1057.2948 597.852 1051.713 597.852 
L 979.1496 597.852 
Q 973.5678 597.852 973.5678 607.428 
L 973.5678 693.612 
Q 973.5678 703.188 979.1496 703.188 
z
" clip-path="url(#p70a7cb6995)" style="fill: #d7bde2; stroke: #000000; stroke-width: 1.5; stroke-linejoin: miter"/>
   </g>
   <g id="text_21">
    <!-- Video -->
    <g transform="translate(683.135184 647.964422) scale(0.09 -0.09)">
     <use xlink:href="#DejaVuSerif-Bold-56"/>
     <use xlink:href="#DejaVuSerif-Bold-69" transform="translate(75.837891 0)"/>
     <use xlink:href="#DejaVuSerif-Bold-64" transform="translate(113.826172 0)"/>
     <use xlink:href="#DejaVuSerif-Bold-65" transform="translate(183.748047 0)"/>
     <use xlink:href="#DejaVuSerif-Bold-6f" transform="translate(247.371094 0)"/>
    </g>
    <!-- Sequence -->
    <g transform="translate(672.999637 658.042453) scale(0.09 -0.09)">
     <defs>
      <path id="DejaVuSerif-Bold-71" d="M 3853 2944 
L 3853 -953 
L 4325 -953 
L 4325 -1331 
L 2234 -1331 
L 2234 -953 
L 2747 -953 
L 2747 422 
Q 2606 163 2367 36 
Q 2128 -91 1778 -91 
Q 1072 -91 667 378 
Q 263 847 263 1663 
Q 263 2481 667 2947 
Q 1072 3413 1778 3413 
Q 2128 3413 2367 3286 
Q 2606 3159 2747 2900 
L 2747 3322 
L 4325 3322 
L 4325 2944 
L 3853 2944 
z
M 2747 1825 
Q 2747 2406 2597 2665 
Q 2447 2925 2119 2925 
Q 1775 2925 1636 2651 
Q 1497 2378 1497 1663 
Q 1497 947 1637 672 
Q 1778 397 2119 397 
Q 2447 397 2597 656 
Q 2747 916 2747 1497 
L 2747 1825 
z
" transform="scale(0.015625)"/>
     </defs>
     <use xlink:href="#DejaVuSerif-Bold-53"/>
     <use xlink:href="#DejaVuSerif-Bold-65" transform="translate(72.216797 0)"/>
     <use xlink:href="#DejaVuSerif-Bold-71" transform="translate(135.839844 0)"/>
     <use xlink:href="#DejaVuSerif-Bold-75" transform="translate(205.761719 0)"/>
     <use xlink:href="#DejaVuSerif-Bold-65" transform="translate(278.466797 0)"/>
     <use xlink:href="#DejaVuSerif-Bold-6e" transform="translate(342.089844 0)"/>
     <use xlink:href="#DejaVuSerif-Bold-63" transform="translate(414.794922 0)"/>
     <use xlink:href="#DejaVuSerif-Bold-65" transform="translate(475.683594 0)"/>
    </g>
   </g>
   <g id="patch_35">
    <path d="M 741.132879 650.52 
Q 776.809046 650.52 810.249146 650.52 
" style="fill: none; stroke: #1a5276; stroke-width: 2; stroke-linecap: round"/>
    <path d="M 805.849146 648.32 
L 810.249146 650.52 
L 805.849146 652.72 
" style="fill: none; stroke: #1a5276; stroke-width: 2; stroke-linecap: round"/>
   </g>
   <g id="text_22">
    <!-- 3D CNN -->
    <g transform="translate(835.941797 653.003437) scale(0.09 -0.09)">
     <defs>
      <path id="DejaVuSerif-Bold-33" d="M 550 4531 
Q 963 4641 1350 4695 
Q 1738 4750 2106 4750 
Q 2950 4750 3401 4448 
Q 3853 4147 3853 3584 
Q 3853 3163 3593 2900 
Q 3334 2638 2834 2547 
Q 3444 2450 3744 2131 
Q 4044 1813 4044 1259 
Q 4044 606 3526 257 
Q 3009 -91 2028 -91 
Q 1659 -91 1267 -28 
Q 875 34 447 159 
L 447 1184 
L 825 1184 
Q 859 741 1103 508 
Q 1347 275 1778 275 
Q 2253 275 2512 539 
Q 2772 803 2772 1288 
Q 2772 1794 2501 2069 
Q 2231 2344 1734 2344 
L 1528 2344 
L 1528 2719 
L 1691 2719 
Q 2150 2719 2381 2931 
Q 2613 3144 2613 3566 
Q 2613 3963 2395 4173 
Q 2178 4384 1772 4384 
Q 1403 4384 1187 4182 
Q 972 3981 928 3597 
L 550 3597 
L 550 4531 
z
" transform="scale(0.015625)"/>
      <path id="DejaVuSerif-Bold-4e" d="M 281 0 
L 281 378 
L 878 378 
L 878 4288 
L 281 4288 
L 281 4666 
L 1741 4666 
L 4556 1363 
L 4556 4288 
L 3963 4288 
L 3963 4666 
L 5594 4666 
L 5594 4288 
L 4997 4288 
L 4997 0 
L 4178 0 
L 1319 3372 
L 1319 378 
L 1913 378 
L 1913 0 
L 281 0 
z
" transform="scale(0.015625)"/>
     </defs>
     <use xlink:href="#DejaVuSerif-Bold-33"/>
     <use xlink:href="#DejaVuSerif-Bold-44" transform="translate(69.580078 0)"/>
     <use xlink:href="#DejaVuSerif-Bold-20" transform="translate(156.298828 0)"/>
     <use xlink:href="#DejaVuSerif-Bold-43" transform="translate(191.113281 0)"/>
     <use xlink:href="#DejaVuSerif-Bold-4e" transform="translate(270.703125 0)"/>
     <use xlink:href="#DejaVuSerif-Bold-4e" transform="translate(362.109375 0)"/>
    </g>
   </g>
   <g id="patch_36">
    <path d="M 900.214179 650.52 
Q 935.890346 650.52 969.330446 650.52 
" style="fill: none; stroke: #1a5276; stroke-width: 2; stroke-linecap: round"/>
    <path d="M 964.930446 648.32 
L 969.330446 650.52 
L 964.930446 652.72 
" style="fill: none; stroke: #1a5276; stroke-width: 2; stroke-linecap: round"/>
   </g>
   <g id="text_23">
    <!-- Speed -->
    <g transform="translate(1000.162237 647.900437) scale(0.09 -0.09)">
     <use xlink:href="#DejaVuSerif-Bold-53"/>
     <use xlink:href="#DejaVuSerif-Bold-70" transform="translate(72.216797 0)"/>
     <use xlink:href="#DejaVuSerif-Bold-65" transform="translate(142.138672 0)"/>
     <use xlink:href="#DejaVuSerif-Bold-65" transform="translate(205.761719 0)"/>
     <use xlink:href="#DejaVuSerif-Bold-64" transform="translate(269.384766 0)"/>
    </g>
    <!-- Regression -->
    <g transform="translate(987.398409 657.978469) scale(0.09 -0.09)">
     <defs>
      <path id="DejaVuSerif-Bold-52" d="M 3397 2278 
Q 3675 2238 3865 2094 
Q 4056 1950 4197 1678 
L 4878 378 
L 5356 378 
L 5356 0 
L 3822 0 
L 3078 1409 
Q 2863 1847 2711 1967 
Q 2559 2088 2291 2088 
L 2100 2088 
L 2100 378 
L 2700 378 
L 2700 0 
L 300 0 
L 300 378 
L 897 378 
L 897 4288 
L 300 4288 
L 300 4666 
L 2963 4666 
Q 3775 4666 4217 4339 
Q 4659 4013 4659 3413 
Q 4659 2925 4345 2642 
Q 4031 2359 3397 2278 
z
M 2100 2463 
L 2509 2463 
Q 2947 2463 3183 2700 
Q 3419 2938 3419 3378 
Q 3419 3819 3183 4053 
Q 2947 4288 2509 4288 
L 2100 4288 
L 2100 2463 
z
" transform="scale(0.015625)"/>
     </defs>
     <use xlink:href="#DejaVuSerif-Bold-52"/>
     <use xlink:href="#DejaVuSerif-Bold-65" transform="translate(83.105469 0)"/>
     <use xlink:href="#DejaVuSerif-Bold-67" transform="translate(146.728516 0)"/>
     <use xlink:href="#DejaVuSerif-Bold-72" transform="translate(216.650391 0)"/>
     <use xlink:href="#DejaVuSerif-Bold-65" transform="translate(269.335938 0)"/>
     <use xlink:href="#DejaVuSerif-Bold-73" transform="translate(332.958984 0)"/>
     <use xlink:href="#DejaVuSerif-Bold-73" transform="translate(389.257812 0)"/>
     <use xlink:href="#DejaVuSerif-Bold-69" transform="translate(445.556641 0)"/>
     <use xlink:href="#DejaVuSerif-Bold-6f" transform="translate(483.544922 0)"/>
     <use xlink:href="#DejaVuSerif-Bold-6e" transform="translate(550.244141 0)"/>
    </g>
   </g>
   <g id="text_24">
    <!-- Deep Learning -->
    <g transform="translate(802.826562 510.374766) scale(0.13 -0.13)">
     <defs>
      <path id="DejaVuSerif-Bold-4c" d="M 300 0 
L 300 378 
L 897 378 
L 897 4288 
L 300 4288 
L 300 4666 
L 2700 4666 
L 2700 4288 
L 2100 4288 
L 2100 428 
L 3938 428 
L 3938 1166 
L 4359 1166 
L 4359 0 
L 300 0 
z
" transform="scale(0.015625)"/>
     </defs>
     <use xlink:href="#DejaVuSerif-Bold-44"/>
     <use xlink:href="#DejaVuSerif-Bold-65" transform="translate(86.71875 0)"/>
     <use xlink:href="#DejaVuSerif-Bold-65" transform="translate(150.341797 0)"/>
     <use xlink:href="#DejaVuSerif-Bold-70" transform="translate(213.964844 0)"/>
     <use xlink:href="#DejaVuSerif-Bold-20" transform="translate(283.886719 0)"/>
     <use xlink:href="#DejaVuSerif-Bold-4c" transform="translate(318.701172 0)"/>
     <use xlink:href="#DejaVuSerif-Bold-65" transform="translate(389.013672 0)"/>
     <use xlink:href="#DejaVuSerif-Bold-61" transform="translate(452.636719 0)"/>
     <use xlink:href="#DejaVuSerif-Bold-72" transform="translate(517.431641 0)"/>
     <use xlink:href="#DejaVuSerif-Bold-6e" transform="translate(570.117188 0)"/>
     <use xlink:href="#DejaVuSerif-Bold-69" transform="translate(642.822266 0)"/>
     <use xlink:href="#DejaVuSerif-Bold-6e" transform="translate(680.810547 0)"/>
     <use xlink:href="#DejaVuSerif-Bold-67" transform="translate(753.515625 0)"/>
    </g>
   </g>
  </g>
  <g id="text_25">
   <!-- Speed Estimation Workflows Comparison -->
   <g transform="translate(386.45875 19.3575) scale(0.16 -0.16)">
    <defs>
     <path id="DejaVuSerif-Bold-45" d="M 300 0 
L 300 378 
L 897 378 
L 897 4288 
L 300 4288 
L 300 4666 
L 4494 4666 
L 4494 3566 
L 4063 3566 
L 4063 4238 
L 2100 4238 
L 2100 2741 
L 3322 2741 
L 3322 3334 
L 3750 3334 
L 3750 1722 
L 3322 1722 
L 3322 2316 
L 2100 2316 
L 2100 428 
L 4122 428 
L 4122 1100 
L 4550 1100 
L 4550 0 
L 300 0 
z
" transform="scale(0.015625)"/>
    </defs>
    <use xlink:href="#DejaVuSerif-Bold-53"/>
    <use xlink:href="#DejaVuSerif-Bold-70" transform="translate(72.216797 0)"/>
    <use xlink:href="#DejaVuSerif-Bold-65" transform="translate(142.138672 0)"/>
    <use xlink:href="#DejaVuSerif-Bold-65" transform="translate(205.761719 0)"/>
    <use xlink:href="#DejaVuSerif-Bold-64" transform="translate(269.384766 0)"/>
    <use xlink:href="#DejaVuSerif-Bold-20" transform="translate(339.306641 0)"/>
    <use xlink:href="#DejaVuSerif-Bold-45" transform="translate(374.121094 0)"/>
    <use xlink:href="#DejaVuSerif-Bold-73" transform="translate(450.341797 0)"/>
    <use xlink:href="#DejaVuSerif-Bold-74" transform="translate(506.640625 0)"/>
    <use xlink:href="#DejaVuSerif-Bold-69" transform="translate(552.832031 0)"/>
    <use xlink:href="#DejaVuSerif-Bold-6d" transform="translate(590.820312 0)"/>
    <use xlink:href="#DejaVuSerif-Bold-61" transform="translate(696.630859 0)"/>
    <use xlink:href="#DejaVuSerif-Bold-74" transform="translate(761.425781 0)"/>
    <use xlink:href="#DejaVuSerif-Bold-69" transform="translate(807.617188 0)"/>
    <use xlink:href="#DejaVuSerif-Bold-6f" transform="translate(845.605469 0)"/>
    <use xlink:href="#DejaVuSerif-Bold-6e" transform="translate(912.304688 0)"/>
    <use xlink:href="#DejaVuSerif-Bold-20" transform="translate(985.009766 0)"/>
    <use xlink:href="#DejaVuSerif-Bold-57" transform="translate(1019.824219 0)"/>
    <use xlink:href="#DejaVuSerif-Bold-6f" transform="translate(1124.003906 0)"/>
    <use xlink:href="#DejaVuSerif-Bold-72" transform="translate(1190.703125 0)"/>
    <use xlink:href="#DejaVuSerif-Bold-6b" transform="translate(1243.388672 0)"/>
    <use xlink:href="#DejaVuSerif-Bold-66" transform="translate(1312.675781 0)"/>
    <use xlink:href="#DejaVuSerif-Bold-6c" transform="translate(1355.693359 0)"/>
    <use xlink:href="#DejaVuSerif-Bold-6f" transform="translate(1393.681641 0)"/>
    <use xlink:href="#DejaVuSerif-Bold-77" transform="translate(1460.380859 0)"/>
    <use xlink:href="#DejaVuSerif-Bold-73" transform="translate(1546.464844 0)"/>
    <use xlink:href="#DejaVuSerif-Bold-20" transform="translate(1602.763672 0)"/>
    <use xlink:href="#DejaVuSerif-Bold-43" transform="translate(1637.578125 0)"/>
    <use xlink:href="#DejaVuSerif-Bold-6f" transform="translate(1717.167969 0)"/>
    <use xlink:href="#DejaVuSerif-Bold-6d" transform="translate(1783.867188 0)"/>
    <use xlink:href="#DejaVuSerif-Bold-70" transform="translate(1889.677734 0)"/>
    <use xlink:href="#DejaVuSerif-Bold-61" transform="translate(1959.599609 0)"/>
    <use xlink:href="#DejaVuSerif-Bold-72" transform="translate(2024.394531 0)"/>
    <use xlink:href="#DejaVuSerif-Bold-69" transform="translate(2077.080078 0)"/>
    <use xlink:href="#DejaVuSerif-Bold-73" transform="translate(2115.068359 0)"/>
    <use xlink:href="#DejaVuSerif-Bold-6f" transform="translate(2171.367188 0)"/>
    <use xlink:href="#DejaVuSerif-Bold-6e" transform="translate(2238.066406 0)"/>
   </g>
  </g>
 </g>
 <defs>
  <clipPath id="p818dd47615">
   <rect x="7.2" y="64.08" width="558.18" height="383.04"/>
  </clipPath>
  <clipPath id="pff669bc4d4">
   <rect x="577.26" y="64.08" width="558.18" height="383.04"/>
  </clipPath>
  <clipPath id="pd84f73cd58">
   <rect x="7.2" y="459" width="558.18" height="383.04"/>
  </clipPath>
  <clipPath id="p70a7cb6995">
   <rect x="577.26" y="459" width="558.18" height="383.04"/>
  </clipPath>
 </defs>
</svg>
